<?xml version="1.0" encoding="utf-8"?>
<!-- Generator: Adobe Illustrator 17.0.0, SVG Export Plug-In . SVG Version: 6.00 Build 0)  -->
<!DOCTYPE svg PUBLIC "-//W3C//DTD SVG 1.1//EN" "http://www.w3.org/Graphics/SVG/1.1/DTD/svg11.dtd">
<svg version="1.1" id="Layer_1" xmlns="http://www.w3.org/2000/svg" xmlns:xlink="http://www.w3.org/1999/xlink" x="0px" y="0px"
	 width="720px" height="720px" viewBox="-336 -336 720 720" enable-background="new -336 -336 720 720" xml:space="preserve">
<g>
	<path d="M3.48-228.945c-118.665,0-215.235,96.555-215.235,215.235c0,41.19,11.67,81.21,33.765,115.74
		c7.92,12.405,24.39,16.005,36.765,8.085c12.39-7.92,16.02-24.375,8.085-36.765c-16.59-25.965-25.365-56.055-25.365-87.06
		c0-89.31,72.66-161.985,161.985-161.985c89.31,0,161.97,72.66,161.97,161.985c0,89.31-72.66,161.97-161.97,161.97h-312.855
		c-14.7-0.015-26.625,11.91-26.625,26.61c0,14.7,11.925,26.625,26.625,26.625H3.48c118.665,0,215.22-96.54,215.22-215.22
		S122.145-228.945,3.48-228.945z"/>
	<path d="M376.2,156.045L300.75,80.61c-10.395-10.395-27.255-10.395-37.65,0s-10.395,27.27,0,37.65l29.985,29.985h-103.23
		c-14.7,0-26.625,11.925-26.625,26.625c0,14.7,11.925,26.625,26.625,26.625H293.1l-30,30c-10.395,10.395-10.395,27.255,0,37.65
		c5.205,5.205,12.015,7.8,18.825,7.8s13.62-2.595,18.825-7.8l75.45-75.45c4.995-4.995,7.8-11.76,7.8-18.825
		C384,167.805,381.195,161.04,376.2,156.045z"/>
</g>
</svg>
