<?xml version="1.0" encoding="utf-8"?>
<!-- Generator: Adobe Illustrator 17.0.0, SVG Export Plug-In . SVG Version: 6.00 Build 0)  -->
<!DOCTYPE svg PUBLIC "-//W3C//DTD SVG 1.1//EN" "http://www.w3.org/Graphics/SVG/1.1/DTD/svg11.dtd">
<svg version="1.1" id="Layer_1" xmlns="http://www.w3.org/2000/svg" xmlns:xlink="http://www.w3.org/1999/xlink" x="0px" y="0px"
	 width="48px" height="48px" viewBox="0 0 48 48" enable-background="new 0 0 48 48" xml:space="preserve">
<g>
	<path d="M41.033,23.694c2.516,0.71,4.301,2.171,5.457,3.915L36.265,6.977c-1.461-2.333-5.194-1.846-7.303-0.061L1.939,29.557
		c-2.455,2.11-2.597,5.863-0.325,8.135c2.008,2.008,5.194,2.191,7.405,0.406l2.617-2.069v0
		C18.615,28.786,30.22,20.712,41.033,23.694z"/>
	<path d="M44.201,28.154c-0.724-0.464-1.479-0.857-2.22-1.175c-0.323-0.122-0.66-0.233-1.012-0.33
		c-2.093-0.58-4.188-0.82-6.286-0.735c-3.32,0.302-6.879,1.546-10.605,3.715c-4.542,2.644-8.184,5.989-10.439,8.33l-0.13,0.135
		l-0.147,0.117l-1.25,0.989c2.979-0.981,18.701-5.615,28.513,2.219C47.113,46.606,51.525,33.368,44.201,28.154z"/>
</g>
</svg>
