<?xml version="1.0" encoding="utf-8"?>
<!-- Generator: Adobe Illustrator 17.0.0, SVG Export Plug-In . SVG Version: 6.00 Build 0)  -->
<!DOCTYPE svg PUBLIC "-//W3C//DTD SVG 1.1//EN" "http://www.w3.org/Graphics/SVG/1.1/DTD/svg11.dtd">
<svg version="1.1" id="Layer_1" xmlns="http://www.w3.org/2000/svg" xmlns:xlink="http://www.w3.org/1999/xlink" x="0px" y="0px"
	 width="48px" height="48px" viewBox="0 0 48 48" enable-background="new 0 0 48 48" xml:space="preserve">
<path d="M44.333,18.484c0-1.665-1.362-2.977-2.977-2.977s-2.977,1.312-2.977,2.977v12.412c0,1.615,1.362,2.926,2.977,2.926
	s2.977-1.312,2.977-2.926V18.484z M10.781,16.063v19.223c0,1.766,1.362,3.179,3.128,3.179h2.17v6.559
	c0,1.615,1.312,2.977,2.977,2.977c1.615,0,2.926-1.362,2.926-2.977v-6.559h4.036v6.559c0,1.615,1.312,2.977,2.926,2.977
	c1.665,0,2.977-1.362,2.977-2.977v-6.559h2.17c1.766,0,3.179-1.413,3.179-3.179V16.063H10.781z M30.054,10.21
	c-0.605,0-1.11-0.505-1.11-1.11s0.505-1.16,1.11-1.16c0.656,0,1.16,0.555,1.16,1.16S30.71,10.21,30.054,10.21z M17.946,10.21
	c-0.656,0-1.16-0.505-1.16-1.11s0.505-1.16,1.16-1.11c0.605-0.05,1.11,0.505,1.11,1.11S18.551,10.21,17.946,10.21z M30.559,4.357
	l2.069-3.784c0.05-0.202,0-0.404-0.202-0.555c-0.202-0.05-0.404,0-0.555,0.202l-2.069,3.784C28.036,3.247,26.069,2.793,24,2.793
	s-4.036,0.404-5.802,1.211L16.129,0.22c-0.151-0.202-0.353-0.252-0.555-0.202c-0.202,0.151-0.252,0.353-0.202,0.555l2.069,3.784
	c-4.036,2.069-6.811,6.105-6.811,10.696h26.69C37.32,10.462,34.595,6.426,30.559,4.357z M6.644,15.508
	c-1.615,0-2.977,1.312-2.977,2.977v12.412c0,1.615,1.362,2.926,2.977,2.926s2.977-1.312,2.977-2.926V18.484
	C9.621,16.819,8.258,15.508,6.644,15.508z"/>
</svg>
