<?xml version="1.0" encoding="utf-8"?>
<!-- Generator: Adobe Illustrator 17.0.0, SVG Export Plug-In . SVG Version: 6.00 Build 0)  -->
<!DOCTYPE svg PUBLIC "-//W3C//DTD SVG 1.1//EN" "http://www.w3.org/Graphics/SVG/1.1/DTD/svg11.dtd">
<svg version="1.1" id="Layer_1" xmlns="http://www.w3.org/2000/svg" xmlns:xlink="http://www.w3.org/1999/xlink" x="0px" y="0px"
	 width="48px" height="48px" viewBox="0 0 48 48" enable-background="new 0 0 48 48" xml:space="preserve">
<g>
	<polygon points="21.234,22.6 30.615,29.99 24.404,14.661 	"/>
	<path d="M24,0C10.746,0,0,10.746,0,24c0,13.255,10.746,24,24,24c13.255,0,24-10.744,24-24C48,10.746,37.255,0,24,0z M33.847,35.943
		c-0.467,0-0.827-0.182-1.325-0.585l-12.387-9.131L15.985,37.5h-3.587l10.485-26.094c0.273-0.663,0.858-1.452,1.521-1.452
		c0.662,0,1.207,0.132,1.48,0.795l9.553,22.881c0.105,0.281,0.164,0.488,0.164,0.653C35.601,35.296,34.783,35.943,33.847,35.943z"/>
</g>
</svg>
