<?xml version="1.0" encoding="utf-8"?>
<!-- Generator: Adobe Illustrator 17.0.0, SVG Export Plug-In . SVG Version: 6.00 Build 0)  -->
<!DOCTYPE svg PUBLIC "-//W3C//DTD SVG 1.1//EN" "http://www.w3.org/Graphics/SVG/1.1/DTD/svg11.dtd">
<svg version="1.1" id="Layer_1" xmlns="http://www.w3.org/2000/svg" xmlns:xlink="http://www.w3.org/1999/xlink" x="0px" y="0px"
	 width="48px" height="48px" viewBox="0 0 48 48" enable-background="new 0 0 48 48" xml:space="preserve">
<path d="M18.129,32.254V32.16V32.254z M18.787,32.067v-0.094V32.067z M19.726,31.597v-0.094V31.597z M21.417,30.376h0.094H21.417z
	 M21.605,30.376v-0.094V30.376z M43.585,12.904V12.81V12.904z M42.27,5.577c0,0,0,0,0,0.094C42.27,5.671,42.27,5.671,42.27,5.577
	L42.27,5.577z M46.215,2.29c0.094-0.094,0.188-0.094,0.376,0c0,0,0,0,0.094,0c0,0,0,0,0.094,0c0,0,0,0,0.094,0s0.094,0,0.094,0.094
	h0.094c0.094,0,0.094,0,0.094,0c0.094,0,0.094,0,0.094,0c0.094,0,0.094,0,0.094,0c0,0.094,0,0.094,0.094,0.094
	c0,0.094,0,0.094,0,0.094h0.094v0.094c0.094,0.282,0.094,0.47,0.188,0.658c0.094,0.282,0.094,0.376,0.094,0.47
	c0,0.094,0,0.094,0.094,0.188c0,0.094,0,0.094,0,0.094v0.094C48,4.262,48,4.544,48,4.92c0,0.094,0,0.282,0,0.376c0,0,0,0,0,0.094
	c0,0.188,0,0.376,0,0.658v0.094c0,0.188,0,0.376-0.094,0.564c0,0.094,0,0.094,0,0.188s0,0.094,0,0.094c0,0.094,0,0.094,0,0.094
	v0.094h-0.094c0,0.188,0,0.376-0.094,0.564c0,0.094-0.094,0.188-0.188,0.47c-0.094,0.094-0.094,0.188-0.094,0.188
	c0,0.094,0,0.094,0,0.094v0.094h-0.094c-0.094,0.188-0.094,0.282-0.094,0.376h-0.094v0.094c-0.094,0.094-0.094,0.282-0.188,0.376
	c-0.094,0.188-0.188,0.282-0.282,0.376c-0.094,0.094-0.094,0.188-0.188,0.282c-0.094-0.094-0.188-0.188-0.282-0.282
	c0-0.094-0.094-0.188-0.188-0.282c0,0,0,0,0-0.094c-0.094,0-0.094,0-0.094,0c-0.282-0.376-0.658-0.658-1.033-0.939V8.395h-0.094
	c-0.094,0-0.094,0-0.094-0.094c-0.188-0.094-0.376-0.188-0.47-0.282c-0.094-0.094-0.094-0.094-0.094-0.094
	c-0.094-0.094-0.188-0.188-0.376-0.282h-0.094c0.094,0,0.094,0,0.094,0.094c0,0,0,0,0.094,0l0,0c0,0,0,0,0.094,0.094
	c0,0,0,0,0.094,0.094c0.094,0.094,0.188,0.094,0.188,0.094c0,0.094,0.094,0.094,0.188,0.188v0.094c0.094,0,0.094,0,0.188,0
	c0,0.094,0,0.094,0,0.094s0,0,0.094,0c0,0.094,0,0.094,0.094,0.188c0.094,0.094,0.188,0.094,0.282,0.188v0.094
	c0,0,0.094,0.094,0.188,0.188c0,0.094,0,0.094,0,0.094c0.188,0.188,0.282,0.376,0.282,0.564v0.094h0.094
	c0.094,0.188,0.094,0.376,0.094,0.564c0.094,0.282,0.094,0.47,0.094,0.47c-0.094,0.094-0.188,0.188-0.376,0.376l-0.094,0.094
	c-0.094,0.188-0.376,0.376-0.751,0.658c-0.094,0-0.094,0-0.094,0.094l0,0c-0.282,0.188-0.564,0.376-0.845,0.658
	c-0.282,0.282-0.658,0.47-0.939,0.658c-0.094,0.094-0.188,0.188-0.282,0.282c-0.188,0.094-0.282,0.188-0.376,0.282
	c-0.658,0.47-1.221,0.845-1.691,1.127c-0.47,0.282-0.658,0.47-0.751,0.564c-0.094,0.094-0.282,0.188-0.47,0.282
	c-0.188,0.094-0.282,0.188-0.376,0.282c-0.094,0.094-0.564,0.376-1.409,0.845c0,0,0,0-0.094,0.094s-0.094,0.094-0.094,0.094
	c-0.094,0-0.094,0-0.094,0.094c-0.094,0.094-0.188,0.094-0.188,0.094s0,0-0.094,0c-0.094,0.094-0.094,0.094-0.094,0.094
	c-0.47,0.282-1.033,0.658-1.597,1.127c-0.658,0.47-0.939,0.658-0.939,0.658c-0.094,0-0.094,0-0.094,0
	c-0.094,0.094-0.094,0.094-0.188,0.188c-0.282,0.282-0.658,0.564-1.127,0.845c-0.094,0-0.094,0-0.094,0
	c-0.188,0.188-0.376,0.376-0.658,0.564c-0.282,0.188-0.47,0.282-0.564,0.376c0,0.094,0,0.094,0,0.094c-0.094,0-0.094,0-0.094,0
	c0,0.094,0,0.094-0.094,0.094c-0.094,0.094-0.188,0.094-0.188,0.188c-0.094,0.094-0.094,0.094-0.094,0.094h-0.094
	c-0.658,0.658-1.879,1.691-3.476,3.288c-0.188,0.188-0.47,0.47-0.939,0.845l-0.094,0.094l-0.094,0.094
	c-0.094,0.094-0.188,0.188-0.376,0.376c-0.188,0.188-0.282,0.282-0.376,0.376c-0.094,0.094-0.094,0.094-0.188,0.188
	s-0.094,0.094-0.094,0.094c-0.094,0.094-0.094,0.094-0.188,0.188c-0.094,0.094-0.188,0.188-0.282,0.282
	c-0.094,0-0.094,0-0.188,0.094s-0.094,0.094-0.094,0.188c-0.376,0.282-0.658,0.564-0.939,0.845
	c-1.503,1.221-2.442,1.973-2.912,2.254c-0.094,0-0.188,0-0.376,0.094c0,0.094,0,0.094,0,0.094c-0.094,0-0.094,0-0.188,0.094
	c-0.094,0-0.094,0-0.094,0c0,0.094,0,0.094,0,0.094c-0.094,0-0.094,0-0.188,0v0.094c-0.376,0.282-0.658,0.376-0.939,0.47
	c0,0,0,0-0.094,0c-0.094,0.094-0.094,0.094-0.094,0.094c-0.094,0.094-0.282,0.094-0.47,0.188c-0.094,0-0.094,0-0.094,0l0,0
	c-0.094,0.094-0.094,0.094-0.094,0.094s0,0-0.094,0s-0.094,0-0.094,0s0,0-0.094,0.094h-0.094c0,0,0,0-0.094,0s-0.094,0-0.094,0
	c-0.094,0.094-0.094,0.094-0.094,0.094c-0.094,0-0.094,0-0.094,0c-0.094,0-0.188,0-0.376,0.094c-0.094,0-0.094,0-0.188,0
	c-0.094,0.094-0.188,0.094-0.282,0.094c-0.282,0.094-0.845,0.094-1.503,0.188c0,0.094,0,0.094,0,0.094c-0.094,0-0.094,0-0.188,0
	s-0.282,0-0.564,0c-0.094,0.094-0.376,0.094-0.845,0.188c-0.376,0.094-0.658,0.094-0.939,0.094c0,0.094,0,0.094-0.094,0.094
	c-0.282,0.094-0.658,0.094-1.033,0.188c-0.188,0.094-0.282,0.094-0.376,0.188l-0.564,0.188l-1.033,0.282l0.094-0.094
	c0,0,0,0-0.094,0.094c-0.47,0.47-0.939,1.127-1.503,1.785l0,0c0,0.094,0,0.094-0.094,0.094v0.094
	c-0.282,0.376-0.658,0.751-0.939,1.221c-0.094,0.094-0.094,0.094-0.188,0.188c-0.094,0.094-0.094,0.188-0.188,0.282l0,0v0.094
	c-0.282,0.282-0.564,0.658-0.845,1.127c-0.094,0-0.094,0-0.094,0.094c-0.094,0.094-0.094,0.094-0.094,0.094
	c-0.282,0.47-0.47,0.751-0.564,0.845H4.697v0.188l-0.094,0.094c-0.282,0.47-0.564,0.845-0.751,1.127l-0.094,0.094
	c0,0-0.094,0.094-0.188,0.282l-0.094,0.188l-0.094,0.188c0,0,0,0,0,0.094c-0.094,0-0.094,0-0.094,0c0,0.094,0,0.094,0,0.094H3.194
	v0.094l-0.188,0.282l-2.912,3.006L0,45.687c0.094-0.282,0.188-0.47,0.282-0.564c0,0,0.094-0.094,0.188-0.188
	s0.094-0.188,0.188-0.282V44.56c0.094-0.282,0.282-0.47,0.376-0.564v-0.094l0.094-0.094c0.094-0.094,0.094-0.094,0.094-0.094
	s0,0,0.094-0.094c0-0.094,0-0.094,0-0.188h0.094c0.47-0.658,0.751-1.221,0.939-1.503c0,0,0,0,0.094-0.094
	c0-0.094,0-0.094,0.094-0.188c0,0,0,0,0.094-0.094c0-0.094,0-0.094,0-0.094c0.094-0.094,0.094-0.188,0.188-0.282l0.094-0.094
	c0.094-0.094,0.282-0.47,0.751-1.127c0.094-0.188,0.376-0.658,0.845-1.315c0.845-1.127,1.503-2.067,2.067-2.818
	c0.094,0,0.094,0,0.188-0.094c0-0.094,0-0.094,0-0.094s0,0,0.094-0.094l0,0c0-0.094,0.188-0.282,0.47-0.564
	c0.376-0.564,0.751-1.033,1.033-1.409c0-0.094,0-0.094,0-0.094v-0.094l-0.094-0.094v-0.094c0,0,0,0,0-0.094c0,0,0,0,0-0.094
	c-0.094,0-0.094,0-0.094-0.094s0-0.094,0-0.094v-0.094c0-0.094,0-0.188,0-0.282c0,0,0,0,0-0.094s0-0.282,0.094-0.376
	c0-0.094,0-0.282,0-0.47c0.094,0,0.094,0,0.094-0.094l0,0c0,0,0,0,0-0.094c0,0,0,0,0-0.094c0.094-0.094,0.094-0.188,0.094-0.282
	c0,0,0,0,0.094-0.094c0-0.094,0-0.282,0.094-0.47h0.094C8.83,30.188,8.83,30,8.924,29.906c0.094-0.094,0.188-0.282,0.376-0.751
	c0.094-0.188,0.188-0.376,0.282-0.47c0.094-0.282,0.282-0.47,0.376-0.564c0,0,0,0,0-0.094c0,0,0,0,0.094-0.094
	c0.094-0.094,0.188-0.282,0.376-0.564c0,0,0.094-0.094,0.188-0.188c0.094-0.094,0.094-0.188,0.094-0.188s0,0,0.094-0.094
	c0,0,0,0,0-0.094h0.094v-0.094l0.094-0.094c0-0.094,0-0.094,0-0.094c0.094-0.094,0.188-0.188,0.282-0.376
	c0.094-0.094,0.188-0.188,0.188-0.188c0.282-0.47,0.564-0.751,0.658-0.845c0-0.094,0-0.094,0.094-0.094
	c0.094-0.094,0.188-0.282,0.282-0.376c0-0.094,0.094-0.188,0.188-0.282c0.094-0.094,0.094-0.094,0.094-0.094s0,0,0.094-0.094
	c0,0,0,0,0.094-0.094c0.376-0.47,0.658-0.751,0.751-0.939c0.094-0.094,0.188-0.094,0.282-0.188s0.094-0.094,0.094-0.188
	c0,0,0,0,0.094-0.094l0.094-0.094c0-0.094,0.094-0.188,0.282-0.282v-0.094h0.094c0,0,0,0,0-0.094c0,0,0,0,0.094-0.094
	c0,0,0,0,0.094-0.094c0,0,0,0,0.094-0.094c0,0,0,0,0.094-0.094l0,0c0.094-0.094,0.094-0.094,0.188-0.188
	c0.094-0.094,0.094-0.094,0.188-0.188c0.47-0.564,0.939-1.033,1.221-1.315c0.094-0.094,0.094-0.188,0.188-0.282
	c0.094,0,0.094,0,0.188-0.094c0,0,0,0,0-0.094h0.094c0.094-0.282,0.376-0.564,0.845-0.939c0,0,0,0,0.094-0.094c0,0,0,0,0.094-0.094
	c0,0,0,0,0.094-0.094c0.094-0.094,0.188-0.188,0.282-0.282s0.188-0.188,0.282-0.282l0,0c0.094-0.094,0.094-0.188,0.188-0.188
	c0.188-0.188,0.47-0.47,0.845-0.845c0.282-0.282,0.564-0.564,0.658-0.658c0,0,0,0,0.094-0.094l0,0
	c0.094-0.094,0.094-0.094,0.094-0.094s0,0,0.094-0.094c0.094-0.094,0.094-0.094,0.094-0.094s0.188-0.188,0.658-0.564
	c0-0.094,0-0.094,0.094-0.188c0.094,0,0.094,0,0.094-0.094c0,0,0,0,0.094-0.094c0.094,0,0.094,0,0.094-0.094c0,0,0,0,0.094,0
	c0.094-0.094,0.094-0.094,0.188-0.188c0,0,0,0,0.094-0.094c0.094-0.094,0.094-0.094,0.094-0.094s0.094,0,0.188-0.094
	c0,0,0,0,0.094-0.094l0,0c0.282-0.282,0.658-0.564,0.939-0.751c0.094-0.094,0.188-0.188,0.282-0.282
	c0.094-0.094,0.188-0.094,0.188-0.094s0,0,0-0.094h0.094l0.094-0.094c0.094,0,0.094,0,0.188-0.094
	c0.094-0.094,0.094-0.094,0.188-0.188c0,0,0.094,0,0.188-0.094c0.094-0.094,0.094-0.094,0.094-0.094s0,0,0.094-0.094
	c0.094,0,0.094,0,0.094-0.094c0.188-0.094,0.376-0.282,0.658-0.47c0.094-0.188,0.47-0.47,1.127-0.751l0.094-0.094
	c0,0,0.094,0,0.188-0.094s0.094-0.094,0.188-0.094v-0.094c0,0,0,0,0.094,0c0.094-0.094,0.188-0.188,0.188-0.188
	c0.094,0,0.188,0,0.282-0.094V10.18h0.094c0.47-0.376,0.845-0.564,0.939-0.658h0.094l0.094-0.094
	c0.094-0.094,0.188-0.094,0.282-0.188c0,0,0,0,0.094,0c0,0,0,0,0.094-0.094c0,0,0,0,0.094-0.094c0.094,0,0.094,0,0.188-0.094
	c0.47-0.282,0.939-0.47,1.409-0.751c0.094-0.094,0.188-0.188,0.282-0.188s0.094,0,0.094-0.094c0,0,0,0,0.094,0c0,0,0,0,0.094-0.094
	c0.094,0,0.094,0,0.094-0.094c0.094,0,0.188,0,0.282-0.094s0.188-0.094,0.282-0.188c0.094,0,0.094,0,0.188-0.094
	c0.094,0,0.094,0,0.094,0c0-0.094,0-0.094,0-0.094c0.282-0.094,0.564-0.282,0.939-0.376V6.798h0.094
	c0.658-0.282,1.127-0.564,1.409-0.751c0.564-0.282,0.939-0.376,1.033-0.47c0.094-0.094,0.282-0.094,0.376-0.188
	s0.188-0.094,0.188-0.094c0.094,0,0.094,0,0.094,0c0.094-0.094,0.188-0.094,0.282-0.188c0.094,0,0.188,0,0.282-0.094
	c0.094,0,0.094,0,0.094,0c0-0.094,0-0.094,0.094-0.188c0.094,0,0.094,0,0.188,0c0.188-0.094,0.376-0.094,0.564-0.188
	c0,0,0,0,0.094-0.094c0.094,0,0.094,0,0.188-0.094c0.094,0,0.094,0,0.094,0s0,0,0.094,0c0,0,0,0,0-0.094
	c0.376-0.094,0.845-0.282,1.315-0.47c0.282-0.094,0.564-0.188,0.751-0.282h0.094c0.094-0.094,0.188-0.094,0.282-0.188
	c0.094,0,0.188,0,0.282-0.094c0.282-0.094,0.658-0.188,1.033-0.282h0.094c-0.094,0.188-0.094,0.282-0.188,0.376
	c0,0.094,0,0.094,0,0.188c0,0.094,0,0.188,0,0.282l0,0c0,0.094,0,0.094,0,0.094c-0.094,0.282-0.094,0.47-0.094,0.564
	c0,0.094,0,0.094-0.094,0.188c0,0.094,0,0.094,0,0.094c0,0.094,0,0.094,0,0.188c-0.094,0.188-0.094,0.282,0,0.282
	c0.094-0.094,0.094-0.094,0.094-0.094c0-0.094,0-0.094,0-0.094s0,0,0.094-0.094c0,0,0,0,0-0.094c0,0,0-0.094,0-0.188
	c0.094-0.094,0.094-0.094,0.188-0.188V4.45l0.094-0.188c0,0,0,0,0.094-0.094c0-0.094,0-0.094,0-0.188
	c0.188-0.47,0.282-0.845,0.376-0.939c0.094-0.094,0.094-0.188,0.094-0.282c0.094,0,0.188,0,0.282-0.094c0.094,0,0.094,0,0.188,0
	s0.188,0,0.376-0.094c0.094,0,0.094,0,0.094,0c0.094,0,0.188,0,0.282-0.094c0.094,0,0.188,0,0.282,0l0.094-0.094
	c0.282-0.094,0.564-0.094,0.751-0.094h0.188h0.094C46.121,2.29,46.121,2.29,46.215,2.29z"/>
</svg>
