<?xml version="1.0" encoding="utf-8"?>
<!-- Generator: Adobe Illustrator 17.0.0, SVG Export Plug-In . SVG Version: 6.00 Build 0)  -->
<!DOCTYPE svg PUBLIC "-//W3C//DTD SVG 1.1//EN" "http://www.w3.org/Graphics/SVG/1.1/DTD/svg11.dtd">
<svg version="1.1" id="Layer_1" xmlns="http://www.w3.org/2000/svg" xmlns:xlink="http://www.w3.org/1999/xlink" x="0px" y="0px"
	 width="48px" height="48px" viewBox="0 0 48 48" enable-background="new 0 0 48 48" xml:space="preserve">
<g>
	<polygon points="38.825,24.541 36.306,26.223 37.633,28.212 39.309,30.724 43.765,27.75 40.761,23.249 	"/>
	<polygon points="7.585,25.186 12.979,21.587 11.606,19.53 8.389,14.709 1.487,19.315 6.077,26.193 	"/>
	<polygon points="25.605,10.188 26.849,12.052 26.978,12.245 26.978,12.245 26.978,12.245 29.498,10.564 31.434,9.272 26.844,2.394 
		26.844,2.394 26.843,2.394 22.389,5.367 22.389,5.367 22.388,5.367 	"/>
	<polygon points="22.306,35.565 16.912,39.164 15.405,40.17 18.408,44.671 25.31,40.066 23.634,37.554 	"/>
	<polygon points="33.727,27.943 24.659,33.994 25.987,35.984 33.599,47.39 42.666,41.339 35.055,29.933 	"/>
	<polygon points="15.332,20.017 24.399,13.966 23.027,11.909 15.486,0.61 6.419,6.661 13.959,17.96 	"/>
	<rect x="3.045" y="10.862" transform="matrix(0.5551 0.8318 -0.8318 0.5551 12.3578 1.7037)" width="3.083" height="3.083"/>
	<rect x="12.287" y="41.607" transform="matrix(-0.5551 -0.8318 0.8318 -0.5551 -14.386 78.6032)" width="3.083" height="3.083"/>
	<polygon points="40.126,5.412 0,32.251 7.509,43.594 48,16.574 	"/>
</g>
</svg>
