<?xml version="1.0" encoding="utf-8"?>
<!-- Generator: Adobe Illustrator 17.0.0, SVG Export Plug-In . SVG Version: 6.00 Build 0)  -->
<!DOCTYPE svg PUBLIC "-//W3C//DTD SVG 1.1//EN" "http://www.w3.org/Graphics/SVG/1.1/DTD/svg11.dtd">
<svg version="1.1" id="Layer_1" xmlns="http://www.w3.org/2000/svg" xmlns:xlink="http://www.w3.org/1999/xlink" x="0px" y="0px"
	 width="48px" height="48px" viewBox="0 0 48 48" enable-background="new 0 0 48 48" xml:space="preserve">
<path d="M37.868,9.211L48,5.322V19.65l-10.132,4.094V9.211z M24.768,20.162l0.205-14.84l10.951,4.401v15.352L24.768,20.162z
	 M28.861,4.503l7.676-3.275l7.676,3.275l-8.29,3.07L28.861,4.503z M13.203,9.723l10.132-3.787v14.226l-10.132,4.094V9.723z
	 M0,20.776l0.307-14.84l10.951,4.299v15.454L0,20.776z M4.094,5.117L11.77,1.74l7.676,3.377l-8.188,2.968L4.094,5.117z
	 M25.791,30.908l10.132-3.889v14.328l-10.132,4.094V30.908z M12.691,41.859l0.205-14.84l10.951,4.401v15.352L12.691,41.859z
	 M16.785,26.2l7.676-3.275l7.676,3.275l-8.29,3.07L16.785,26.2z"/>
</svg>
