<?xml version="1.0" encoding="utf-8"?>
<!-- Generator: Adobe Illustrator 17.0.0, SVG Export Plug-In . SVG Version: 6.00 Build 0)  -->
<!DOCTYPE svg PUBLIC "-//W3C//DTD SVG 1.1//EN" "http://www.w3.org/Graphics/SVG/1.1/DTD/svg11.dtd">
<svg version="1.1" id="Layer_1" xmlns="http://www.w3.org/2000/svg" xmlns:xlink="http://www.w3.org/1999/xlink" x="0px" y="0px"
	 width="48px" height="48px" viewBox="0 0 48 48" enable-background="new 0 0 48 48" xml:space="preserve">
<g>
	<polygon points="12.868,30.628 15.631,32.203 22.198,28.46 16.187,25.033 12.868,26.925 	"/>
	<polygon points="11.074,10.544 16.147,13.437 22.198,9.987 4.678,0 4.678,19.975 11.074,16.329 	"/>
	<polygon points="25.802,9.987 31.853,13.437 36.926,10.544 36.926,16.329 43.322,19.975 43.322,0 	"/>
	<polygon points="35.132,26.925 31.813,25.033 25.802,28.46 32.369,32.203 35.132,30.628 	"/>
	<polygon points="4.678,25.959 4.678,48 22.205,38.009 22.205,36.985 22.205,36.974 22.205,30.521 11.074,36.867 11.074,25.882 
		22.205,19.536 22.205,18.513 22.205,17.913 22.205,12.049 4.678,22.041 	"/>
	<polygon points="24,17.913 24,18.513 36.926,25.882 36.926,36.867 24,29.498 24,36.974 24,36.985 43.322,48 43.322,25.959 
		43.322,22.041 24,11.026 	"/>
</g>
</svg>
