<?xml version="1.0" encoding="utf-8"?>
<!-- Generator: Adobe Illustrator 17.0.0, SVG Export Plug-In . SVG Version: 6.00 Build 0)  -->
<!DOCTYPE svg PUBLIC "-//W3C//DTD SVG 1.1//EN" "http://www.w3.org/Graphics/SVG/1.1/DTD/svg11.dtd">
<svg version="1.1" id="Layer_1" xmlns="http://www.w3.org/2000/svg" xmlns:xlink="http://www.w3.org/1999/xlink" x="0px" y="0px"
	 width="48px" height="48px" viewBox="0 0 48 48" enable-background="new 0 0 48 48" xml:space="preserve">
<path d="M34.368,31.776c-0.528,1.104-1.152,1.872-1.92,2.448c-0.768,0.576-1.728,1.056-2.88,1.392
	c-1.152,0.24-2.592,0.48-4.272,0.48H14.592V9.6h10.512c2.064,0,3.696,0.24,4.896,0.768s2.208,1.344,2.832,2.448
	c0.72,1.152,1.056,2.304,1.056,3.504c0,1.104-0.336,2.208-0.912,3.168c-0.624,1.008-1.584,1.824-2.784,2.448
	c1.584,0.432,2.784,1.248,3.696,2.4c0.816,1.104,1.296,2.448,1.296,3.984C35.184,29.52,34.944,30.672,34.368,31.776z M48,6.384
	C48,2.88,45.12,0,41.616,0H6.384C2.88,0,0,2.88,0,6.384v35.232C0,45.12,2.88,48,6.384,48h35.232C45.12,48,48,45.12,48,41.616V6.384z
	 M27.744,20.4c0.912-0.24,1.584-0.768,2.016-1.344c0.432-0.624,0.672-1.392,0.672-2.352c0-0.816-0.192-1.68-0.624-2.304
	c-0.384-0.624-1.008-0.96-1.776-1.152c-0.432-0.144-0.96-0.192-1.632-0.192c-0.672,0-1.488,0-2.4,0h-5.952v7.68h6.384
	C25.968,20.736,27.12,20.592,27.744,20.4z M28.704,24.432c-0.432-0.144-1.008-0.24-1.632-0.24c-0.672,0-1.44,0-2.256,0h-6.768v8.832
	h7.248c1.104,0,1.92-0.144,2.352-0.192c0.816-0.192,1.488-0.432,2.016-0.768c0.576-0.336,1.008-0.864,1.344-1.488
	c0.384-0.624,0.528-1.44,0.528-2.256c0-0.96-0.24-1.728-0.768-2.448C30.336,25.104,29.616,24.672,28.704,24.432z"/>
</svg>
