<?xml version="1.0" encoding="utf-8"?>
<!-- Generator: Adobe Illustrator 17.0.0, SVG Export Plug-In . SVG Version: 6.00 Build 0)  -->
<!DOCTYPE svg PUBLIC "-//W3C//DTD SVG 1.1//EN" "http://www.w3.org/Graphics/SVG/1.1/DTD/svg11.dtd">
<svg version="1.1" id="Layer_1" xmlns="http://www.w3.org/2000/svg" xmlns:xlink="http://www.w3.org/1999/xlink" x="0px" y="0px"
	 width="48px" height="48px" viewBox="0 0 48 48" enable-background="new 0 0 48 48" xml:space="preserve">
<g>
	<path d="M38.525,27.532h-3.318c-1.523,4.703-5.968,7.958-10.932,7.958c-6.336,0-11.491-5.154-11.491-11.49
		c0-6.336,5.155-11.492,11.491-11.492c4.965,0,9.409,3.255,10.932,7.959h3.318c-1.61-6.495-7.511-11.149-14.251-11.149
		c-8.095,0-14.68,6.586-14.68,14.681c0,8.095,6.586,14.68,14.68,14.68C31.014,38.68,36.915,34.026,38.525,27.532z"/>
	<path d="M23.8,30.572c-1.423-0.101-2.759-0.654-3.838-1.59l-2.436,2.436c1.736,1.583,3.933,2.495,6.274,2.604V30.572z"/>
	<path d="M23.799,17.427v-3.45c-5.312,0.249-9.558,4.649-9.558,10.022c0,1.24,0.225,2.448,0.67,3.599l3.155-1.388
		c-0.254-0.709-0.382-1.451-0.382-2.211C17.684,20.525,20.386,17.671,23.799,17.427z"/>
	<path d="M33.662,20.467c-0.942-2.49-2.876-4.544-5.314-5.634l-1.251,3.216c1.119,0.532,2.073,1.374,2.737,2.418H33.662z"/>
	<path d="M33.664,27.53h-3.828c-0.666,1.046-1.62,1.888-2.737,2.419l1.251,3.216C30.786,32.075,32.721,30.021,33.664,27.53z"/>
	<path d="M4.179,29.303c-0.07-0.264-0.123-0.485-0.174-0.708l-0.031-0.141c-0.042-0.186-0.08-0.379-0.118-0.572
		c-0.017-0.09-0.032-0.178-0.047-0.266c-0.029-0.164-0.055-0.31-0.078-0.459c-0.021-0.134-0.038-0.267-0.056-0.4
		c-0.103-0.765-0.164-1.532-0.182-2.285H0.292c0.016,0.794,0.073,1.604,0.17,2.414L0,27.006l0.471-0.058
		c0.032,0.258,0.067,0.517,0.107,0.772l0.029,0.178c0.041,0.244,0.077,0.454,0.118,0.663c0.016,0.089,0.034,0.173,0.052,0.256
		l0.016,0.077c0.035,0.168,0.07,0.334,0.108,0.499c0.033,0.144,0.069,0.288,0.106,0.433l0.024,0.096l0.075,0.296
		c0.043,0.159,0.09,0.32,0.136,0.481l0.035,0.122l0.01,0.035l0.026,0.085c0.236,0.78,0.509,1.544,0.814,2.278l2.935-1.291
		c-0.255-0.617-0.483-1.259-0.682-1.914C4.31,29.779,4.243,29.542,4.179,29.303z"/>
	<path d="M24.274,44.785c-5.383,0-10.46-2.044-14.349-5.765l-2.269,2.269c4.492,4.322,10.374,6.697,16.618,6.697
		c11.895,0,22.001-8.755,23.726-20.453h-3.241C43.061,37.397,34.326,44.785,24.274,44.785z"/>
	<path d="M24.274,3.215c4.356,0,8.51,1.331,12.043,3.855l1.919-2.572c-4.087-2.934-8.904-4.483-13.962-4.483
		c-9.808,0-18.463,5.81-22.18,14.845l2.988,1.163C8.287,8.342,15.939,3.215,24.274,3.215z"/>
	<path d="M48,20.468c-0.458-3.116-1.509-6.059-3.13-8.765l-2.722,1.699c1.303,2.188,2.18,4.561,2.611,7.066H48z"/>
	<path d="M31.721,6.168l-1.157,2.976c4.753,2.023,8.329,6.301,9.459,11.325h3.255C42.094,14.092,37.725,8.684,31.721,6.168z"/>
	<path d="M23.8,7.868l0.001-3.19c-7.553,0.19-14.432,4.894-17.36,11.873l2.973,1.157C11.865,11.944,17.55,8.056,23.8,7.868z"/>
	<path d="M16.66,41.758l1.185-2.961c-5.768-2.509-9.521-8.049-9.701-14.324h-3.19C5.135,32.057,9.674,38.759,16.66,41.758z"/>
	<path d="M43.278,27.53h-3.256c-1.606,7.175-7.927,12.384-15.273,12.6v3.191C33.799,43.095,41.626,36.42,43.278,27.53z"/>
</g>
</svg>
