<?xml version="1.0" encoding="utf-8"?>
<!-- Generator: Adobe Illustrator 17.0.0, SVG Export Plug-In . SVG Version: 6.00 Build 0)  -->
<!DOCTYPE svg PUBLIC "-//W3C//DTD SVG 1.1//EN" "http://www.w3.org/Graphics/SVG/1.1/DTD/svg11.dtd">
<svg version="1.1" id="Layer_1" xmlns="http://www.w3.org/2000/svg" xmlns:xlink="http://www.w3.org/1999/xlink" x="0px" y="0px"
	 width="48px" height="48px" viewBox="0 0 48 48" enable-background="new 0 0 48 48" xml:space="preserve">
<g>
	<path d="M23.006,24.432c-0.705,1.529-1.383,3.072-1.997,4.64c-0.557,1.423-1.148,2.908-1.339,4.434
		c-0.056,0.451-0.081,0.906-0.08,1.36c0,0.203,0.007,0.406,0.018,0.608c0.021,0.393,0.013,0.42,0.385,0.544
		c0.851,0.284,1.733,0.477,2.625,0.575c1.808,0.199,3.651,0,5.377-0.574c-1.348-1.233-2.167-2.91-2.816-4.59
		C24.3,29.152,23.666,26.78,23.006,24.432C22.768,24.948,24.51,29.784,23.006,24.432z"/>
	<path d="M24.002,0.034c-7.655,0-15.015,3.792-19.477,10.011c2.711-1.549,5.579-2.236,8.694-1.741
		c1.201,0.191,2.393,0.535,3.489,1.067c0.2,0.097,0.395,0.201,0.585,0.315c0.148,0.09,0.294,0.184,0.438,0.28
		c0.206,0.138,0.267,0.04,0.485-0.05c0.754-0.31,1.533-0.56,2.327-0.745c5.036-1.175,10.436,0.344,14.124,3.964
		c2.678,2.629,4.314,6.212,4.534,9.96c0.256,4.351-1.401,8.675-4.504,11.739c2.875,0.322,6.005,0.089,8.56-1.38
		c2.335-1.342,3.782-3.652,4.461-6.213c0.379-1.432,0.292-3.124,0.21-4.595c-0.068-1.228-0.231-2.451-0.486-3.653
		c-0.497-2.336-1.347-4.594-2.513-6.679C40.725,4.801,32.611,0.034,24.002,0.034z"/>
	<path d="M37.071,38.649c-1.542,0-3.091-0.207-4.597-0.533c-0.323-0.07-0.644-0.148-0.962-0.238
		c-0.294-0.083-0.636-0.289-0.914-0.156c-0.726,0.35-1.479,0.641-2.251,0.871c-2.688,0.801-5.591,0.839-8.3,0.113
		c-4.609-1.236-8.456-4.675-10.21-9.111c-2.34-5.918-0.652-12.847,4.13-17.041c-4.619-1.115-9.392,0.829-11.968,4.802
		c-0.744,1.147-1.302,2.407-1.713,3.708c-0.399,1.263-0.284,2.828-0.219,4.14c0.12,2.432,0.612,4.844,1.459,7.127
		c3.372,9.092,12.179,15.386,21.872,15.626c7.94,0.197,15.634-3.683,20.206-10.18C41.469,38.305,39.273,38.643,37.071,38.649
		C36.348,38.649,38.999,38.643,37.071,38.649z"/>
	<path d="M30.535,33.89c0.239,0.118,0.504,0.193,0.758,0.27c0.314,0.094,0.573-0.23,0.813-0.43c0.525-0.437,1.014-0.917,1.462-1.433
		c0.866-0.997,1.576-2.129,2.094-3.345c1.016-2.384,1.271-5.06,0.731-7.594c-0.998-4.68-4.685-8.493-9.327-9.652
		c-2.318-0.579-4.777-0.483-7.044,0.269c2.91,3.316,3.741,7.64,5.011,11.72c0.537,1.724,1.173,3.422,1.918,5.066
		c0.471,1.04,0.986,2.067,1.607,3.027C29.043,32.538,29.678,33.519,30.535,33.89C30.683,33.963,30.04,33.676,30.535,33.89z"/>
	<path d="M16.719,13.642c-3.297,2.323-5.327,6.155-5.388,10.189c-0.061,4.085,1.941,8.026,5.242,10.423
		c0.781-3.256,2.626-6.223,4.146-9.17c0.259-0.503,0.517-1.007,0.772-1.512c0.152-0.301,0.303-0.602,0.453-0.904
		c0.18-0.363,0.304-0.505,0.161-0.891c-0.409-1.1-0.852-2.189-1.358-3.248C19.788,16.525,18.686,14.779,16.719,13.642
		C13.466,15.935,17.432,14.054,16.719,13.642z"/>
</g>
</svg>
