<?xml version="1.0" encoding="utf-8"?>
<!-- Generator: Adobe Illustrator 17.0.0, SVG Export Plug-In . SVG Version: 6.00 Build 0)  -->
<!DOCTYPE svg PUBLIC "-//W3C//DTD SVG 1.1//EN" "http://www.w3.org/Graphics/SVG/1.1/DTD/svg11.dtd">
<svg version="1.1" id="Layer_1" xmlns="http://www.w3.org/2000/svg" xmlns:xlink="http://www.w3.org/1999/xlink" x="0px" y="0px"
	 width="48px" height="48px" viewBox="0 0 48 48" enable-background="new 0 0 48 48" xml:space="preserve">
<path d="M33.947,18.145L33.656,18c0.145,0.339,0.194,0.629,0.194,0.968c0.048-0.242,0.097-0.484,0.097-0.726
	c0,0.339-0.048,0.629-0.097,0.871v-0.145c-0.048,0.145-0.145,0.339-0.194,0.484c-0.048,0.194-0.145,0.339-0.242,0.484l0.097-0.097
	c-1.113,1.887-4.161,2.274-5.661,0.339c-1.21-1.548-1.452-3.145-0.823-4.79c1.306-3.242,2.081-7.065-0.097-10.79
	C25.818,2.71,24.511,1.21,22.915,0c1.742,2.855-0.532,6.629-2.419,8.71c-0.919,1.016-1.887,1.984-2.903,2.855
	c-2.081,1.79-4.113,3.726-6.145,5.855s-3.823,4.403-5.177,7.016s-2.129,5.419-2.226,8.323c-0.097,2.903,0.677,5.952,2.274,8.323
	s3.774,4.258,6.435,5.468c1.306,0.629,2.71,1.113,4.113,1.452c-2.903-1.306-5.565-4.403-5.565-7.645
	c0-3.532,2.226-6.532,4.984-8.516c-0.339,1.306-0.484,2.419,0.339,3.581c0.726,1.016,2.081,1.5,3.387,1.258
	c2.952-0.629,3.097-3.919,1.306-5.806c-1.742-1.887-3.387-4.016-2.758-6.774c0.339-1.355,1.161-2.613,2.274-3.532
	c-0.823,2.129,1.5,4.21,3,5.323c1.355,0.919,2.71,1.742,4.113,2.565c2.758,1.597,5.468,3.726,7.113,6.726s1.258,7.161-1.403,9.823
	c-1.355,1.306-2.903,2.323-4.597,3c3.629-0.823,7.355-2.661,10.113-5.274s4.645-5.952,4.79-9.968
	c0.048-3.339-1.016-6.242-2.855-8.71C39.269,21.581,36.705,19.548,33.947,18.145z"/>
</svg>
