<?xml version="1.0" encoding="utf-8"?>
<!-- Generator: Adobe Illustrator 17.0.0, SVG Export Plug-In . SVG Version: 6.00 Build 0)  -->
<!DOCTYPE svg PUBLIC "-//W3C//DTD SVG 1.1//EN" "http://www.w3.org/Graphics/SVG/1.1/DTD/svg11.dtd">
<svg version="1.1" id="Layer_1" xmlns="http://www.w3.org/2000/svg" xmlns:xlink="http://www.w3.org/1999/xlink" x="0px" y="0px"
	 width="48px" height="48px" viewBox="0 0 48 48" enable-background="new 0 0 48 48" xml:space="preserve">
<g>
	<path d="M13.351,9.847c2.147,2.016,5.887,1.984,10.212-0.13c3.61-1.756,5.334-2.244,7.708-2.212c2.114,0,3.22,0.455,3.22,1.333
		c0,1.366-4.163,1.886-5.496,0.65c-0.683-0.618-0.748-0.65-1.496-0.163c-0.976,0.618-1.008,0.911-0.228,1.561
		c0.781,0.716,1.724,0.943,3.773,0.976c3.48,0.065,6.049-1.171,6.049-2.96c0-2.862-5.854-4.488-11.285-3.09
		c-0.911,0.228-2.212,0.748-2.895,1.138c-0.716,0.39-1.886,1.073-2.667,1.529c-1.821,1.041-4.911,1.333-5.692,0.553
		c-0.716-0.716-0.683-1.041,0.13-1.496c0.455-0.228,1.398-0.293,2.602-0.163c1.561,0.195,1.919,0.13,1.919-0.26
		c0-0.585-1.659-1.171-2.829-0.976c-2.602,0.39-2.992,0.52-3.317,0.911C12.277,7.993,12.375,8.937,13.351,9.847z"/>
	<path d="M3.269,12.547c1.301,1.106,3.74,1.984,7.806,2.797c4.813,0.943,7.383,1.138,14.798,1.106
		c9.237-0.033,15.904-1.073,19.969-3.09c2.504-1.268,2.764-3.057,0.618-4.326c-0.943-0.553-0.976-0.553-0.781,0.065
		c0.293,0.943-0.065,1.626-1.268,2.374c-1.171,0.716-5.106,1.821-7.545,2.114c-0.878,0.098-1.919,0.26-2.374,0.358
		c-1.724,0.423-15.448,0.358-18.701-0.065c-5.431-0.716-9.171-1.919-10.245-3.317C4.927,9.815,4.927,9.685,5.383,8.969
		C5.968,8.091,5.74,8.058,4.407,8.774C2.033,10.01,1.675,11.213,3.269,12.547z"/>
	<path d="M46.914,15.539c-1.756,1.171-4.553,2.081-8.066,2.634c-0.65,0.098-1.496,0.26-1.886,0.325
		c-3.122,0.618-16.001,0.878-20.522,0.358c-6.472-0.716-11.35-2.049-13.139-3.61l-0.748-0.683l0.195,1.366
		c0.098,0.748,0.488,2.472,0.878,3.805l0.715,2.439l-1.659,1.789c-3.578,3.935-3.578,8.976,0,12.066
		c2.114,1.789,5.659,2.179,7.936,0.878c0.553-0.325,0.52-0.358-0.293-0.39c-1.756,0-4.488-1.886-5.789-3.903
		c-0.683-1.041-1.203-3.447-1.041-4.683c0.163-1.073,1.301-3.447,1.659-3.447c0.13,0,0.553,0.716,0.943,1.561
		c0.423,0.878,1.854,3.187,3.252,5.139c2.244,3.155,3.968,6.407,4,7.513c0,0.813,2.537,2.407,4.976,3.187
		c2.147,0.683,3.155,0.813,6.797,0.813c7.871,0,11.546-1.691,12.716-5.854c0.293-0.976,1.171-2.667,1.951-3.74
		c4-5.529,4.781-6.862,6.179-10.733c0.455-1.268,1.041-3.317,1.366-4.553c0.293-1.268,0.585-2.472,0.65-2.667
		C48.085,14.921,47.597,15.083,46.914,15.539z"/>
</g>
</svg>
