<?xml version="1.0" encoding="utf-8"?>
<!-- Generator: Adobe Illustrator 17.0.0, SVG Export Plug-In . SVG Version: 6.00 Build 0)  -->
<!DOCTYPE svg PUBLIC "-//W3C//DTD SVG 1.1//EN" "http://www.w3.org/Graphics/SVG/1.1/DTD/svg11.dtd">
<svg version="1.1" id="Layer_1" xmlns="http://www.w3.org/2000/svg" xmlns:xlink="http://www.w3.org/1999/xlink" x="0px" y="0px"
	 width="48px" height="48px" viewBox="0 0 48 48" enable-background="new 0 0 48 48" xml:space="preserve">
<g>
	<path d="M22.636,34.378c-5.699,0-10.319-4.62-10.319-10.319s4.62-10.319,10.319-10.319c3.864,0,7.229,2.125,8.998,5.268
		L42.351,13.1C38.505,6.138,31.092,1.423,22.577,1.423C10.108,1.423,0,11.531,0,24s10.108,22.577,22.577,22.577
		c8.515,0,15.929-4.715,19.774-11.676l-10.667-5.88C29.93,32.213,26.536,34.378,22.636,34.378z"/>
	<polygon points="24.772,16.514 20.144,16.514 20.144,21.686 14.971,21.686 14.971,26.314 20.144,26.314 20.144,31.486 
		24.772,31.486 24.772,26.314 29.944,26.314 29.944,21.686 24.772,21.686 	"/>
	<polygon points="42.828,16.514 38.2,16.514 38.2,21.686 33.027,21.686 33.027,26.314 38.2,26.314 38.2,31.486 42.828,31.486 
		42.828,26.314 48,26.314 48,21.686 42.828,21.686 	"/>
</g>
</svg>
