<?xml version="1.0" encoding="utf-8"?>
<!-- Generator: Adobe Illustrator 17.0.0, SVG Export Plug-In . SVG Version: 6.00 Build 0)  -->
<!DOCTYPE svg PUBLIC "-//W3C//DTD SVG 1.1//EN" "http://www.w3.org/Graphics/SVG/1.1/DTD/svg11.dtd">
<svg version="1.1" id="Layer_1" xmlns="http://www.w3.org/2000/svg" xmlns:xlink="http://www.w3.org/1999/xlink" x="0px" y="0px"
	 width="48px" height="48px" viewBox="0 0 48 48" enable-background="new 0 0 48 48" xml:space="preserve">
<g>
	<path d="M12.757,18.217c2.178,0,4.074,1.197,5.071,2.969l6.041-3.33c-2.167-3.923-6.345-6.581-11.145-6.581
		C5.697,11.276,0,16.973,0,24s5.697,12.724,12.724,12.724c4.799,0,8.977-2.657,11.145-6.581l-6.012-3.314
		c-0.989,1.8-2.902,3.02-5.1,3.02c-3.212,0-5.816-2.604-5.816-5.816C6.941,20.821,9.545,18.217,12.757,18.217z"/>
	<path d="M48,22.135V17.02h-4.176v-5.229h-5.115v5.229h-3.729v-5.229h-5.115v5.229h-4.175v5.115h4.175v3.73h-4.175v5.115h4.175
		v5.229h5.115V30.98h3.729v5.229h5.115V30.98H48v-5.115h-4.176v-3.73H48z M38.709,25.865h-3.729v-3.73h3.729V25.865z"/>
</g>
</svg>
