<?xml version="1.0" encoding="utf-8"?>
<!-- Generator: Adobe Illustrator 17.0.0, SVG Export Plug-In . SVG Version: 6.00 Build 0)  -->
<!DOCTYPE svg PUBLIC "-//W3C//DTD SVG 1.1//EN" "http://www.w3.org/Graphics/SVG/1.1/DTD/svg11.dtd">
<svg version="1.1" id="Layer_1" xmlns="http://www.w3.org/2000/svg" xmlns:xlink="http://www.w3.org/1999/xlink" x="0px" y="0px"
	 width="48px" height="48px" viewBox="0 0 48 48" enable-background="new 0 0 48 48" xml:space="preserve">
<g>
	<path d="M45.946,23.96c2.116-2.535,3.391-5.794,3.391-9.346C49.337,6.557,42.782,0,34.724,0H17.511
		c4.204,2.567,7.685,6.206,10.057,10.537h7.155c2.248,0,4.078,1.829,4.078,4.078c0,2.249-1.83,4.077-4.078,4.077h-1.365
		l-0.001-0.001h-0.243h-0.139h-2.474c0.332,1.721,0.511,3.493,0.511,5.308c0,1.787-0.175,3.535-0.496,5.229h4.207
		c2.248,0,4.078,1.83,4.078,4.078c0,2.249-1.83,4.078-4.078,4.078h-7.109c-0.533,0.981-1.131,1.921-1.775,2.829
		c-2.19,3.085-4.979,5.715-8.206,7.708h15.483h0.547h0.126h0.933c7.835,0,14.248-6.198,14.597-13.949
		c-0.007,0.127-0.018,0.254-0.027,0.38c0.025-0.346,0.044-0.693,0.044-1.045C49.337,29.755,48.063,26.497,45.946,23.96z"/>
	<path d="M22.79,37.428c0.002-0.003,0.006-0.003,0.008-0.006c0.028-0.04,0.056-0.082,0.084-0.122
		c0.031-0.048,0.062-0.093,0.092-0.14c0.001-0.001,0-0.004,0.001-0.005c2.488-3.781,3.941-8.3,3.941-13.154
		c0-13.233-10.768-24-24.003-24h-4.251v10.537h4.251c7.424,0,13.465,6.039,13.465,13.463c0,2.02-0.45,3.937-1.251,5.658
		c-0.002,0.005-0.005,0.011-0.008,0.016c-2.146,4.595-6.809,7.79-12.206,7.79h-4.251V48h4.251C11.175,48,18.471,43.8,22.79,37.428z"
		/>
</g>
</svg>
