<?xml version="1.0" encoding="utf-8"?>
<!-- Generator: Adobe Illustrator 17.0.0, SVG Export Plug-In . SVG Version: 6.00 Build 0)  -->
<!DOCTYPE svg PUBLIC "-//W3C//DTD SVG 1.1//EN" "http://www.w3.org/Graphics/SVG/1.1/DTD/svg11.dtd">
<svg version="1.1" id="Layer_1" xmlns="http://www.w3.org/2000/svg" xmlns:xlink="http://www.w3.org/1999/xlink" x="0px" y="0px"
	 width="48px" height="48px" viewBox="0 0 48 48" enable-background="new 0 0 48 48" xml:space="preserve">
<g>
	<path d="M22.293,0h7.849v36.329c-4.026,0.764-6.982,1.07-10.193,1.07c-9.582,0-14.576-4.332-14.576-12.639
		c0-8.002,5.301-13.2,13.506-13.2c1.274,0,2.242,0.102,3.415,0.407C22.293,11.968,22.293,0,22.293,0z M22.293,18.287
		c-0.917-0.305-1.682-0.407-2.65-0.407c-3.975,0-6.269,2.446-6.269,6.727c0,4.179,2.192,6.473,6.218,6.473
		c0.866,0,1.58-0.051,2.701-0.204V18.287z"/>
	<path d="M42.628,12.121v18.194c0,6.269-0.459,9.276-1.835,11.875c-1.274,2.498-2.956,4.077-6.422,5.81l-7.288-3.466
		c3.466-1.631,5.147-3.057,6.218-5.25c1.121-2.242,1.479-4.842,1.479-11.671V12.121H42.628z M34.779,0.042h7.848v8.053h-7.848V0.042
		z"/>
</g>
</svg>
