<?xml version="1.0" encoding="utf-8"?>
<!-- Generator: Adobe Illustrator 17.0.0, SVG Export Plug-In . SVG Version: 6.00 Build 0)  -->
<!DOCTYPE svg PUBLIC "-//W3C//DTD SVG 1.1//EN" "http://www.w3.org/Graphics/SVG/1.1/DTD/svg11.dtd">
<svg version="1.1" id="Layer_1" xmlns="http://www.w3.org/2000/svg" xmlns:xlink="http://www.w3.org/1999/xlink" x="0px" y="0px"
	 width="48px" height="48px" viewBox="0 0 48 48" enable-background="new 0 0 48 48" xml:space="preserve">
<g>
	<path d="M47.326,19.467c-1.641-0.947-3.828-1.077-5.69-0.529c-0.229-1.979-1.53-3.716-3.077-4.958l-0.614-0.494l-0.516,0.596
		c-1.036,1.198-1.344,3.189-1.203,4.719c0.104,1.125,0.457,2.266,1.15,3.17c-0.526,0.316-1.124,0.568-1.657,0.748
		c-1.084,0.367-2.262,0.572-3.407,0.572h-2.48v-5.013h-4.904V8.47h-5.885v4.904H9.236v4.904H4.332v5.013H0.138l-0.069,0.741
		c-0.23,2.475,0.109,4.953,1.132,7.214l0.441,0.897l0.05,0.084c3.025,5.137,8.338,7.302,14.128,7.302
		c11.208,0,20.452-5.007,24.698-15.582c2.838,0.148,5.74-0.691,7.128-3.4L48,19.856L47.326,19.467z M10.053,14.192h4.251v4.25
		h-4.251V14.192z M15.21,31.41c0,0.648-0.525,1.172-1.172,1.172c-0.648,0-1.173-0.525-1.173-1.172c0-0.647,0.525-1.173,1.173-1.173
		C14.685,30.237,15.21,30.762,15.21,31.41z M10.053,19.096h4.251v4.25h-4.251V19.096z M5.149,19.096h4.25v4.25h-4.25V19.096z
		 M15.82,38.713c-6.066-0.038-9.342-2.087-12.005-4.748l0,0c0.004,0,0.007,0,0.011,0c0.604,0.032,1.186,0.052,1.746,0.059
		c0.177,0.002,0.353,0.004,0.525,0.004c0.627,0,1.224-0.016,1.791-0.048c0.05-0.003,0.099-0.007,0.149-0.01
		c0.72-0.044,1.392-0.114,2.013-0.211c0.007-0.001,0.013-0.002,0.02-0.003c0.148-0.023,0.293-0.047,0.435-0.073
		c0.023-0.004,0.045-0.009,0.067-0.013c0.126-0.024,0.25-0.048,0.371-0.074c0.047-0.01,0.091-0.021,0.138-0.032
		c0.095-0.021,0.191-0.043,0.284-0.065c0.115-0.028,0.226-0.059,0.336-0.089c0.023-0.006,0.046-0.012,0.069-0.018
		c0.887,2.045,2.481,3.918,5.385,5.296C16.712,38.704,16.267,38.713,15.82,38.713z M19.208,23.346h-4.25v-4.25h4.25V23.346z
		 M19.208,18.442h-4.25v-4.25h4.25V18.442z M24.112,23.346h-4.25v-4.25h4.25V23.346z M24.112,18.442h-4.25v-4.25h4.25V18.442z
		 M24.112,13.538h-4.25v-4.25h4.25V13.538z M29.016,23.346h-4.25v-4.25h4.25V23.346z"/>
	<path d="M14.341,30.627c-0.094-0.037-0.197-0.057-0.304-0.057c-0.464,0-0.84,0.376-0.84,0.84c0,0.464,0.376,0.84,0.84,0.84
		c0.464,0,0.84-0.376,0.84-0.84c0-0.114-0.023-0.223-0.064-0.322c-0.058,0.106-0.171,0.178-0.301,0.178
		c-0.189,0-0.343-0.153-0.343-0.343C14.17,30.797,14.239,30.686,14.341,30.627z"/>
</g>
</svg>
