<?xml version="1.0" encoding="utf-8"?>
<!-- Generator: Adobe Illustrator 17.0.0, SVG Export Plug-In . SVG Version: 6.00 Build 0)  -->
<!DOCTYPE svg PUBLIC "-//W3C//DTD SVG 1.1//EN" "http://www.w3.org/Graphics/SVG/1.1/DTD/svg11.dtd">
<svg version="1.1" id="Layer_1" xmlns="http://www.w3.org/2000/svg" xmlns:xlink="http://www.w3.org/1999/xlink" x="0px" y="0px"
	 width="48px" height="48px" viewBox="0 0 48 48" enable-background="new 0 0 48 48" xml:space="preserve">
<path d="M38.892,39.807c-0.819-0.048-1.976-0.964-3.373-2.747c-2.892-3.47-4.241-2.988-6.265-1.831
	c-1.012,0.578-2.12,1.205-3.325,1.928C23.566,38.554,20.964,40,18.699,40c-1.398,0-2.41-0.096-2.988-0.289
	c-1.157-0.386-2.41-1.108-3.084-2.602c-0.337-0.723-0.53-1.59-0.53-2.602c0.048-3.663,3.422-6.988,7.711-7.036
	c2.699-0.048,4.964,1.301,6.94,2.651c1.928,1.349,3.566,2.651,4.916,2.651c1.157-0.048,2.651-0.819,4.53-2.313
	c1.831-1.494,3.277-2.265,4.386-2.265c2.313,0,2.94,2.361,2.94,3.855c0,1.398-0.434,4.048-1.542,5.639
	C40.867,39.277,40.193,39.855,38.892,39.807z M26.602,39.422c0.53-0.434,1.349-1.157,2.169-1.542
	c0.386-0.145,0.723-0.241,0.964-0.241c0.241,0,0.578,0,0.964,0c0.723,0,1.494,0.048,2.072,0.386c0.578,0.386,0.867,1.253,1.06,1.687
	s0,0.723-0.386,0.916c-0.145,0.096-0.289,0.096-0.337,0.048c-0.048-0.048-0.193-0.241-0.337-0.53
	c-0.337-0.627-0.627-1.205-2.217-1.205s-2.12,0.482-2.892,1.205c-0.434,0.337-0.723,0.53-0.867,0.627
	c-0.386,0.193-0.771-0.337-0.627-0.723C26.217,39.855,26.361,39.663,26.602,39.422z M34.699,43.614
	c-0.096,0.145-0.627,0.434-1.542,0.964c-1.928,1.06-4.386,1.205-7.422,1.012c-1.494-0.048-2.747-0.578-3.759-1.494
	c-0.337-0.337-0.241-0.771,0-0.964c0.193-0.193,0.434-0.337,0.675-0.337s0.241,0.048,0.386,0.096
	c0.916,0.771,2.313,1.349,5.253,1.349s5.012-0.819,5.976-1.542c0.386-0.337,0.578-0.048,0.627,0.145
	c0.048,0.096,0.048,0.193,0.048,0.337C34.94,43.325,34.843,43.47,34.699,43.614z M34.458,8.916c-1.205-0.723-2.41-1.349-3.566-1.831
	c-2.361-0.916-4.096-1.976-5.976-4.048C24,2.024,23.133,1.012,22.313,0c-0.386,3.229-1.301,4.482-2.41,5.446
	c-1.205,0.916-2.217,1.542-3.036,1.976c-1.735,0.867-2.843,1.398-5.253,3.036S6.458,15.084,4.53,19.47
	c-1.012,2.217-1.494,4.819-1.494,7.807c0,5.976,2.506,11.133,6.41,14.795C13.301,45.783,18.602,48,24.193,48
	c5.542,0,10.747-2.072,14.554-5.59c3.807-3.518,6.217-8.627,6.217-14.747c0-6.169-2.217-10.554-4.675-13.639
	c-1.253-1.494-2.458-2.699-3.566-3.518C35.566,9.687,34.795,9.157,34.458,8.916z"/>
</svg>
