<?xml version="1.0" encoding="utf-8"?>
<!-- Generator: Adobe Illustrator 17.0.0, SVG Export Plug-In . SVG Version: 6.00 Build 0)  -->
<!DOCTYPE svg PUBLIC "-//W3C//DTD SVG 1.1//EN" "http://www.w3.org/Graphics/SVG/1.1/DTD/svg11.dtd">
<svg version="1.1" id="Layer_1" xmlns="http://www.w3.org/2000/svg" xmlns:xlink="http://www.w3.org/1999/xlink" x="0px" y="0px"
	 width="48px" height="48px" viewBox="0 0 48 48" enable-background="new 0 0 48 48" xml:space="preserve">
<g>
	<path d="M39.051,29.518c-2.54,4.129-6.254,7.929-11.39,7.955c-7.475-0.025-10.412-6.417-10.395-14.644h27.932
		c0.013-0.334,0.02-0.59,0.024-0.819h-0.02C44.737,10.608,35.338,1.5,23.778,1.5S2.818,10.608,2.354,22.009H2.31
		c0,0.193,0.01,0.384,0.015,0.577c-0.001,0.1-0.015,0.198-0.015,0.298c0,11.81,8.496,21.991,21.468,21.991
		s17.889-5.238,21.829-12.079L39.051,29.518z M24.407,9.54c3.467,0.008,5.972,2.513,6.056,6.237H17.718
		C18.027,12.053,20.964,9.548,24.407,9.54z"/>
</g>
</svg>
