<?xml version="1.0" encoding="utf-8"?>
<!-- Generator: Adobe Illustrator 17.0.0, SVG Export Plug-In . SVG Version: 6.00 Build 0)  -->
<!DOCTYPE svg PUBLIC "-//W3C//DTD SVG 1.1//EN" "http://www.w3.org/Graphics/SVG/1.1/DTD/svg11.dtd">
<svg version="1.1" id="Layer_1" xmlns="http://www.w3.org/2000/svg" xmlns:xlink="http://www.w3.org/1999/xlink" x="0px" y="0px"
	 width="48px" height="48px" viewBox="0 0 48 48" enable-background="new 0 0 48 48" xml:space="preserve">
<g>
	<path d="M6.783,33.025c0.684,2.652,1.743,4.961,3.173,6.927c1.43,1.966,3.276,3.517,5.541,4.648
		c2.264,1.132,5.034,1.698,8.312,1.698c4.826,0,8.833-1.265,12.021-3.798c3.187-2.532,5.168-6.33,5.944-11.395h1.788
		c-0.656,5.363-2.771,9.519-6.346,12.468c-3.575,2.949-7.985,4.424-13.228,4.424c-3.575,0.059-6.629-0.507-9.161-1.698
		c-2.533-1.191-4.603-2.874-6.212-5.05c-1.609-2.174-2.801-4.737-3.575-7.686c-0.775-2.95-1.162-6.123-1.162-9.519
		c0-3.813,0.565-7.209,1.698-10.189c1.131-2.979,2.621-5.497,4.469-7.552c1.846-2.056,3.991-3.62,6.435-4.692
		C18.922,0.536,21.425,0,23.988,0c3.575,0,6.659,0.686,9.251,2.056c2.592,1.371,4.706,3.188,6.346,5.452
		c1.638,2.265,2.83,4.857,3.575,7.776c0.744,2.92,1.057,5.959,0.939,9.117H5.665C5.724,27.499,6.097,30.374,6.783,33.025z
		 M41.148,14.613c-0.775-2.532-1.922-4.751-3.441-6.659c-1.52-1.906-3.412-3.41-5.676-4.514c-2.265-1.102-4.886-1.653-7.865-1.653
		c-2.503,0-4.842,0.478-7.016,1.43c-2.176,0.954-4.082,2.339-5.72,4.156c-1.64,1.818-2.965,4.008-3.977,6.569
		c-1.014,2.563-1.609,5.452-1.788,8.67H42.31C42.31,19.813,41.922,17.147,41.148,14.613z"/>
</g>
</svg>
