<?xml version="1.0" encoding="utf-8"?>
<!-- Generator: Adobe Illustrator 17.0.0, SVG Export Plug-In . SVG Version: 6.00 Build 0)  -->
<!DOCTYPE svg PUBLIC "-//W3C//DTD SVG 1.1//EN" "http://www.w3.org/Graphics/SVG/1.1/DTD/svg11.dtd">
<svg version="1.1" id="Layer_1" xmlns="http://www.w3.org/2000/svg" xmlns:xlink="http://www.w3.org/1999/xlink" x="0px" y="0px"
	 width="48px" height="48px" viewBox="0 0 48 48" enable-background="new 0 0 48 48" xml:space="preserve">
<path d="M43.926,24.048l0.574,0.191l0.048-0.096c-0.335-0.382-0.622-0.861-1.147-0.908c-0.239-0.048-0.43-0.048-0.622-0.048
	c-0.239,0-0.43,0-0.622,0c0-0.191-0.048-0.239-0.287-0.191c-0.143,0.048-0.335,0.143-0.526,0.191
	c-0.239,0.096-0.43,0.191-0.669,0.239c-0.239,0.096-0.43,0.191-0.669,0.287c-0.048,0-0.048,0-0.096,0s-0.143,0-0.191,0
	c0-0.048,0-0.096,0-0.143s0-0.048,0.048-0.096c0.048-0.143,0.096-0.335,0.143-0.478c0.048-0.143,0.048-0.287,0.096-0.43
	c0.048-0.048,0.048-0.143,0.048-0.191c0-0.048,0-0.048,0.048-0.096l0.382,0.335c0.143-1.1-0.096-1.96-0.669-2.869l0.574,0.048
	c-0.239-0.574-0.622-1.004-1.147-1.339c-0.622-0.382-1.339-0.382-2.104-0.43c-0.048,0-0.096,0-0.143,0c-0.048,0-0.143,0-0.191,0
	c0.526,0.908,0.765,2.438,0.43,2.964l-0.191-0.335c-0.382,0.717-0.813,1.339-1.243,2.056c-0.43,0.622-1.052,1.195-1.817,1.53
	l0.096-0.43c-0.048,0-0.096,0-0.143,0c-0.048,0.048-0.048,0.048-0.096,0.048c-0.191,0.048-0.43,0.096-0.622,0.096
	c-0.335-0.048-0.669-0.143-1.004-0.287c-0.143-0.048-0.239-0.048-0.335-0.096c-0.143-0.048-0.239-0.048-0.382-0.096l-0.048-0.048
	c-0.143-0.096-0.191-0.191-0.191-0.335c0-0.096,0.048-0.191,0.096-0.335c0.048-0.096,0.096-0.191,0.143-0.287
	c0.048-0.096,0.048-0.191,0.096-0.287c0.191-0.382,0.335-0.813,0.478-1.243c0.096-0.096,0.191-0.191,0.287-0.287
	c0.048-0.048,0.143-0.143,0.191-0.239c0.048-0.143,0.143-0.239,0.191-0.382c0.048-0.096,0.143-0.191,0.191-0.335
	c0.048-0.191,0.191-0.335,0.382-0.382c0.048-0.048,0.191-0.191,0.239-0.239c0.048-0.096,0.096-0.191,0.143-0.335
	c0.048-0.096,0.048-0.191,0.096-0.287c0.048-0.143,0-0.287-0.191-0.335l-0.191-0.048c0-0.048,0-0.096,0-0.143
	c0-0.048,0-0.048,0.048-0.096c0.239-0.526,0.526-1.052,0.765-1.578c0.478-1.1,1.004-2.104,1.578-3.203
	c0.287-0.526,0.574-1.1,0.861-1.625c0.048-0.191,0.239-0.43,0.43-0.622c0.143,0,0.239,0,0.382,0
	c0.143,0.048,0.239,0.048,0.382,0.048c1.1,0,2.104-0.287,3.012-1.052c0.813-0.908,1.482-1.912,1.865-3.06l0.096-0.191l-0.191,0.096
	c-1.1,0.765-2.343,1.195-3.681,0.956c0,0,0,0,0-0.048s0-0.048,0.048-0.048c0.239-0.335,0.478-0.669,0.717-1.004
	c0.239-0.335,0.478-0.622,0.717-0.956c0.096-0.143,0.191-0.239,0.287-0.382c0.096-0.096,0.191-0.191,0.287-0.335
	c-0.048,0-0.096,0-0.143-0.048c-0.048-0.048-0.096-0.048-0.143-0.048c-0.239-0.048-0.43-0.143-0.669-0.239
	c-0.239-0.048-0.478-0.143-0.717-0.191c-0.191-0.048-0.287-0.143-0.143-0.335c0.096-0.191,0.191-0.382,0.287-0.622
	s0.191-0.43,0.287-0.622l0.191-0.382c-0.574-0.143-1.147-0.191-1.673-0.191c-0.526,0-1.1,0.048-1.673,0.096V1.578
	c-0.765,0.048-0.956,0.048-1.339,0.191c-0.43,0.048-0.861,0.191-1.243,0.335l-0.096-0.048l1.004-1.625
	c-0.526,0-1.004,0.096-1.434,0.143c-0.43,0.096-0.908,0.191-1.434,0.239c-0.526,0.096-1.004,0.191-1.434,0.287
	c-0.191,0.048-0.382,0.096-0.622,0.143c-0.239,0.048-0.478,0.143-0.669,0.191V0.717c-0.191,0.048-0.43,0.143-0.765,0.287
	s-0.622,0.239-0.956,0.335c0.048-0.191,0.143-0.382,0.239-0.574c0.048-0.143,0.143-0.335,0.191-0.478c0-0.048,0-0.096,0.048-0.143
	c0-0.048,0-0.048,0-0.096c-0.048,0-0.048,0-0.048-0.048c-0.048,0-0.048,0-0.048,0c-0.143,0.048-0.287,0.048-0.43,0.048
	c-0.143,0.048-0.287,0.048-0.43,0.096c-1.386,0.239-2.773,0.765-4.064,1.482c-0.096,0.048-0.191,0.048-0.239,0.096
	c-0.096,0.048-0.191,0.096-0.287,0.143l-0.096-1.53c-0.765,0.239-1.53,0.622-2.056,1.339l-0.335-1.195V0.382V0.335v0.048
	c-0.048,0.048-0.048,0.048-0.096,0.096c-0.048,0.048-0.096,0.096-0.143,0.143c-0.574,0.813-0.956,1.769-0.956,2.869l-0.526-1.1
	l-0.669,3.299l-1.195-1.482c-0.382,1.1-0.622,2.199-0.765,3.347l-0.861-0.956c-0.526,1.721-1.004,3.347-1.147,5.116
	c-0.43-0.239-0.669-0.622-0.861-1.004c-0.239-0.574-0.287-1.195-0.287-1.817c0-0.048,0-0.096,0-0.143c0-0.048,0-0.096,0-0.143
	h-0.096c-0.813,2.869-1.052,5.785-0.908,8.701l-1.004-1.912h-0.096c-0.048,0.382-0.048,0.765-0.096,1.1
	c-0.048,0.382-0.048,0.765-0.096,1.147c0,0.43,0.048,0.335-0.382,0.478c-1.386,0.382-2.725,0.813-3.873,1.721
	c-0.048,0.048-0.048,0.048-0.096,0.048c-0.048,0.048-0.096,0.048-0.143,0.096l0.096,0.048l1.195,0.478
	c-0.239,0.287-0.526,0.574-0.765,0.813c-0.526,0.574-1.004,1.1-1.386,1.721c-0.191,0.335-0.335,0.669-0.478,1.052
	c0.239-0.143,0.478-0.239,0.717-0.287c0.096-0.048,0.191-0.048,0.335-0.096c0.096-0.048,0.191-0.048,0.287-0.096
	C5.392,24,5.009,24.478,4.77,25.004c-0.908,1.769-1.291,3.777-1.339,5.737c-0.048,1.339-0.048,2.582,0.143,3.873
	c0.048,0.143,0.048,0.239,0.096,0.335c0,0.143,0,0.239,0.048,0.335h0.096l0.574-1.339c0.239,1.482,0.335,2.869,0.287,4.351
	l0.096,0.048l0.526-0.622c0.048,0.143,0.096,0.239,0.096,0.287c0.335,0.956,0.335,2.008,0.287,3.012
	c-0.048,0.526-0.048,1.004,0.096,1.53c0.335,1.291,0.956,2.343,1.769,3.299c0.096,0.096,0.191,0.191,0.335,0.239
	c0.096,0.048,0.191,0.143,0.287,0.239c0.143,0.048,0.143,0.048,0.143-0.096l0.43,0.143l0.622,0.191l0.048-0.048l-0.43-0.861
	L8.93,45.61h0.048v0.048c0.048,0,0.048,0,0.096,0l0,0c0.191,0.239,0.43,0.382,0.669,0.478c0.239,0.143,0.526,0.239,0.765,0.382
	c0.143,0.335,0.382,0.622,0.622,0.813l0.478-0.287c0.048,0.048,0.143,0.143,0.143,0.191C12.133,47.761,12.611,48,13.328,48
	c0.191-0.048,0.382-0.048,0.622-0.048c0.191,0,0.382,0,0.622,0c0.717-0.048,1.386-0.048,2.104-0.048c0.717,0,1.434,0,2.151-0.048
	c0.956-0.048,1.96-0.096,2.916-0.096c0.526-0.048,0.908-0.096,1.434-0.096c-0.717-1.96-2.247-2.964-3.968-3.729l1.434-0.382
	c1.1,0.574,2.199,1.1,3.299,1.578c1.1,0.526,2.104,1.147,3.06,1.912l0.096-0.048l-0.143-1.721c0.048,0.048,0.191,0.191,0.335,0.239
	c0.239,0.191,0.478,0.382,0.717,0.526c0.239,0.191,0.43,0.382,0.669,0.526l0.096,0.048l0.048,0.048
	c0.717,0.622,1.434,1.052,2.438,1.052c0.669-0.048,1.339-0.048,2.056-0.048c0.669,0.048,1.339,0.048,2.008,0.048
	c0.143,0,0.239-0.048,0.287-0.191c0.143-0.239,0.335-0.478,0.478-0.717c0.143-0.239,0.287-0.526,0.43-0.765
	c0.622-1.291,1.291-2.582,2.008-3.873l0.191-0.335c-0.143,0.048-0.287,0.096-0.43,0.143c-0.143,0.048-0.239,0.143-0.382,0.191
	c-0.143,0.048-0.287,0.143-0.43,0.191c-0.143,0.096-0.287,0.191-0.43,0.239l-0.048,0.048l0.048-0.048
	c0-0.048,0.048-0.143,0.096-0.287c0.287-0.478,0.574-0.956,0.908-1.482c0.574-1.004,1.195-2.008,1.912-2.964
	c0.335-0.478,0.622-1.004,0.813-1.578c0.096-0.239,0.191-0.526,0.239-0.765s0.143-0.526,0.239-0.813h-0.048
	c-0.143,0.143-0.287,0.239-0.43,0.335c-0.287,0.191-0.622,0.382-1.004,0.574c-0.191,0.096-0.382,0.191-0.574,0.239v0.048h-0.048
	l0.048-0.048l0.048-0.191l0.287-1.147c-0.048,0-0.096,0-0.096,0c-0.048,0.048-0.048,0.048-0.096,0.048
	c-0.813,0.43-1.673,0.861-2.486,1.243c-1.147,0.526-2.199,1.147-3.203,1.96c-0.143,0.143-0.335,0.239-0.478,0.382
	s-0.335,0.287-0.478,0.43l-0.096-0.048c-0.335-0.335-0.622-0.622-0.956-0.861c-0.096-0.096-0.191-0.191-0.287-0.287
	c-0.143-0.096-0.239-0.191-0.335-0.287c0.717-0.908,1.291-1.865,1.625-2.964c0.143-0.335,0.239-0.717,0.287-1.1
	c0.048-0.335,0.143-0.717,0.239-1.052l0.191-0.096c0.574-0.191,1.147-0.335,1.721-0.287c0.239,0,0.526,0.096,0.765,0.143
	l-0.191-0.43v-0.048v0.048c0.048,0,0.048,0,0.096,0c0,0,0,0,0.048,0c0.239,0.096,0.43,0.191,0.669,0.287
	c0.382,0.239,1.004,0.478,1.769,0.622c0.382,0.048,0.765,0.096,1.195,0.096c0.048-0.048,0.048-0.048,0.096-0.048
	s0.048-0.048,0-0.096c0.048,0,0.048,0,0.096,0c0.048,0,0.048,0,0.096,0.048c0.622,0.191,1.243,0.287,1.817,0.239
	c0.574-0.048,1.052-0.335,1.291-0.908l0.191,0.096c0.096-0.239,0.143-0.43,0.096-0.669c-0.048-0.191-0.096-0.382-0.143-0.574
	c0-0.048,0-0.096,0-0.143c0-0.048,0-0.048,0-0.096c0.096-0.096,0.191-0.191,0.287-0.239c0.048-0.048,0.143-0.143,0.239-0.239
	l0.096,0.239c0.239-0.382,0.287-0.813,0.287-1.339l0.239,0.287l0.096-0.048c-0.048-0.382-0.096-0.717-0.239-1.1
	c-0.096-0.239-0.143-0.43-0.143-0.622c0-0.191,0.048-0.382,0.191-0.574c0.096-0.143,0.191-0.287,0.239-0.43
	c0.048-0.143,0.096-0.335,0.191-0.526c0,0.048,0,0.048,0.048,0.096c0,0.048,0,0.048,0,0.048c0,0.048,0,0.048,0.048,0.048
	c0,0,0,0,0.048,0.048C44.595,25.1,44.308,24.622,43.926,24.048z"/>
</svg>
