<?xml version="1.0" encoding="utf-8"?>
<!-- Generator: Adobe Illustrator 17.0.0, SVG Export Plug-In . SVG Version: 6.00 Build 0)  -->
<!DOCTYPE svg PUBLIC "-//W3C//DTD SVG 1.1//EN" "http://www.w3.org/Graphics/SVG/1.1/DTD/svg11.dtd">
<svg version="1.1" id="Layer_1" xmlns="http://www.w3.org/2000/svg" xmlns:xlink="http://www.w3.org/1999/xlink" x="0px" y="0px"
	 width="48px" height="48px" viewBox="0 0 48 48" enable-background="new 0 0 48 48" xml:space="preserve">
<g>
	<path d="M47.094,21.862L26.137,0.906c-1.206-1.207-3.164-1.207-4.372,0l-4.351,4.352l5.52,5.52c1.283-0.433,2.754-0.143,3.776,0.88
		c1.028,1.029,1.317,2.513,0.872,3.8l5.321,5.32c1.288-0.444,2.772-0.157,3.8,0.873c1.437,1.436,1.437,3.764,0,5.202
		c-1.438,1.437-3.765,1.437-5.203,0c-1.08-1.081-1.348-2.669-0.8-4l-4.963-4.962v13.058c0.35,0.173,0.68,0.405,0.972,0.696
		c1.437,1.436,1.437,3.764,0,5.203c-1.437,1.436-3.766,1.436-5.201,0c-1.437-1.439-1.437-3.766,0-5.203
		c0.355-0.355,0.766-0.623,1.205-0.803V17.663c-0.439-0.18-0.849-0.446-1.205-0.803c-1.088-1.088-1.35-2.685-0.792-4.021
		l-5.442-5.443L0.905,21.765c-1.207,1.208-1.207,3.166,0,4.373l20.958,20.956c1.206,1.207,3.163,1.207,4.372,0l20.859-20.859
		C48.302,25.028,48.302,23.069,47.094,21.862z"/>
</g>
</svg>
