<?xml version="1.0" encoding="utf-8"?>
<!-- Generator: Adobe Illustrator 17.0.0, SVG Export Plug-In . SVG Version: 6.00 Build 0)  -->
<!DOCTYPE svg PUBLIC "-//W3C//DTD SVG 1.1//EN" "http://www.w3.org/Graphics/SVG/1.1/DTD/svg11.dtd">
<svg version="1.1" id="Layer_1" xmlns="http://www.w3.org/2000/svg" xmlns:xlink="http://www.w3.org/1999/xlink" x="0px" y="0px"
	 width="48px" height="48px" viewBox="0 0 48 48" enable-background="new 0 0 48 48" xml:space="preserve">
<g>
	<path d="M30.885,11.575c-1.172,0-2.121,0.95-2.121,2.121s0.95,2.121,2.121,2.121c1.172,0,2.121-0.95,2.121-2.121
		S32.057,11.575,30.885,11.575z M30.327,13.454c-0.37,0-0.67-0.3-0.67-0.67c0-0.37,0.3-0.67,0.67-0.67c0.37,0,0.67,0.3,0.67,0.67
		C30.997,13.155,30.697,13.454,30.327,13.454z"/>
	<path d="M23.721,18.334c-0.633,0.019-1.414,0.298-1.638,1.154c-0.502,1.824,4.038,1.545,3.927,0.372
		C25.954,19.171,25.34,18.297,23.721,18.334z"/>
	<path d="M17.096,11.575c-1.172,0-2.121,0.95-2.121,2.121s0.95,2.121,2.121,2.121s2.121-0.95,2.121-2.121
		S18.268,11.575,17.096,11.575z M17.654,13.454c-0.37,0-0.67-0.3-0.67-0.67c0-0.37,0.3-0.67,0.67-0.67c0.37,0,0.67,0.3,0.67,0.67
		C18.324,13.155,18.024,13.454,17.654,13.454z"/>
	<path d="M42.386,6.309c-1.247-2.55-4.261-0.298-5.024-1.098C33.453,1.191,28.727,0.186,25.024,0c0,0-1.675,0-2.047,0
		c-3.722,0.093-8.449,1.172-12.338,5.211c-0.763,0.8-3.796-1.452-5.025,1.098c-1.433,2.977,2.922,3.275,2.698,4.596
		c-0.428,2.382-0.149,5.918,0.186,9.398c0.145,1.64-0.091,3.916-0.311,6.468c1.024,0.069,1.815,1.212,1.815,2.671
		c0,1.504-0.839,2.684-1.911,2.684c-0.069,0-0.134-0.018-0.202-0.028c-0.04,4.713,0.734,9.542,4.295,12.713
		c0.32-0.177,0.661-0.278,1.026-0.278h0c0.792,0,1.453,0.41,2.154,0.845c0.29,0.18,0.589,0.366,0.907,0.526
		c0.462,0.236,0.727,0.674,0.744,1.151c2.114,0.417,4.779,0.657,7.225,0.714h0.019h0.019c2.383-0.055,4.773-0.288,6.7-0.685
		c-0.07-0.558,0.2-1.094,0.735-1.368c0.313-0.158,0.612-0.344,0.902-0.524c0.7-0.434,1.362-0.845,2.154-0.845
		c0.41,0,0.792,0.115,1.144,0.336c3.463-3.184,4.218-7.968,4.177-12.635c-0.143,0.046-0.29,0.077-0.444,0.077
		c-1.071,0-1.911-1.179-1.911-2.684c0-1.505,0.839-2.685,1.911-2.685c0.053,0,0.102,0.016,0.154,0.021
		c-0.217-2.556-0.45-4.835-0.3-6.476c0.316-3.48,0.596-7.016,0.186-9.398C39.464,9.584,43.819,9.267,42.386,6.309z M8.499,8.3
		C8.424,8.746,6.824,7.648,7.475,6.848c0.521-0.67,1.489-0.484,1.6-0.093C9.187,7.146,8.685,7.09,8.499,8.3z M11.885,13.473
		c0.484-3.796,3.703-5.583,5.62-5.359c6.215,0.726,5.378,7.202,2.977,9.305C16.017,21.326,11.364,17.418,11.885,13.473z
		 M25.172,24.889c-0.372,0.242-1.954,0.056-2.531,0c-0.856-0.093-0.577-1.917-0.409-1.991c0.186-0.093,2.494-0.316,3.182,0.13
		C25.824,23.308,25.898,24.424,25.172,24.889z M27.796,20.675c-0.223,1.842-7.239,2.084-7.611-0.112
		c-0.223-1.34,0.837-2.196,3.815-2.643C25.172,17.753,27.982,19.093,27.796,20.675z M27.48,17.418
		c-2.401-2.103-3.238-8.579,2.977-9.305c1.935-0.223,5.155,1.563,5.62,5.359C36.598,17.418,31.946,21.326,27.48,17.418z M39.483,8.3
		c-0.186-1.21-0.689-1.154-0.577-1.545c0.093-0.391,1.061-0.577,1.6,0.093C41.158,7.648,39.557,8.746,39.483,8.3z"/>
	<path d="M35.684,45.91c-0.024-0.026-0.048-0.05-0.072-0.074c-0.072-0.071-0.143-0.133-0.215-0.183
		c-0.017-0.012-0.034-0.027-0.05-0.038c-0.086-0.055-0.173-0.095-0.26-0.123c-0.021-0.007-0.043-0.01-0.064-0.016
		c-0.07-0.018-0.14-0.028-0.211-0.031c-0.014-0.001-0.027-0.006-0.041-0.006c-0.01,0-0.02,0.003-0.031,0.004
		c-0.074,0.002-0.149,0.01-0.224,0.026c-0.009,0.002-0.017,0.002-0.026,0.004c-0.085,0.019-0.171,0.048-0.259,0.081
		c-0.027,0.01-0.054,0.023-0.081,0.034c-0.063,0.027-0.127,0.056-0.192,0.088c-0.031,0.015-0.061,0.031-0.092,0.047
		c-0.07,0.037-0.141,0.077-0.213,0.118c-0.022,0.013-0.044,0.025-0.067,0.038c-0.096,0.057-0.193,0.116-0.293,0.178
		c-0.091,0.056-0.183,0.114-0.278,0.172c-0.036,0.022-0.072,0.044-0.109,0.067c-0.078,0.048-0.158,0.095-0.239,0.142
		c-0.036,0.021-0.071,0.042-0.107,0.062c-0.114,0.065-0.23,0.129-0.351,0.19c-0.063,0.032-0.1,0.073-0.127,0.117
		c-0.004,0.007-0.012,0.012-0.016,0.019c-0.002,0.005,0.001,0.01-0.001,0.015c-0.016,0.043-0.021,0.088-0.009,0.137
		c0.001,0.004,0,0.007,0.001,0.011c0.015,0.053,0.05,0.108,0.095,0.164c0.011,0.014,0.024,0.028,0.037,0.042
		c0.046,0.05,0.101,0.099,0.168,0.148c0.01,0.007,0.017,0.014,0.027,0.021c0.078,0.054,0.17,0.105,0.271,0.153
		c0.024,0.012,0.051,0.023,0.076,0.034c0.092,0.04,0.192,0.077,0.298,0.11c0.021,0.006,0.04,0.014,0.061,0.02
		c0.126,0.036,0.262,0.064,0.404,0.086c0.034,0.005,0.069,0.009,0.104,0.013c0.124,0.016,0.253,0.025,0.387,0.027
		c0.024,0,0.044,0.005,0.068,0.005c0.011,0,0.024-0.002,0.035-0.002c0.071-0.001,0.146-0.007,0.219-0.011
		c0.057-0.004,0.113-0.005,0.172-0.012c0.079-0.009,0.16-0.024,0.24-0.038c0.056-0.01,0.112-0.016,0.169-0.029
		c0.091-0.02,0.184-0.048,0.276-0.075c0.049-0.014,0.097-0.025,0.147-0.041c0.143-0.048,0.287-0.104,0.433-0.171
		c0.596-0.279,0.577-0.651,0.205-1.191C35.859,46.113,35.771,46.006,35.684,45.91z"/>
	<path d="M15.901,46.994c-0.026-0.044-0.064-0.085-0.127-0.117c-0.121-0.061-0.237-0.125-0.351-0.19
		c-0.037-0.021-0.073-0.042-0.109-0.063c-0.08-0.047-0.158-0.093-0.235-0.14c-0.039-0.024-0.078-0.047-0.117-0.071
		c-0.087-0.054-0.173-0.107-0.257-0.159c-0.105-0.065-0.208-0.128-0.308-0.188c-0.025-0.015-0.049-0.028-0.073-0.042
		c-0.07-0.041-0.139-0.079-0.207-0.115c-0.032-0.017-0.063-0.033-0.095-0.048c-0.064-0.032-0.128-0.061-0.19-0.087
		c-0.027-0.012-0.055-0.024-0.082-0.035c-0.087-0.033-0.174-0.062-0.258-0.081c-0.009-0.002-0.017-0.002-0.026-0.004
		c-0.076-0.016-0.15-0.024-0.224-0.026c-0.004,0-0.007-0.001-0.011-0.001c-0.007,0-0.013-0.002-0.02-0.002
		c-0.014,0-0.027,0.005-0.041,0.006c-0.071,0.003-0.142,0.013-0.212,0.031c-0.021,0.005-0.042,0.009-0.063,0.015
		c-0.087,0.028-0.174,0.068-0.26,0.123c-0.017,0.011-0.034,0.026-0.051,0.038c-0.071,0.05-0.143,0.111-0.214,0.183
		c-0.024,0.024-0.048,0.048-0.072,0.074c-0.087,0.096-0.175,0.203-0.264,0.334c-0.372,0.54-0.391,0.912,0.205,1.191
		c0.146,0.067,0.29,0.123,0.433,0.171c0.05,0.016,0.097,0.027,0.147,0.041c0.093,0.027,0.186,0.055,0.276,0.075
		c0.057,0.013,0.112,0.019,0.169,0.029c0.081,0.014,0.162,0.029,0.24,0.038c0.058,0.007,0.115,0.008,0.172,0.012
		c0.074,0.005,0.148,0.011,0.219,0.011c0.011,0,0.024,0.002,0.035,0.002c0.024,0,0.045-0.004,0.069-0.005
		c0.133-0.003,0.261-0.012,0.385-0.027c0.035-0.004,0.072-0.008,0.106-0.013c0.142-0.022,0.278-0.05,0.403-0.086
		c0.022-0.006,0.041-0.014,0.063-0.021c0.106-0.033,0.206-0.07,0.297-0.11c0.026-0.011,0.052-0.022,0.077-0.034
		c0.101-0.048,0.193-0.099,0.271-0.153c0.01-0.007,0.017-0.014,0.026-0.021c0.067-0.049,0.123-0.099,0.169-0.149
		c0.013-0.014,0.026-0.028,0.037-0.042c0.045-0.056,0.08-0.111,0.095-0.164c0.001-0.004,0-0.007,0.001-0.011
		c0.012-0.049,0.007-0.094-0.009-0.137C15.914,47.016,15.908,47.005,15.901,46.994z"/>
	<path d="M8.911,29.442c0-0.912-0.432-1.593-0.819-1.593c-0.386,0-0.819,0.681-0.819,1.593c0,0.912,0.432,1.592,0.819,1.592
		C8.479,31.034,8.911,30.354,8.911,29.442z"/>
	<path d="M39.647,27.849c-0.387,0-0.819,0.681-0.819,1.593c0,0.912,0.432,1.592,0.819,1.592s0.819-0.68,0.819-1.592
		C40.465,28.531,40.034,27.849,39.647,27.849z"/>
</g>
</svg>
