<?xml version="1.0" encoding="utf-8"?>
<!-- Generator: Adobe Illustrator 17.0.0, SVG Export Plug-In . SVG Version: 6.00 Build 0)  -->
<!DOCTYPE svg PUBLIC "-//W3C//DTD SVG 1.1//EN" "http://www.w3.org/Graphics/SVG/1.1/DTD/svg11.dtd">
<svg version="1.1" id="Layer_1" xmlns="http://www.w3.org/2000/svg" xmlns:xlink="http://www.w3.org/1999/xlink" x="0px" y="0px"
	 width="48px" height="48px" viewBox="0 0 48 48" enable-background="new 0 0 48 48" xml:space="preserve">
<path d="M35.937,7.952c-0.145,0.436-0.194,0.727-0.727,0.921c-0.776,0.242-1.067-0.291-1.406-0.679
	c-0.145-0.194-0.097-0.63,0.048-0.97c0.388-0.921,0.97-1.648,1.988-1.891c0.097,0,0.194,0,0.291-0.048c0.097,0,0.194,0,0.242,0
	c-0.097,0.485-0.194,0.921-0.242,1.358S35.986,7.515,35.937,7.952z M38.943,32.921l0.145-0.436c0.63,1.939,0.679,3.83-0.436,5.576
	c-1.212,1.794-3.103,2.473-5.236,2.618l0.194-1.6l-1.309-2.424C35.016,36.315,37.586,35.685,38.943,32.921z M29.44,20.945
	l0.436-0.485c1.018-1.212,2.279-2.036,3.83-2.958v1.794C33.707,21.285,30.846,22.061,29.44,20.945z M30.604,40.63l-0.194,0.291
	h0.048H30.41c-0.194,0.242-0.388,0.485-0.582,0.679c-0.97,0.97-2.085,0.921-2.861-0.194c-0.145-0.145-0.291-0.339-0.388-0.533
	c-0.145-0.194-0.242-0.388-0.388-0.533c-0.242-0.824-0.048-1.115,0.776-1.115c0.436-0.048,0.921-0.048,1.358-0.048
	c0.436,0.048,0.873,0.048,1.309,0.048C30.846,39.224,30.992,39.515,30.604,40.63z M21.828,40.339
	c-0.242,0.388-0.533,0.824-0.873,1.212c-0.727,0.921-1.745,0.97-2.57,0.194c-0.145-0.145-0.291-0.291-0.436-0.436
	s-0.242-0.242-0.388-0.388l-0.145-0.145c-0.339-1.503-0.242-1.552,1.358-1.552c0.388,0,0.776,0,1.164-0.048
	c0.727,0,1.697-0.048,1.939,0.291C21.974,39.612,21.974,39.903,21.828,40.339z M14.313,19.297v-1.794
	c0.582,0.436,1.261,0.873,1.988,1.309c0.727,0.485,1.309,1.018,1.842,1.6c0.048,0.048,0.097,0.097,0.145,0.145
	s0.097,0.145,0.145,0.194c0,0.048,0,0.048,0.048,0.097s0.048,0.097,0.048,0.145C17.174,22.012,14.313,21.382,14.313,19.297z
	 M14.653,40.727c-0.339-0.048-0.63-0.145-0.97-0.194c-0.339-0.048-0.63-0.097-0.97-0.145c-2.667-0.776-4.17-2.667-4.218-5.43
	c0-0.388,0.048-0.776,0.145-1.164c0.048-0.388,0.097-0.776,0.145-1.212c0,0,0,0,0.048,0s0.048,0,0.097,0c0,0,0,0,0.048,0.048
	c0,0.048,0,0.048,0,0.097c1.358,2.861,3.879,3.588,6.739,3.927l-1.309,2.424L14.653,40.727z M11.646,5.285
	c1.212,0,2.764,1.358,2.715,2.521c-0.048,0.388-0.63,0.97-1.018,1.115c-0.388,0.145-1.067-0.097-1.212-0.727
	c-0.048-0.145-0.048-0.339-0.048-0.485c-0.048-0.145-0.048-0.339-0.097-0.485c-0.048-0.339-0.097-0.63-0.145-0.97
	C11.792,5.964,11.695,5.624,11.646,5.285z M37.731,25.261c1.018-0.582,2.085-1.212,3.006-1.988c1.6-1.406,1.455-3.491-0.242-4.8
	c-0.145-0.145-0.291-0.242-0.436-0.388c-0.145-0.097-0.242-0.242-0.291-0.388c-0.339-1.309-0.63-2.618,0.194-3.927
	c0.339-0.436,0.533-1.018,0.727-1.6c0.436-1.6-0.339-2.958-1.891-3.394c-0.145-0.048-0.242-0.048-0.388-0.097
	c-0.291,0-0.533-0.097-0.727-0.242c-0.097-0.048-0.145-0.145-0.145-0.194c-0.339-1.6-0.145-2.23,1.164-2.958
	c0.582-0.388,1.261-0.533,1.891-0.727c0.145-0.048,0.242-0.097,0.388-0.145c0.145,0,0.291-0.048,0.436-0.097
	c-1.503-2.085-4.17-2.909-6.739-2.279c-2.085,0.533-3.539,1.842-4.848,3.345c-0.194,0.194-0.436,0.388-0.679,0.388
	c-0.582,0-0.776-0.485-0.63-0.921c0.097-0.485,0.194-0.97,0.339-1.455c0.145-0.436,0.242-0.921,0.388-1.406
	c-1.164,0-2.085,0.727-3.055,1.455c-0.048-0.339-0.145-0.63-0.194-0.921c-0.145-0.533-0.145-1.067-0.097-1.648
	c0-0.242,0-0.533,0.048-0.873c-1.794,0.63-3.152,1.697-3.539,3.685h-0.242l-0.533-2.521c-0.097,0.097-0.194,0.145-0.291,0.194
	c-0.145,0.048-0.242,0.145-0.339,0.242c-1.115,0.97-1.745,2.133-1.891,3.636c0,0.194-0.194,0.485-0.242,0.533
	c-0.194,0-0.436-0.097-0.582-0.242c-0.145-0.145-0.291-0.339-0.388-0.485c-0.145-0.145-0.291-0.291-0.436-0.436
	c-1.697-1.745-3.636-2.909-6.158-2.764C9.368,1.988,7.768,2.667,6.653,4.267c0.485,0.145,0.97,0.291,1.406,0.436
	c0.921,0.291,2.036,0.824,2.376,1.6c0.145,0.436,0.194,0.921,0.145,1.503c-0.048,0.63-0.339,0.824-0.921,0.873
	c-1.939,0.339-2.861,1.794-2.279,3.685c0.048,0.194,0.145,0.388,0.194,0.582s0.145,0.388,0.291,0.533
	c0.436,0.533,0.679,1.067,0.679,1.697c0,0.63-0.048,1.212-0.097,1.842c-0.048,0.582-0.291,0.97-0.824,1.358
	c-1.939,1.503-1.988,3.636-0.048,5.188c0.776,0.63,1.697,1.164,2.618,1.6c1.212,0.63,1.697,1.648,1.697,3.006
	c0,1.018-0.048,2.085-0.097,3.2c-0.048,0.388-0.048,0.776-0.097,1.115c-0.048,0.388-0.097,0.776-0.145,1.164l-0.194,0.048
	c-0.242-0.291-0.436-0.582-0.679-0.873c-0.485-0.582-0.873-1.309-1.115-1.988c-0.145-0.339-0.242-0.679-0.388-1.018
	c-1.406,1.164-2.182,3.442-1.988,5.721c0.194,2.279,1.309,4.509,3.636,5.527c0.63,0.339,1.018,0.727,1.406,1.309
	c1.212,2.085,3.055,3.297,5.382,3.733c0.242,0,0.533,0.145,0.727,0.291c1.6,1.067,3.491,1.6,5.673,1.6s4.073-0.533,5.624-1.6
	c0.194-0.145,0.436-0.242,0.63-0.291c2.667-0.388,4.509-1.891,5.818-4.218c0.145-0.194,0.339-0.388,0.533-0.533
	c2.715-1.115,4.024-3.2,4.218-6.061c0.145-2.133-0.436-4.024-2.036-5.576c-0.339,1.6-1.067,2.909-2.424,3.927
	c-0.048-1.018-0.048-1.988-0.097-3.006c-0.048-0.97-0.097-1.939-0.097-2.958C36.18,26.57,36.762,25.794,37.731,25.261z"/>
</svg>
