<?xml version="1.0" encoding="utf-8"?>
<!-- Generator: Adobe Illustrator 17.0.0, SVG Export Plug-In . SVG Version: 6.00 Build 0)  -->
<!DOCTYPE svg PUBLIC "-//W3C//DTD SVG 1.1//EN" "http://www.w3.org/Graphics/SVG/1.1/DTD/svg11.dtd">
<svg version="1.1" id="Layer_1" xmlns="http://www.w3.org/2000/svg" xmlns:xlink="http://www.w3.org/1999/xlink" x="0px" y="0px"
	 width="48px" height="48px" viewBox="0 0 48 48" enable-background="new 0 0 48 48" xml:space="preserve">
<g>
	<path d="M28.394,10.114l1.765-4.964l5.882-3.455L35.046,0l-6.499,3.817l-2.192,6.164c-1.226-0.06-2.57-0.093-3.979-0.093
		c-5.753,0-10.416,0.55-10.416,1.228s4.664,1.228,10.416,1.228s10.416-0.55,10.416-1.228C32.792,10.702,31.055,10.336,28.394,10.114
		z"/>
	<path d="M22.375,14.212c-5.753,0-10.416-0.55-10.416-1.228l1.965,22.485c0,0.678,4.428,1.228,8.451,1.228s8.451-0.55,8.451-1.228
		l1.965-22.485C32.792,13.662,28.128,14.212,22.375,14.212z"/>
	<path d="M15.144,37.745c0,0,0.935,1.953,1.136,3.938c0.201,1.985,0.652,5.464,0.652,5.464c0,0.471,2.896,0.853,5.689,0.853
		c2.793,0,5.689-0.382,5.689-0.853c0,0,0.464-3.606,0.703-5.96c0.238-2.354,1.085-3.442,1.085-3.442s-3.483,0.853-7.477,0.853
		S15.144,37.745,15.144,37.745z"/>
</g>
</svg>
