<?xml version="1.0" encoding="utf-8"?>
<!-- Generator: Adobe Illustrator 17.0.0, SVG Export Plug-In . SVG Version: 6.00 Build 0)  -->
<!DOCTYPE svg PUBLIC "-//W3C//DTD SVG 1.1//EN" "http://www.w3.org/Graphics/SVG/1.1/DTD/svg11.dtd">
<svg version="1.1" id="Layer_1" xmlns="http://www.w3.org/2000/svg" xmlns:xlink="http://www.w3.org/1999/xlink" x="0px" y="0px"
	 width="48px" height="48px" viewBox="0 0 48 48" enable-background="new 0 0 48 48" xml:space="preserve">
<g>
	<path d="M47.369,15.123c0,0-0.463-2.359-1.53-2.797c-1.067-0.438-1.372-0.371-1.864-0.055c-0.522,0.337-0.866,1.444-1.299,1.697
		c-0.433,0.253-1.155,0.505-1.155,0.505c-0.494-2.269-2.998-3.358-4.383-4.493c-0.713-0.602-3.395-3.634-6.955-3.577
		c0,0-3.003,0.1-5.552,1.47c-2.548,1.37-3.624,3.359-3.624,3.359s-1.016-0.03-1.768,0.648c-0.65,0.586-1.841,1.753-1.841,1.753
		s-1.566,0.168-3.3,0.619c-1.616,0.42-3.498,1.31-4.345,2.003c-1.009,0.826-1.92,1.736-2.475,2.386
		c-0.427,0.501-0.971,1.627-1.547,2.195c-0.691,0.681-1.331,0.905-1.488,0.884c0,0,0.751-0.84,0.56-1.738
		c-0.053-0.249,0.707,0.781,0.707,0.781s0.256-0.789,0.206-1.502c-0.037-0.531-0.346-1.015-0.516-1.134c0,0,0.118-0.191,0.236-0.486
		c0.118-0.295,0.177-0.663,0.177-0.663s-0.999,0.16-1.723,0.678c-0.971,0.693-1.656,1.329-2.062,2.386
		c-0.295,0.766,0.398,1.635,0.53,1.738c0.133,0.103,0.191,1.399,0.884,1.841c0.692,0.442,1.679,0.354,1.679,0.354
		s-0.161,1.193-0.133,2.357c0.026,1.082,0.243,2.134,0.236,2.284c-0.015,0.309-0.383,1.296-0.471,1.458
		c-0.088,0.162-1.679,1.679-1.856,1.871c-0.177,0.192-0.383,0.604-0.221,1.252c0.084,0.335,0.36,1.409,1.193,2.401
		c0.776,0.925,2.681,1.974,3.742,1.797c0.021-0.003-0.324,0.854-0.383,1.193s-0.206,1.282,0.457,1.606
		c0.293,0.143,1.004,0.54,1.886,0.81c1.114,0.342,2.468,0.551,3.241,0.56c0.674,0.007,1.575-0.142,1.944-0.751
		c0.39-0.643,0.256-1.652,0.28-1.885c0.059-0.589,0.752-1.459,0.899-1.694c0.147-0.235,0.103-1.694,0.103-1.694
		s0.585,0.09,1.208,0.118c0.622,0.028,1.282-0.008,1.429-0.015c0,0-0.943,0.369-0.943,1.179c0,0.31,0.077,1.044,0.413,1.768
		c0.54,1.166,1.512,2.444,2.121,2.917c0.987,0.766,2.18,0.84,3.373,0.059c0.725-0.474,0.648-1.045,0.943-1.296
		c0.14-0.119,0.583-0.377,1.002-0.707c0.459-0.362,0.891-0.793,0.898-0.84c0.007-0.045,0.148,0.199,0.663,0.324
		c0.495,0.12,1.35,0.118,2.18,0.118c1.694,0,2.431-0.133,2.431-0.133s0.517-0.212,0.781-0.751c0.213-0.436,0.188-1.19,0.162-1.414
		c-0.059-0.501-0.368-0.722-0.368-0.722s-0.03-2.136-0.03-2.578s-1.208-3.624-1.208-3.624s0.751,0.707,1.34,1.208
		c0.294,0.25,1.066,0.907,1.871,0.987c2.077,0.206,3.179-1.158,3.506-1.694c0.473-0.776,0.648-1.709,0.648-1.709
		s2.195,0.471,4.449-0.192C50.528,26.288,47.369,15.123,47.369,15.123z M4.778,18.637c0,0,0.401,0.858,0.304,0.692
		c-0.097-0.166-0.429-0.208-0.429-0.208S4.722,18.789,4.778,18.637z M3.823,23.216c-0.715-0.273-0.477-1.158-0.885-1.737
		c-0.056-0.079-0.114-0.167-0.167-0.262l0-0.001c-0.333-0.597-0.444-1.523,1.7-3.109c0,0-0.263,0.588-0.355,1.054h0
		c-0.007,0.035-0.015,0.071-0.02,0.104c-0.068,0.477-0.034,0.851-0.102,1.328c-0.068,0.477-0.545,0.919-0.545,0.919
		s0.17,0.851,0.817,1.022c0.647,0.17,1.567-0.784,1.567-0.784l-0.409,1.26C5.424,23.011,4.539,23.488,3.823,23.216z M4.675,35.067
		c-0.008-0.007-0.014-0.013-0.021-0.02c-1.709-1.489-1.135-2.672-0.655-3.006c0.462-0.322,1.005-0.929,1.207-1.186l0,0
		c0.019-0.024,0.034-0.044,0.048-0.062c0.015-0.021,0.03-0.041,0.035-0.051c0.068-0.136,0.204-0.579,0.238-0.749
		c0,0,0.715,2.009,1.192,2.929c0.477,0.92,1.328,2.418,1.328,2.418C7.91,35.953,7.6,37.591,4.675,35.067z M31.204,33.705
		c0.034,0.647-0.034,2.486,0.034,2.623s0.409,0.306,0.238,1.158c-0.17,0.851-0.681,0.783-1.601,0.783
		c-1.821,0-2.929-0.272-2.929-0.272c0.749-0.851,2.778-2.242,3.44-6.777C30.387,31.219,31.17,33.058,31.204,33.705z M45.446,25.603
		c-0.111,0.145-0.225,0.279-0.341,0.409c-0.033,0.037-0.066,0.072-0.099,0.108c-0.093,0.099-0.187,0.193-0.282,0.283
		c-0.028,0.027-0.056,0.055-0.085,0.081c-0.121,0.11-0.245,0.213-0.37,0.31c-0.027,0.021-0.055,0.04-0.082,0.06
		c-0.103,0.076-0.207,0.148-0.312,0.216c-0.037,0.024-0.075,0.048-0.112,0.071c-0.12,0.074-0.242,0.144-0.365,0.207
		c-0.012,0.006-0.023,0.013-0.034,0.019c-0.134,0.068-0.271,0.129-0.408,0.187c-0.038,0.016-0.076,0.03-0.114,0.045
		c-0.108,0.042-0.216,0.081-0.326,0.117c-0.035,0.011-0.07,0.024-0.105,0.035c-0.139,0.043-0.279,0.081-0.419,0.114
		c-0.026,0.006-0.053,0.011-0.079,0.017c-0.118,0.026-0.235,0.049-0.354,0.068c-0.042,0.007-0.083,0.013-0.125,0.02
		c-0.123,0.018-0.246,0.033-0.37,0.045C41.041,28.017,41.02,28.02,41,28.021c-0.143,0.013-0.285,0.02-0.428,0.025
		c-0.039,0.001-0.078,0.002-0.117,0.002c-0.11,0.002-0.22,0.002-0.33,0c-0.039-0.001-0.078-0.001-0.118-0.002
		c-0.14-0.005-0.28-0.012-0.42-0.023c-0.023-0.002-0.046-0.005-0.069-0.007c-0.119-0.01-0.238-0.023-0.356-0.037
		c-0.042-0.005-0.084-0.011-0.126-0.016c-0.112-0.015-0.224-0.032-0.334-0.05c-0.028-0.005-0.056-0.009-0.083-0.013
		c-0.134-0.023-0.267-0.049-0.399-0.077c-0.038-0.008-0.075-0.016-0.112-0.024c-0.1-0.022-0.199-0.045-0.298-0.069
		c-0.039-0.009-0.077-0.019-0.116-0.028c-0.126-0.032-0.251-0.065-0.374-0.1c-0.018-0.005-0.036-0.011-0.054-0.016
		c-0.107-0.031-0.213-0.063-0.317-0.096c-0.039-0.012-0.077-0.025-0.116-0.037c-0.091-0.029-0.18-0.059-0.268-0.089
		c-0.029-0.01-0.058-0.02-0.087-0.03c-0.111-0.039-0.219-0.079-0.325-0.118c-0.032-0.012-0.062-0.024-0.093-0.036
		c-0.079-0.03-0.157-0.061-0.232-0.091c-0.033-0.013-0.065-0.026-0.097-0.039c-0.093-0.038-0.184-0.076-0.272-0.114
		c-0.962-0.413-1.57-0.783-1.57-0.783c0.191,1.27-0.041,1.789-0.041,1.789c-0.123,0.655-0.642,1.68-0.219,2.294
		c0.436,0.633,1.058,0.662,1.504,0.567c0.038-0.008,0.073-0.017,0.108-0.027c0.008-0.002,0.017-0.004,0.025-0.007
		c0.032-0.009,0.063-0.019,0.092-0.029c0.009-0.003,0.019-0.006,0.028-0.009c0.027-0.01,0.053-0.02,0.077-0.03
		c0.009-0.004,0.018-0.007,0.026-0.011c0.022-0.009,0.042-0.018,0.06-0.027c0.009-0.004,0.017-0.008,0.026-0.013
		c0.015-0.007,0.029-0.015,0.041-0.021c0.009-0.005,0.016-0.009,0.023-0.014c0.008-0.005,0.016-0.01,0.022-0.014
		c0.007-0.005,0.011-0.009,0.015-0.012c0.002-0.002,0.006-0.005,0.007-0.006c0.003-0.004,0.001-0.006-0.006-0.005
		c-1.502,0.219-1.72-0.546-1.72-0.546s0.86,0.369,1.871,0.068c0.827-0.246,1.052-1.926,1.133-1.858
		c0.082,0.068,0.574,0.819,0.574,0.819S37.337,32.5,35.292,32.5H33.5v-1.38c0,0.056,0.474,0.124,0.231,0.144
		c-1.021,0.083-1.41-0.822-1.71-1.109c-0.3-0.287-1.306-1.374-1.306-1.374c-0.203-0.07-0.919-0.242-1.691-0.626
		c-0.736-0.366-1.364-0.941-1.364-0.941c0.006,0.017,0.043,0.033,0.049,0.05c0.388,1.001,2.337,1.789,2.376,1.881
		c0.02,0.048-0.471,2.667-1.226,4.642c-0.78,2.039-1.969,3.194-2.225,3.466c-0.478,0.505-1.473,1.229-1.814,1.516
		c-0.341,0.287-1.119,0.724-1.338,0.956c-0.219,0.232-0.604,0.837-0.604,0.837c-0.294,0.398-1.164,0.972-2.121,0.206
		c-0.191-0.153-1.154-0.766-1.615-1.488c-0.077-0.12-0.642-0.244-0.642-0.368V41.5h0.891c-0.353-2-0.646-2.526-0.701-2.722
		c-0.133-0.471,0.032-1.355,0.18-1.516c0.147-0.162,1.658-1.311,1.85-1.458c0.192-0.147,0.336-0.265,0.395-0.147
		c0.059,0.118,0.352,0.42,0.337,0.287c-0.015-0.133-0.148-1.028-0.148-1.514c0-0.382-0.873-1.146-0.852-1.398
		c0.001-0.014-0.951-0.046-0.951-0.057c0-0.004,0-0.007,0-0.01c0-0.009,0-0.018,0-0.024c0-0.004,0-0.005,0-0.008
		c0-0.003,0-0.007,0-0.008c0-0.002,0.953,0,0.951,0.006c-0.03,0.103-0.112,1.576-0.244,1.591c-0.27,0.03-1.632,0.295-2.369,0.265
		c-0.737-0.029-2.105,0.015-2.341-0.221c-0.014-0.014,0.032-0.032,0.018-0.055c-0.008-0.013,0.014-0.029,0.005-0.045
		c-0.005-0.01,0.004-0.019-0.001-0.03c-0.011-0.022-0.014-0.047-0.024-0.073c-0.003-0.006,0.018-0.012,0.016-0.018
		C15.5,34.317,15.5,34.314,15.5,34.281c0-0.003,0,1.219,0,1.219h-0.017c-0.182-1-0.355-2.075-0.355-2.075s0.06,2.012-0.008,2.82
		c-0.004,0.046-0.011-0.069-0.015-0.034c-0.093,0.696-0.297,0.862-0.355,0.968c-0.185,0.338-0.32,0.5-0.671,1.014
		c-0.352,0.514-0.217,0.44-0.271,1.306c-0.054,0.866-0.099,0.99-1.289,1.072c-0.09,0.006-0.186,0.001-0.285-0.002
		c-0.03-0.001-0.062-0.005-0.093-0.007c-0.074-0.004-0.15-0.011-0.228-0.019c-0.033-0.003-0.064,0.08-0.098,0.076
		c-0.108-0.013-0.217,0.04-0.33,0.04l-0.001,0c-0.116,0-0.234-0.13-0.353-0.155c-0.029-0.006-0.058-0.056-0.087-0.062
		c-0.096-0.021-0.191-0.065-0.287-0.089c-0.025-0.006-0.049-0.023-0.074-0.029c-0.246-0.063-0.487-0.137-0.715-0.209
		c-0.008-0.002-0.015-0.008-0.023-0.01c-0.111-0.035-0.219,0.029-0.322-0.007c-0.003-0.001-0.007,0.096-0.01,0.096h0
		c-0.444-0.155-0.803-0.405-0.975-0.505c-0.514-0.298-0.568-0.727-0.379-1.403c0.189-0.676,0.677-3.137,0.677-3.137
		c-1.007-1.405-1.905-2.984-2.505-4.665c-0.013-0.036-0.025-0.078-0.037-0.114c-0.056-0.161-0.109-0.326-0.16-0.489
		c-0.011-0.037-0.023-0.075-0.034-0.112c-0.059-0.196-0.114-0.393-0.164-0.592c-0.002-0.008-0.004-0.017-0.006-0.025
		c-0.046-0.184-0.087-0.371-0.125-0.557c-0.01-0.048-0.019-0.095-0.028-0.143c-0.032-0.168-0.061-0.336-0.086-0.505
		c-0.005-0.032-0.01-0.064-0.015-0.096c-0.028-0.199-0.051-0.4-0.068-0.601c-0.004-0.041-0.006-0.082-0.009-0.122
		c-0.013-0.163-0.022-0.327-0.027-0.491c-0.002-0.054-0.088-0.108-0.089-0.162C5.578,26.276,5.5,26.08,5.5,25.883
		c0-0.007,0-0.015,0-0.022c0-0.204,0.106-0.409,0.125-0.615c0.005-0.055,0.054-0.111,0.06-0.166
		c0.017-0.161,0.059-0.322,0.084-0.484c0.008-0.053,0.026-0.105,0.034-0.158c0.035-0.207,0.08-0.414,0.127-0.622
		c0.008-0.034,0.02-0.067,0.028-0.101c0.042-0.177,0.09-0.354,0.141-0.532c0.018-0.061,0.037-0.123,0.056-0.185
		c0.053-0.173,0.111-0.346,0.174-0.519c0.015-0.041,0.028-0.081,0.043-0.122c0.078-0.21,0.164-0.421,0.256-0.632
		c0.023-0.053,0.049-0.107,0.073-0.16c0.075-0.165,0.155-0.331,0.239-0.497c0.031-0.061,0.062-0.123,0.094-0.184
		c0.113-0.214,0.231-0.429,0.359-0.644c2.489-4.167,6.919-5.232,9.201-5.334c0,0-0.013,0.013-0.024,0.023
		c-0.005,0.005-0.013,0.013-0.02,0.02c-0.019,0.019-0.047,0.047-0.078,0.079c-0.007,0.006-0.011,0.011-0.018,0.018
		c-0.038,0.038-0.085,0.086-0.136,0.139c-0.014,0.015-0.03,0.031-0.045,0.046c-0.047,0.048-0.098,0.102-0.153,0.16
		c-0.015,0.015-0.028,0.029-0.043,0.045c-0.068,0.072-0.142,0.151-0.221,0.235c-0.019,0.02-0.039,0.042-0.058,0.063
		c-0.066,0.071-0.134,0.146-0.205,0.224c-0.023,0.025-0.045,0.05-0.068,0.076c-0.088,0.098-0.18,0.201-0.274,0.308
		c-0.022,0.025-0.045,0.051-0.067,0.077c-0.077,0.088-0.155,0.179-0.235,0.273c-0.03,0.035-0.059,0.069-0.089,0.105
		c-0.099,0.118-0.199,0.238-0.301,0.363c-0.02,0.025-0.041,0.051-0.061,0.076c-0.084,0.104-0.168,0.21-0.252,0.317
		c-0.033,0.042-0.065,0.084-0.098,0.126c-0.098,0.127-0.196,0.256-0.292,0.387c-0.004,0.005-0.008,0.011-0.012,0.016l0,0
		c-0.581,0.79-1.119,1.639-1.455,2.438c-0.553,1.317-0.353,2.453,0.243,2.983c0.597,0.53,1.768,2.828,1.768,2.828
		s-0.729,1.547-0.575,1.944c0,0,0.362,0.426,0.994,0.972c0.318,0.275,0.709,0.574,1.18,0.809c0.052,0.026,0.107,0.05,0.161,0.075
		c0.068,0.03,0.137,0.059,0.208,0.086c0.052,0.02,0.105,0.039,0.158,0.057c0.097,0.032,0.196,0.06,0.299,0.085
		c0.036,0.009,0.072,0.018,0.109,0.025c0.126,0.026,0.256,0.047,0.39,0.061c0.029,0.003,0.059,0.005,0.089,0.007
		c0.147,0.011,0.298,0.017,0.455,0.011c0.885-0.036,3.425-1.503,4.507-2.033c1.083-0.53,2.585-0.552,2.585-0.597
		c0-0.021,0.647-1.299,0.729-2.917c0.092-1.808-0.382-3.998-0.464-4.441c-0.009-0.05-0.019-0.109-0.029-0.174
		c-0.003-0.02-0.006-0.043-0.009-0.065c-0.007-0.048-0.014-0.097-0.021-0.151c-0.004-0.029-0.008-0.059-0.012-0.09
		c-0.007-0.053-0.014-0.108-0.021-0.165c-0.004-0.033-0.008-0.067-0.012-0.101c-0.007-0.062-0.015-0.125-0.023-0.191
		c-0.004-0.031-0.007-0.062-0.011-0.094c-0.009-0.079-0.018-0.16-0.027-0.243c-0.002-0.022-0.005-0.043-0.007-0.064
		c-0.024-0.216-0.047-0.439-0.07-0.663c-0.002-0.021-0.004-0.042-0.006-0.064c-0.009-0.09-0.018-0.18-0.027-0.27
		c-0.003-0.026-0.005-0.051-0.008-0.076c-0.009-0.087-0.017-0.173-0.025-0.257c-0.002-0.023-0.004-0.046-0.007-0.069
		c-0.008-0.082-0.016-0.161-0.023-0.239c-0.002-0.023-0.004-0.047-0.007-0.069c-0.008-0.086-0.016-0.168-0.023-0.246
		c-0.001-0.008-0.044-0.017-0.045-0.025c-0.023-0.25-0.097-0.458-0.097-0.594v0c-0.155-0.111,0.027-0.18,0.027-0.18
		s-0.421,1.9-0.244,4.088c0.063,0.776,0.438,3.093,0.431,3.823c-0.022,2.21-0.724,2.85-0.724,2.85
		c-1.48-0.022-4.483,1.723-5.19,2.121c-0.354,0.199-0.868,0.413-1.413,0.42c-0.544,0.007-1.116-0.193-1.369-0.331
		c-0.729-0.398-1.458-1.392-1.48-1.458c-0.086-0.258,0.184-1.251,0.641-2.165c0.893-1.788,2.348-3.865,2.143-3.69
		c-0.309,0.265-2.674,3.381-2.674,3.381c-0.02-0.307-0.497-1.007-1.016-1.714c-0.169-0.231-0.342-0.461-0.506-0.68
		c-0.009-0.011-0.017-0.023-0.026-0.035c-0.031-0.041-0.062-0.083-0.092-0.123c-0.059-0.08-0.118-0.158-0.173-0.232
		c-0.298-0.404-0.147-1.036-0.088-1.282c0.067-0.284,0.519-1.469,1.502-2.74c1.922-2.484,5.041-5.711,5.436-6.076
		c0.067-0.062,0.134-0.114,0.2-0.163c0.016-0.012,0.032-0.023,0.048-0.034c0.065-0.044,0.129-0.085,0.193-0.119
		c0.005-0.003,0.011-0.005,0.016-0.008c0.059-0.03,0.117-0.056,0.175-0.079c0.018-0.007,0.036-0.014,0.054-0.021
		c0.057-0.021,0.114-0.039,0.169-0.054c0.021-0.006,0.04-0.01,0.06-0.015c0.035-0.009,0.07,1.227,0.104,1.22
		c0.029-0.006,0.058,1.227,0.086,1.227H19.5v-2.144c0-0.028,1.074-0.214,1.195-0.237c0.232-0.043,2.222-0.43,3.209-0.625
		c-1.072-0.097-2.04-0.047-2.024-0.078c0.065-0.131,0.432-0.539,0.91-1.015c0.439-0.445,1.127-0.995,1.994-1.492
		c0.176-0.101,0.389-0.205,0.587-0.3c0.077-0.037,0.171-0.074,0.251-0.111c0.122-0.055,0.249-0.113,0.377-0.165
		c0.111-0.046,0.229-0.089,0.344-0.133c0.099-0.038,0.198-0.076,0.299-0.112c0.139-0.049,0.281-0.095,0.423-0.141
		c0.077-0.024,0.153-0.05,0.231-0.073c0.163-0.049,0.326-0.094,0.491-0.138c0.054-0.014,0.108-0.028,0.163-0.042
		c0.182-0.046,0.363-0.087,0.544-0.124c0.034-0.007,0.067-0.013,0.101-0.02c0.196-0.039,0.388-0.072,0.578-0.1
		c0.016-0.002,0.032-0.004,0.048-0.006c0.203-0.029,0.401-0.051,0.594-0.066c0.161-0.012,0.324-0.025,0.476-0.027
		c1.387-0.017,2.783,0.682,3.974,1.484l0,0c0.001,0.001,0.002,0.002,0.003,0.002c0.132,0.089,0.261,0.179,0.388,0.27
		c0.022,0.016,0.044,0.032,0.066,0.048c0.1,0.072,0.198,0.145,0.295,0.217c0.033,0.025,0.066,0.049,0.099,0.074
		c0.086,0.066,0.171,0.131,0.254,0.195c0.03,0.024,0.061,0.047,0.091,0.071c0.106,0.083,0.21,0.166,0.31,0.246
		c1.094,0.878,1.798,1.424,1.701,1.414c-0.221-0.022-0.707,0.133-0.707,0.133c0.428-0.008,1.756,0.278,2.475,0.994
		c0.092,0.092,0.179,0.189,0.264,0.288c0.023,0.027,0.045,0.053,0.068,0.081c0.07,0.085,0.137,0.171,0.201,0.258
		c0.011,0.015,0.023,0.03,0.034,0.046c0.072,0.1,0.139,0.201,0.204,0.301c0.019,0.03,0.038,0.06,0.056,0.089
		c0.049,0.079,0.096,0.156,0.14,0.233c0.014,0.024,0.029,0.049,0.042,0.073c0.053,0.094,0.102,0.185,0.148,0.274
		c0.014,0.027,0.027,0.052,0.04,0.079c0.035,0.069,0.067,0.134,0.097,0.198c0.01,0.022,0.021,0.043,0.031,0.064
		c0.037,0.079,0.07,0.152,0.099,0.218c0.006,0.013,0.01,0.023,0.015,0.035c0.026,0.06,0.049,0.114,0.069,0.161
		c0.001,0.003,0.003,0.007,0.004,0.009c0.001,0.001,0.002,0.003,0.003,0.004c0.017,0.023,0.033,0.046,0.045,0.071
		c0.013,0.026,0.024,0.054,0.03,0.083c0.005,0.02,0.006,0.029,0.005,0.032c0,0-0.002-0.002-0.002-0.003c0,0-0.004-0.004-0.009-0.014
		c-0.003-0.006-0.007-0.017-0.011-0.025c-0.004-0.01-0.008-0.019-0.014-0.032c-0.011-0.027-0.025,0.237-0.042,0.197
		c-0.002-0.005-0.112,0.283-0.114,0.283H39.5v-0.584l0,0V14.91c0-0.032,0.571-0.065,0.537-0.092
		c-0.001-0.001,0.311-0.003,0.311-0.003c-0.032-0.026,0.09-0.05,0.052-0.072c-0.007-0.004,0.064-0.008,0.056-0.013
		c-0.033-0.018-0.03-0.036-0.067-0.051c-0.008-0.003-0.379-0.007-0.387-0.01c-0.044-0.018-0.502-0.034-0.502-0.047v0.017
		c0-0.014,0.66,0.861,0.606,0.861c-0.003,0-0.006,0-0.009,0c-0.048,0-0.098-0.473-0.147-0.477c-0.011-0.001-0.022,0.241-0.034,0.24
		c-0.044-0.003-0.088,0.237-0.131,0.237c-0.011,0-0.021,0-0.032,0c-0.052,0-0.105-0.469-0.156-0.464
		c-0.184,0.018-0.356-0.171-0.492-0.091c-0.29,0.169-1.078,0.2-1.138,0.211l0.587,0.048l-0.438-0.001
		c-0.025,0.051-0.616,0.082-0.616,0.145c0,0.01,0,0.02,0,0.03c0,0.056,0,0.114,0,0.174c0,0.006,0,0.011,0,0.017
		c0,0.103,0.596,0.205,0.619,0.299c0.006-0.051,0.304-0.102,0.329-0.15c0.114-0.215,0.522-0.297,0.737-0.183
		c0.199,0.105,0.356,0.325,0.277,0.53c-0.35,0.028-0.42,0.049-0.688,0.169c-0.012-0.012-0.001-0.027-0.011-0.04
		c0.009,0.024,0.024,0.04,0.024,0.04s-0.526,0.354-0.216,0.243c0.309-0.11,1.77-0.155,1.947,0.022
		c0.177,0.177,0.134,0.818,0.134,0.818c-0.95-0.486-2.474-0.243-2.828,0.795c-0.124,0.365-0.596,1.547-0.596,1.547
		c0.287-0.199,0.575-1.193,1.171-1.768c0.487-0.469,1.635-0.486,1.326-0.42c-0.309,0.066-0.84,0.928-0.862,1.37
		c-0.022,0.442-0.265,1.967-0.265,1.967c0.376-0.398,0.486-2.121,1.193-2.696c0.655-0.532,1.039-0.331,1.039-0.331
		c0.265,1.061-0.354,3.801-0.354,3.801c0.227-0.434,0.623-1.203,0.773-2.232c0.172-1.171,0.081-2.607,0.022-2.983
		c-0.11-0.707,0.205-0.918,0.552-1.039c0.575-0.199,0.906-0.398,1.392-0.729c0.486-0.331,0.914-1.304,1.268-1.502
		c0.265-0.149,0.55-0.211,1.015,0.309v0c0,0.029,0.128,0.063,0.152,0.095c0.012,0.016,0.063,0.029,0.075,0.046
		c0.022,0.032,0.064,0.069,0.087,0.104c0.014,0.022,0.037,0.041,0.051,0.064c0.034,0.056,0.072,0.117,0.105,0.182
		c0.002,0.005,0.007,0.009,0.01,0.013c0.036,0.07,0.073,0.145,0.109,0.225c0.316,0.704,1.049,3.698,0.973,6.364
		C46.996,22.684,46.253,24.547,45.446,25.603z"/>
	<path d="M2.477,16.992c-0.309,0.265-1.341,0.781-1.753,1.679C0.311,19.57,0.488,21.53,0.488,21.53s0.029-1.576,0.604-2.681
		C1.666,17.744,2.477,16.992,2.477,16.992z"/>
	<path d="M0.936,17.741c-0.143,0.122-0.619,0.361-0.81,0.776c-0.191,0.415-0.109,1.32-0.109,1.32s0.014-0.728,0.279-1.239
		C0.562,18.088,0.936,17.741,0.936,17.741z"/>
	<path d="M22.113,7.506c0.956-0.799,1.992-1.181,1.992-1.181c-0.387,0.126-1.538,0.205-2.264,0.876
		c-0.726,0.671-1.317,2.548-1.317,2.548S21.158,8.305,22.113,7.506z"/>
	<path d="M22.395,6.423c-0.179,0.058-0.71,0.095-1.046,0.404c-0.336,0.31-0.608,1.177-0.608,1.177s0.293-0.667,0.734-1.036
		C21.916,6.6,22.395,6.423,22.395,6.423z"/>
	<path d="M23.87,13.207c-0.054,0.005-0.108,0.01-0.163,0.015c-0.172,0.015-0.346,0.031-0.524,0.048
		c-0.848,0.078-1.645-0.097-2.274,0.508c-0.844,0.812-1.234,2.274-1.79,4.137c-0.022,0.072-0.045,0.143-0.067,0.214v0
		c-0.015,0.062-0.027,0.113-0.036,0.154c0.118-0.438,0.631-1.698,1.212-2.615c0.568-0.896,1.197-1.44,1.304-1.528
		c-0.067,0.059-0.284,0.294-0.346,0.939c-0.074,0.766,0.147,1.738,0.147,1.12c0-0.619,0.648-1.93,1.208-2.328
		c0.374-0.266,1.265-0.55,1.822-0.706l0,0c-0.022,0.002-0.047,0.004-0.069,0.006C24.157,13.181,24.016,13.194,23.87,13.207z"/>
	<path d="M43.5,13.308c0,0.085,0.637,0.244,0.503,0.426c-0.215,0.291,0.088,0.995-0.62,1.452c-1.153,0.744-1.713,0.602-1.904,0.621
		c0.04,0.018,0.191,0.037,0.235,0.055c0.02,0.008,0.096,0.016,0.116,0.024c0.035,0.014,0.098,0.027,0.135,0.04
		c0.051,0.018,0.117,0.034,0.172,0.048c0.02,0.005,0.047,0.009,0.067,0.013c0.044,0.01,0.092,0.019,0.138,0.026
		c0.024,0.004,0.049,0.74,0.073,0.742c0.045,0.005,0.092,0.743,0.139,0.743c0.025,0,0.05,0,0.076,0c0.049,0,0.1-0.74,0.15-0.746
		c0.023-0.003,0.046-0.371,0.069-0.375c0.074-0.013,0.149-0.215,0.225-0.241c1.809-0.64,1.243-2.371,1.32-2.723
		c0.002-0.009-0.894-0.117-0.894-0.117V13.308z"/>
	<path d="M31.334,12.956c-0.354,0.088-1.532,0.457-1.915,0.928c-0.22,0.271-0.318,0.852-0.362,1.298
		c-0.033,0.33-0.036,0.587-0.036,0.587s0.117-0.931,0.648-1.532c0.406-0.459,0.838-0.786,1.161-0.995
		C31.129,13.049,31.334,12.956,31.334,12.956z"/>
	<path d="M32.521,27.245c0-0.005,0.001-0.01,0.002-0.015c-0.001,0.007-0.002,0.013-0.003,0.018
		C32.519,27.248,32.52,27.245,32.521,27.245z"/>
	<path d="M32.563,26.97c0.173-0.725,0.8-1.459,1.905-1.731c0.006-0.004,0.017-0.011,0.017-0.011
		c-0.175,0.013-1.223,0.039-1.528,0.356C32.756,25.795,32.63,26.535,32.563,26.97z"/>
	<path d="M33.329,16.188c0.275-0.161,0.641-0.398,0.783-0.557c-0.126,0.052-0.383,0.149-0.646,0.239
		c-0.17,0.058-0.452,0.106-0.759,0.192c-0.042,0.017-0.083,0.033-0.125,0.051c-0.054,0.007-0.103,0.027-0.155,0.039
		c-0.232,0.084-0.465,0.197-0.662,0.359c-0.048,0.039-0.086,0.076-0.126,0.113c-0.058,0.067-0.116,0.136-0.161,0.213
		c-0.06,0.061-0.125,0.133-0.189,0.202c-0.103,0.17-0.138,0.295-0.194,0.363c-0.17,0.207-0.797,0.763-0.921,0.912
		c0.332-0.1,0.931-0.578,1.101-0.727c0.011,0.602,0.396,1.114,0.941,1.332c-0.248-0.077-0.427-0.306-0.427-0.579
		c0-0.336,0.272-0.608,0.608-0.608c0.311,0,0.557,0.212,0.593,0.514c-0.409,0.26-0.525,0.353-0.774,0.673
		c-0.271,0.303-0.406,0.539-0.486,0.697c-0.009,0.028-0.019,0.056-0.026,0.086c0.157-0.164,0.853-0.874,1.669-1.424
		c0.799-0.539,1.866-0.967,2.147-1.076c0.017-0.015,0.017-0.022,0.006-0.025c-0.161,0.008-0.621,0.05-1.213,0.275
		C34.267,16.869,33.873,16.384,33.329,16.188z"/>
</g>
</svg>
