<?xml version="1.0" encoding="utf-8"?>
<!-- Generator: Adobe Illustrator 17.0.0, SVG Export Plug-In . SVG Version: 6.00 Build 0)  -->
<!DOCTYPE svg PUBLIC "-//W3C//DTD SVG 1.1//EN" "http://www.w3.org/Graphics/SVG/1.1/DTD/svg11.dtd">
<svg version="1.1" id="Layer_1" xmlns="http://www.w3.org/2000/svg" xmlns:xlink="http://www.w3.org/1999/xlink" x="0px" y="0px"
	 width="48px" height="48px" viewBox="0 0 48 48" enable-background="new 0 0 48 48" xml:space="preserve">
<path d="M44.917,18.602c-2.191-0.746-3.264,1.352-3.264,1.352c1.632-1.539,3.357,0.047,3.777,1.585
	c0.42,1.539-1.072,3.124-4.243,2.098c-3.171-1.026-7.833-5.642-11.75-5.642c-2.506,0-4.125,0.248-4.965,1.6
	c-0.202,0.325-0.755,0.295-0.968-0.037c-0.847-1.32-2.458-1.564-4.942-1.564c-3.917,0-8.579,4.616-11.75,5.642
	c-3.171,1.026-4.663-0.56-4.243-2.098s2.145-3.124,3.777-1.585c0,0-1.072-2.098-3.264-1.352s-4.103,3.683-2.471,7.087
	c1.632,3.404,7.693,5.315,14.081,3.777c4.944-1.191,7.947-2.131,9.051-4.224c0.101-0.192,0.394-0.231,0.483-0.056
	c1.08,2.133,4.092,3.079,9.081,4.28c6.388,1.539,12.449-0.373,14.081-3.777C49.02,22.285,47.109,19.348,44.917,18.602z"/>
</svg>
