<?xml version="1.0" encoding="utf-8"?>
<!-- Generator: Adobe Illustrator 17.0.0, SVG Export Plug-In . SVG Version: 6.00 Build 0)  -->
<!DOCTYPE svg PUBLIC "-//W3C//DTD SVG 1.1//EN" "http://www.w3.org/Graphics/SVG/1.1/DTD/svg11.dtd">
<svg version="1.1" id="Layer_1" xmlns="http://www.w3.org/2000/svg" xmlns:xlink="http://www.w3.org/1999/xlink" x="0px" y="0px"
	 width="48px" height="48px" viewBox="0 0 48 48" enable-background="new 0 0 48 48" xml:space="preserve">
<path d="M34.752,12.119c-1.426,0-2.495,1.01-2.436,2.376c0,1.366,0.95,2.317,2.376,2.317c1.426,0,2.495-0.95,2.436-2.317
	C37.128,13.128,36.119,12.119,34.752,12.119z M32.317,36.118h4.752V19.009h-4.752V36.118z M18.06,26.138
	c0.95-3.327,1.901-6.535,2.851-9.802c1.01,3.148,2.02,6.475,2.97,9.802H18.06z M23.941,13.01c-0.059-0.297-0.297-0.356-0.535-0.356
	c-0.772,0.059-1.485,0.059-2.198,0.059c-0.772,0-1.485,0-2.257-0.059c-0.475,0-0.653,0.178-0.832,0.594
	c-1.01,3.327-2.02,6.535-3.089,9.802c-0.535,1.663-1.069,3.327-1.604,4.931c-0.535,1.663-1.069,3.327-1.604,4.931
	c-0.178,0.535-0.297,1.069-0.475,1.604s-0.356,1.129-0.535,1.663c0.653,0,1.366,0,2.02,0s1.247,0,1.901,0.059
	c0.416,0,0.653-0.119,0.713-0.535c0.535-1.901,1.129-3.742,1.663-5.584c0.178-0.475,0.297-0.594,0.772-0.594
	c1.069,0.059,2.139,0.059,3.208,0.059c1.01,0,2.079,0,3.089-0.059c0.416,0,0.535,0.119,0.713,0.535
	c0.535,1.901,1.129,3.742,1.782,5.584c0.059,0.416,0.238,0.535,0.713,0.535c0.297-0.059,0.594-0.059,0.891-0.059s0.653,0,0.95,0
	h2.198V35.94c-0.653-1.901-1.247-3.802-1.842-5.762c-0.653-1.901-1.247-3.802-1.901-5.703c-0.653-1.901-1.247-3.802-1.842-5.762
	C25.188,16.812,24.594,14.911,23.941,13.01z M47.999,24.178v23.108c0,0.772-0.119,0.713-0.891,0.713H0.832
	c-0.772,0-0.832,0.059-0.832-0.713V1.069C0.001,0.297,0.119,0,0.892,0h46.157c0.772,0,0.95,0.238,0.95,1.129V24.178z"/>
</svg>
