<?xml version="1.0" encoding="utf-8"?>
<!-- Generator: Adobe Illustrator 17.0.0, SVG Export Plug-In . SVG Version: 6.00 Build 0)  -->
<!DOCTYPE svg PUBLIC "-//W3C//DTD SVG 1.1//EN" "http://www.w3.org/Graphics/SVG/1.1/DTD/svg11.dtd">
<svg version="1.1" id="Layer_1" xmlns="http://www.w3.org/2000/svg" xmlns:xlink="http://www.w3.org/1999/xlink" x="0px" y="0px"
	 width="48px" height="48px" viewBox="0 0 48 48" enable-background="new 0 0 48 48" xml:space="preserve">
<path d="M34.032,12.554l-3.537-2.79l-0.648,4.185l-2.989-1.594l-4.683,2.989l-1.544-6.177l-2.59,4.483h-3.886
	c-1.594,0-1.744-2.142-0.299-3.537c1.245-1.345,2.541-2.69,3.836-3.985c1.295-1.295,2.341-2.341,3.089-3.138
	s1.744-1.196,2.939-1.196c1.146,0,2.142,0.399,2.939,1.196l7.074,7.174C34.38,10.91,34.43,12.155,34.032,12.554z M24.019,33.078
	c-0.996,0.249-3.786-0.548-6.028-1.445c-1.146-0.448-2.042-0.847-2.69-1.245c-0.648-0.349-0.697-0.548-0.149-0.548
	c0.149,0.05,0.598,0.199,1.445,0.399c1.644,0.399,3.886,0.847,5.928,1.245c0.996,0.199,1.694,0.349,2.142,0.399
	c0.349,0.05,0.399,0.249,0.249,0.498S24.467,32.879,24.019,33.078z M46.336,20.723L27.705,1.644C26.559,0.548,25.214,0,23.57,0
	s-2.989,0.548-4.085,1.644L1.552,20.026c-3.039,3.786-2.042,5.43,0.349,6.426c1.146,0.498,2.541,0.897,4.135,1.146
	c1.544,0.299,2.889,0.697,3.985,1.245c0.747,0.797,0,1.544-2.242,2.192c-4.533,1.345-2.092,2.59,0,3.338
	c1.046,0.399,2.142,0.797,3.338,1.146c2.391,0.797,4.733,1.594,5.53,2.391l-1.644,4.932c0.747,0.797,1.843,1.146,3.238,1.096
	s2.292,0.847,2.64,2.69c0.448,2.59,6.526,1.096,9.465-1.046c0.747-0.797,0.548-1.295-0.697-1.544
	c-1.245-0.199-1.494-0.697-0.747-1.544c1.943-1.993,3.786-2.889,5.43-2.74c3.288,0.399,4.932-3.886,0.996-5.181
	c-1.943-0.648-2.541-1.345-1.744-2.192c1.146-0.648,2.79-1.245,4.932-1.893c4.334-1.196,8.22-2.79,9.565-5.231
	C48.727,24.061,48.179,22.567,46.336,20.723z M40.109,37.063c0,0.947,6.675,1.544,6.675-0.199
	C45.838,34.074,40.906,34.273,40.109,37.063z M9.871,41.895c1.594,1.395,4.035-0.399,4.782-2.242
	C13.059,37.611,7.33,39.703,9.871,41.895z M39.262,38.956c-1.993,1.843,0.249,3.686,2.242,2.491c0.249-0.249,0.199-0.648-0.1-1.245
	C41.106,39.604,40.408,39.205,39.262,38.956z"/>
</svg>
