<?xml version="1.0" encoding="utf-8"?>
<!-- Generator: Adobe Illustrator 17.0.0, SVG Export Plug-In . SVG Version: 6.00 Build 0)  -->
<!DOCTYPE svg PUBLIC "-//W3C//DTD SVG 1.1//EN" "http://www.w3.org/Graphics/SVG/1.1/DTD/svg11.dtd">
<svg version="1.1" id="Layer_1" xmlns="http://www.w3.org/2000/svg" xmlns:xlink="http://www.w3.org/1999/xlink" x="0px" y="0px"
	 width="48px" height="48px" viewBox="0 0 48 48" enable-background="new 0 0 48 48" xml:space="preserve">
<path d="M31.026,7.68c1.69-2.077,2.85-4.83,2.512-7.68c-2.463,0.145-5.361,1.642-7.1,3.622c-1.546,1.787-2.898,4.685-2.512,7.438
	C26.631,11.254,29.336,9.66,31.026,7.68z M37.064,25.502c0.048,3.622,1.111,6.182,3.236,7.583s3.188,2.125,3.236,2.125
	c-0.048,0.097-0.29,0.821-0.821,2.222c-1.014,2.753-3.429,6.182-5.699,8.646c-2.27,2.463-6.086,2.27-7.921,0.918
	c-0.918-0.628-2.318-0.966-4.154-0.966c-1.835,0-3.236,0.29-4.154,0.918c-1.932,1.256-5.458,1.835-7.921-0.869
	c-2.512-2.656-4.492-5.361-6.182-9.418c-1.69-4.009-2.512-8.501-2.125-12.896c0.386-4.395,2.608-8.211,6.134-10.384
	c3.478-2.125,7.342-2.029,10.095-0.628c1.401,0.724,2.56,1.063,3.526,1.063c0.918,0,2.222-0.435,3.912-1.256
	c1.642-0.821,3.381-1.159,5.265-0.966c1.546,0.048,5.941,0.676,8.791,4.782c-0.145,0.048-1.014,0.821-2.705,2.318
	C37.885,20.189,37.016,22.459,37.064,25.502z"/>
</svg>
