<?xml version="1.0" encoding="utf-8"?>
<!-- Generator: Adobe Illustrator 17.0.0, SVG Export Plug-In . SVG Version: 6.00 Build 0)  -->
<!DOCTYPE svg PUBLIC "-//W3C//DTD SVG 1.1//EN" "http://www.w3.org/Graphics/SVG/1.1/DTD/svg11.dtd">
<svg version="1.1" id="Layer_1" xmlns="http://www.w3.org/2000/svg" xmlns:xlink="http://www.w3.org/1999/xlink" x="0px" y="0px"
	 width="48px" height="48px" viewBox="0 0 48 48" enable-background="new 0 0 48 48" xml:space="preserve">
<path d="M40.456,43.043c0.108,0,0.216-0.216,0.324-0.539c0.108-0.324,0.216-0.432,0.324-0.432l0.108,0.432
	c0.216,0.971,0,1.726-0.755,2.373c-0.755,0.647-1.618,1.187-2.589,1.51c-4.315,1.402-10.356,1.834-18.231,1.51
	c-0.108,0-0.755-0.108-1.942-0.216c-1.187-0.108-1.942-0.108-2.265-0.216c-0.432-0.108-0.971-0.324-1.726-0.647
	s-1.402-0.647-1.942-1.079c8.307,1.079,15.75,0.971,22.547-0.324c0.216-0.108,0.539-0.108,1.079-0.216
	c0.432-0.108,0.755-0.108,1.079-0.216c0.324-0.108,0.647-0.216,1.079-0.324c0.432-0.108,0.755-0.324,1.079-0.432
	s0.647-0.324,0.971-0.539C39.916,43.583,40.132,43.367,40.456,43.043z M28.157,1.618c-0.108-0.216-0.108-0.539-0.216-0.863
	C27.834,0.432,27.834,0.108,27.834,0c1.079,1.402,1.618,2.158,1.726,2.265c0.647,1.726,0.755,3.344,0.216,4.855
	c-0.539,1.51-1.402,2.913-2.589,4.207c-0.432,0.539-0.971,1.079-1.726,1.726c-0.755,0.647-1.51,1.187-2.05,1.618
	c-0.539,0.539-1.079,1.079-1.618,1.834c-0.539,0.755-0.863,1.51-0.971,2.373c-0.108,0.971,0.108,2.05,0.647,3.021
	s1.295,2.05,2.05,3.128c0.755,1.079,1.187,2.05,1.402,2.913c-0.971-0.647-2.373-1.834-3.992-3.56
	c-2.805-2.913-3.884-5.394-3.128-7.444c0.432-0.971,1.079-1.942,1.942-2.805c0.863-0.755,1.942-1.618,3.128-2.589
	c1.187-0.863,2.05-1.618,2.589-2.158c1.187-0.971,2.05-2.265,2.589-3.668S28.589,3.021,28.157,1.618z M36.788,25.999
	c1.295-0.108,2.481,0.324,3.452,1.295c0.971,0.971,1.187,2.05,0.863,3.236c-0.755,2.373-3.128,4.207-7.228,5.394
	c-0.863,0.324-1.295,0.324-1.402,0.216c-0.108-0.108,0.108-0.432,0.755-0.971c0.324-0.108,0.755-0.432,1.402-0.863
	s1.187-0.755,1.51-1.079s0.755-0.647,1.187-1.187c0.432-0.432,0.755-0.863,0.971-1.402c0.432-0.971,0.216-1.834-0.539-2.589
	c-0.755-0.755-1.618-0.863-2.589-0.432c-0.108,0-0.432,0.108-0.971,0.324l-0.755,0.216l0.216-0.216
	C34.199,26.646,35.17,25.999,36.788,25.999z M18.233,26.43c0.216,0,0.755,0.108,1.726,0.324c-0.324,0.216-0.755,0.432-1.295,0.539
	c-0.539,0.216-1.187,0.432-1.726,0.539c-0.539,0.216-1.079,0.432-1.402,0.539c-0.108,0-0.216,0-0.324,0.108
	c-0.539,0.324-0.755,0.432-0.432,0.539c2.158,0.324,6.257,0.324,12.406,0c0.755,0,1.942-0.108,3.668-0.432
	c1.726-0.324,3.021-0.432,3.991-0.324c-0.324,0.216-1.079,0.647-2.265,1.402c-0.539,0.216-1.079,0.432-1.618,0.539
	c-0.539,0.216-1.079,0.324-1.51,0.432c-0.539,0.108-1.079,0.108-1.834,0.216c-0.755,0.108-1.295,0.108-1.618,0.216
	c-6.257,0.539-11.004,0.324-14.348-0.539c-0.432-0.108-0.755-0.324-1.079-0.647s-0.216-0.755,0.108-1.187
	C12.731,27.401,15.212,26.646,18.233,26.43z M13.054,40.131c0.647-0.108,1.618,0.324,2.913,1.187
	c-2.158-0.324-3.991,0.108-5.502,1.079c0.216,0.108,0.971,0.432,2.265,0.755c6.149,0.971,13.053,0.863,20.928-0.108
	c0.216-0.108,0.539-0.108,1.079-0.216c0.432-0.108,0.863-0.108,1.187-0.216c0.324-0.108,0.647-0.216,0.971-0.432
	c0.324-0.108,0.647-0.324,0.863-0.539c0-0.108-0.108-0.324-0.216-0.647c-0.216-0.216-0.324-0.432-0.432-0.539
	c-0.108-0.108-0.108-0.216,0-0.216c0.539,0.108,1.079,0.324,1.618,0.755c0.539,0.432,0.647,0.863,0.324,1.402
	c-0.324,0.432-0.863,0.755-1.402,1.079c-0.539,0.324-1.079,0.432-1.402,0.539c-0.324,0.108-0.971,0.324-1.834,0.539
	c-0.863,0.216-1.402,0.324-1.51,0.324C25.029,46.28,16.722,46.172,8.2,44.554c-0.539,0-0.863-0.216-1.187-0.755
	c-0.324-0.432-0.432-0.863-0.108-1.295C8.308,41.21,10.358,40.454,13.054,40.131z M34.199,10.464h-0.108
	c0.108,0.108,0.324,0.108,0.647,0c0.432,0,0.647,0,0.539,0.108c-0.108,0.108-0.216,0.216-0.324,0.324
	c-0.539,0.324-1.402,0.863-2.589,1.618c-1.187,0.755-2.265,1.51-3.128,2.265c-0.863,0.755-1.51,1.51-1.942,2.373
	c-0.324,0.863-0.108,1.942,0.755,3.236c0.863,1.402,1.295,2.158,1.402,2.373c0.755,2.05-0.324,3.992-3.236,5.718
	c-0.539,0.432-1.079,0.539-1.402,0.432c-0.216-0.108-0.108-0.324,0.432-0.863c0.647-0.539,1.079-1.187,1.187-2.05
	c0.108-0.755-0.108-1.51-0.647-2.158c-0.971-1.079-1.618-2.265-1.942-3.56s-0.216-2.589,0.539-3.884
	C26,13.916,29.236,11.975,34.199,10.464z M16.722,31.716c0.108,0,0.324,0,0.755-0.108c0.324-0.108,0.432-0.216,0.539-0.108
	c0.108,0-0.108,0.108-0.432,0.432c0,0.108,0,0.108-0.108,0.216c-0.108,0.108-0.216,0.108-0.324,0.216
	c-0.432,0.432-0.539,0.755-0.324,0.863c3.776,0.755,8.199,0.647,13.377-0.324c0.539,0.539,1.51,1.079,3.128,1.618
	c-5.394,1.618-10.572,2.158-15.427,1.51c-0.108-0.108-0.324-0.108-0.755-0.216c-0.539-0.108-0.863-0.108-0.971-0.216
	c-0.216-0.108-0.539-0.216-0.863-0.324s-0.647-0.324-0.755-0.539c-0.216-0.108-0.432-0.324-0.539-0.647c0-0.216,0-0.432,0.108-0.647
	c0-0.108,0.108-0.324,0.216-0.432s0.216-0.216,0.324-0.324s0.324-0.216,0.539-0.324c0.216-0.108,0.432-0.108,0.539-0.216
	c0.108-0.108,0.216-0.108,0.539-0.216C16.507,31.824,16.614,31.824,16.722,31.716z M17.801,36.787c0.108,0,0.216,0,0.324,0
	s0.216,0,0.216,0c0.539-0.108,0.647-0.108,0.539,0.108c-0.108,0.108-0.216,0.216-0.432,0.324c-0.324,0.324-0.432,0.432-0.539,0.539
	c2.913,0.755,6.473,0.755,10.68,0c0.324,0.108,0.647,0.216,1.187,0.432c0.432,0.324,0.863,0.539,1.295,0.647
	c0.432,0.216,0.863,0.432,1.187,0.539c-3.776,1.834-7.875,2.373-12.19,1.834c-0.108,0-0.216,0-0.539-0.108
	c-0.324-0.108-0.647-0.108-0.755-0.216c-0.108,0-0.324,0-0.539-0.108c-0.324-0.108-0.539-0.108-0.647-0.216
	c-0.216,0-0.432-0.108-0.647-0.216c-0.216-0.108-0.432-0.216-0.539-0.324c-0.216-0.108-0.432-0.216-0.539-0.432
	c-0.108-0.108-0.324-0.324-0.432-0.432c-0.216-0.647,0-1.187,0.539-1.51C16.507,37.326,17.046,37.002,17.801,36.787z"/>
</svg>
