<?xml version="1.0" encoding="utf-8"?>
<!-- Generator: Adobe Illustrator 17.0.0, SVG Export Plug-In . SVG Version: 6.00 Build 0)  -->
<!DOCTYPE svg PUBLIC "-//W3C//DTD SVG 1.1//EN" "http://www.w3.org/Graphics/SVG/1.1/DTD/svg11.dtd">
<svg version="1.1" id="Layer_1" xmlns="http://www.w3.org/2000/svg" xmlns:xlink="http://www.w3.org/1999/xlink" x="0px" y="0px"
	 width="48px" height="48px" viewBox="0 0 48 48" enable-background="new 0 0 48 48" xml:space="preserve">
<g>
	<path fill="#010101" d="M13.643,30.623c0,3.421-1.419,4.301-3.667,4.301c-2.351,0-3.33-1.613-4.405-3.52L0,34.776
		c1.614,3.416,4.787,6.252,10.267,6.252c6.065,0,10.22-3.226,10.22-10.312V7.35h-6.844V30.623z"/>
	<path fill="#010101" d="M38.902,20.751l-1.711-0.733c-2.936-1.272-4.208-2.103-4.208-4.156c0-1.661,1.271-2.933,3.275-2.933
		c1.965,0,3.231,0.829,4.405,2.933l5.33-3.422c-2.254-3.965-5.383-5.48-9.734-5.48c-6.112,0-10.023,3.908-10.023,9.041
		c0,5.572,3.281,8.208,8.22,10.312l1.711,0.734c3.121,1.365,4.983,2.197,4.983,4.543c0,1.958-1.812,3.376-4.648,3.376
		c-3.376,0-5.285-1.761-6.752-4.156l-5.562,3.231c2.009,3.97,6.116,6.999,12.472,6.999C43.159,41.04,48,37.664,48,31.502
		C48,25.787,44.717,23.244,38.902,20.751z"/>
</g>
</svg>
