<?xml version="1.0" encoding="utf-8"?>
<!-- Generator: Adobe Illustrator 17.0.0, SVG Export Plug-In . SVG Version: 6.00 Build 0)  -->
<!DOCTYPE svg PUBLIC "-//W3C//DTD SVG 1.1//EN" "http://www.w3.org/Graphics/SVG/1.1/DTD/svg11.dtd">
<svg version="1.1" id="Layer_1" xmlns="http://www.w3.org/2000/svg" xmlns:xlink="http://www.w3.org/1999/xlink" x="0px" y="0px"
	 width="48px" height="48px" viewBox="0 0 48 48" enable-background="new 0 0 48 48" xml:space="preserve">
<g>
	<path d="M41.083,18.301c-6.287,0-11.383-5.097-11.383-11.383c0-2.602,0.873-5,2.342-6.917c-2.715,2.08-4.466,5.356-4.466,9.041
		c0,6.287,5.097,11.383,11.383,11.383c3.685,0,6.961-1.751,9.041-4.466C46.083,17.428,43.685,18.301,41.083,18.301z"/>
	<path d="M17.177,12.657c0-4.152,1.393-7.979,3.738-11.039c-4.333,3.32-7.127,8.548-7.127,14.428
		c0,10.033,8.133,18.166,18.166,18.166c5.88,0,11.108-2.794,14.428-7.127c-3.06,2.344-6.887,3.738-11.039,3.738
		C25.31,30.823,17.177,22.69,17.177,12.657z"/>
	<path d="M4.655,18.396c0-5.703,1.913-10.959,5.133-15.161C3.837,7.795,0,14.975,0,23.051C0,36.83,11.17,48,24.949,48
		c8.076,0,15.256-3.837,19.816-9.788c-4.202,3.22-9.458,5.133-15.161,5.133C15.825,43.345,4.655,32.175,4.655,18.396z"/>
</g>
</svg>
