<?xml version="1.0" encoding="utf-8"?>
<!-- Generator: Adobe Illustrator 17.0.0, SVG Export Plug-In . SVG Version: 6.00 Build 0)  -->
<!DOCTYPE svg PUBLIC "-//W3C//DTD SVG 1.1//EN" "http://www.w3.org/Graphics/SVG/1.1/DTD/svg11.dtd">
<svg version="1.1" id="Layer_1" xmlns="http://www.w3.org/2000/svg" xmlns:xlink="http://www.w3.org/1999/xlink" x="0px" y="0px"
	 width="48px" height="48px" viewBox="0 0 48 48" enable-background="new 0 0 48 48" xml:space="preserve">
<g>
	<path d="M30.083,39c0.375,0.542,0.604,0.5,0.896,0.375c0.292-0.125,15.292-5.188,15.75-5.354c0.458-0.167,0.312-0.312,0.167-0.542
		c-0.146-0.229-5.146-7.021-5.396-7.417s-0.375-0.312-0.771-0.188l-15.901,4.138C24.828,30.013,29.708,38.458,30.083,39L30.083,39z"
		/>
	<path d="M48,32.084v-7.95c-1.789,0.477-4.052,1.079-4.945,1.317C44.403,27.254,46.509,30.076,48,32.084L48,32.084z"/>
	<path d="M43.04,15.66c-0.245,0.056-5.671,1.036-6.006,1.081s-0.223,0.234-0.089,0.423l4.775,6.552c0,0,5.838-1.448,6.195-1.527
		c0.029-0.006,0.057-0.013,0.085-0.02v-0.867c-1.061-1.346-3.953-5.01-4.202-5.352C43.497,15.538,43.285,15.605,43.04,15.66
		L43.04,15.66z"/>
	<path d="M8.898,5.369c1.175-0.053,1.282,0.214,1.798,0.98l12.97,21.683l16.307-3.907c-0.903-1.281-5.005-7.096-5.402-7.651
		c-0.446-0.624,0.011-0.914,0.735-1.036c0.724-0.122,6.964-1.17,7.499-1.248c0.535-0.078,0.958-0.267,1.827,0.78
		c0.445,0.536,1.952,2.413,3.367,4.173V9c0-2.479-0.88-4.599-2.641-6.359C43.599,0.88,41.479,0,39,0H9
		C6.521,0,4.401,0.88,2.641,2.641c-1.01,1.01-1.728,2.138-2.159,3.384C3.421,5.784,8.076,5.406,8.898,5.369L8.898,5.369z"/>
	<path d="M31.554,41.918c-1.375,0.417-1.992,0.623-2.887-0.627c-0.671-0.936-4.299-7.471-6.078-10.692
		c-3.367,0.882-9.528,2.49-11.304,2.917c-1.734,0.417-2.475-0.623-2.76-1.264C8.326,31.803,3.242,20.842,0,13.809V39
		c0,2.479,0.88,4.599,2.641,6.359C4.401,47.12,6.521,48,9,48h30c2.479,0,4.599-0.88,6.359-2.641C47.12,43.599,48,41.479,48,39
		v-2.959C44.317,37.388,32.481,41.638,31.554,41.918L31.554,41.918z"/>
	<path d="M11.327,30.991c0.487-0.111,9.621-2.297,9.816-2.339c0.195-0.042,0.32-0.153,0.111-0.515
		C21.046,27.775,9.08,7.12,9.08,7.12c-0.111-0.19-0.079-0.253-0.379-0.237C8.433,6.898,1.662,7.502,0.095,7.633
		c-0.046,0.326-0.074,0.66-0.086,1C1.6,11.89,10.733,30.726,10.784,30.88C10.84,31.047,10.84,31.103,11.327,30.991L11.327,30.991z"
		/>
</g>
</svg>
