<?xml version="1.0" encoding="utf-8"?>
<!-- Generator: Adobe Illustrator 17.0.0, SVG Export Plug-In . SVG Version: 6.00 Build 0)  -->
<!DOCTYPE svg PUBLIC "-//W3C//DTD SVG 1.1//EN" "http://www.w3.org/Graphics/SVG/1.1/DTD/svg11.dtd">
<svg version="1.1" id="Layer_1" xmlns="http://www.w3.org/2000/svg" xmlns:xlink="http://www.w3.org/1999/xlink" x="0px" y="0px"
	 width="48px" height="48px" viewBox="0 0 48 48" enable-background="new 0 0 48 48" xml:space="preserve">
<path d="M24.676,29.445c0-4.639,0-9.277-0.101-14.017c-0.101-4.639-0.202-9.277-0.202-13.916V0c-1.21,0-2.42,0-3.731,0
	s-2.521,0-3.832,0.101c-1.109,0-1.916,0.101-3.025,0.202C9.853,0.807,8.038,2.622,7.332,6.555C7.231,7.16,7.13,7.765,7.13,8.269
	c0,0.605,0,1.21,0,1.815c0,1.109,0,2.118,0,3.227c0,2.218,0.202,4.941-1.109,6.857c-0.706,0.908-1.714,1.513-3.126,1.613
	c0,0,0.101,0,0.202,0c0.101,0.101-0.101,0.101-0.504,0.101v4.336c3.227,0.504,4.336,1.714,4.437,4.84
	c0.101,0.202,0.101,0.403,0.101,0.605c0,0.303,0,0.504,0,0.807c0,1.311,0,2.723,0,4.034c0,2.723,0,5.345,0.807,7.462
	c0.706,2.118,3.227,3.328,5.95,3.63c1.311,0.202,2.42,0.303,3.227,0.303v-4.538c0,0,0,0-0.101-0.101c-0.101,0-0.101,0-0.202,0
	c-3.529-0.303-4.336-1.109-4.336-4.639c0-1.21,0-2.42,0.101-3.529c0-2.319,0.101-5.042-0.605-7.664
	c-0.403-1.311-1.21-2.42-2.521-3.328c-0.101,0-0.101,0,0-0.101c0-0.101,0-0.101,0-0.202c1.714-1.109,2.622-2.824,2.924-4.941
	c0.101-1.109,0.202-2.319,0.202-3.429c0-1.21,0-2.42,0-3.63c0-2.42-0.101-4.538,0.807-5.748c0.908-1.109,2.42-1.21,3.529-1.311
	c0.504,0,1.412,0,2.622-0.101v1.714c0,4.134,0,8.269-0.101,12.403c-0.101,4.134-0.202,8.37-0.202,12.504
	c0.101,2.824,0.303,5.647,3.429,6.857c0.807,0.303,1.714,0.605,2.622,0.706c0.908,0.202,0.815,0.403,1.723,0.605
	c0.101-0.908,0.303-1.714,0.403-2.521c0.101-0.807,0.202-1.613,0.303-2.42C24.181,33.58,24.676,32.975,24.676,29.445z
	 M41.576,19.664c-0.403-1.109-0.706-2.319-0.706-3.429c-0.101-1.513-0.101-2.924-0.101-4.336c0-2.824,0.101-5.748-0.908-7.966
	s-3.731-3.328-6.151-3.63c-1.21-0.101-2.42-0.202-3.63-0.202v4.538c0.403,0,0.605,0,0.706,0c0,0.101,0,0.101,0.101,0.101
	c3.227,0.101,4.336,1.21,4.336,4.437c0.101,1.109,0.101,2.319,0.101,3.529s0,2.42,0,3.63c0,2.824,0.403,5.748,3.126,7.462
	c0,0.101,0,0.101,0.101,0.101c0,0.101,0,0.101,0,0.202c-1.311,0.908-2.42,2.218-2.723,3.933c-0.101,0.706-0.202,1.311-0.303,2.017
	c-0.101,0.706-0.101,1.412-0.202,2.118c0,1.311,0,2.521,0,3.731c0,2.521,0.101,5.042-0.807,6.05
	c-0.504,0.504-1.21,0.908-2.118,1.109c-0.403,0.101-0.807,0.101-1.109,0.101c-0.403,0.101-0.807,0.101-1.21,0.202V48
	c0.807-0.101,1.513-0.101,2.017-0.202c0.504,0,1.008,0,1.513-0.101c4.134-0.403,6.555-2.622,6.958-6.655
	c0.101-1.21,0.202-2.622,0.202-3.832c0-2.42,0.101-4.84,0.202-7.16c0.303-2.42,2.017-3.731,4.437-3.63v-4.84
	C43.794,21.882,42.382,21.176,41.576,19.664z"/>
</svg>
