<?xml version="1.0" encoding="utf-8"?>
<!-- Generator: Adobe Illustrator 17.0.0, SVG Export Plug-In . SVG Version: 6.00 Build 0)  -->
<!DOCTYPE svg PUBLIC "-//W3C//DTD SVG 1.1//EN" "http://www.w3.org/Graphics/SVG/1.1/DTD/svg11.dtd">
<svg version="1.1" id="Layer_1" xmlns="http://www.w3.org/2000/svg" xmlns:xlink="http://www.w3.org/1999/xlink" x="0px" y="0px"
	 width="48px" height="48px" viewBox="0 0 48 48" enable-background="new 0 0 48 48" xml:space="preserve">
<g>
	<path d="M40.763,7.601c0,0-19.144,0-24.701,0c-5.463,0-8.348,4.42-8.348,8.083c0,3.757,0.094,14.877,0.094,14.877
		c0,3.384,4.936,3.436,4.936,0V15.964c-0.047-1.786,1.039-3.219,3.469-3.219h24.662c3.345,0,3.244,5.036,0,5.036
		c-4.37,0.05-7.588,3.382-7.588,6.438l-0.094,8.8c0,3.404,4.936,3.243,4.936-0.188l0.067-6.798c0-2.026,0.917-3.242,3.084-3.242
		c2.918,0,6.703-2.966,6.72-7.901C48.046,11.317,45.556,7.648,40.763,7.601z"/>
	<path d="M30.284,15.263l-7.752,0.094c-3.812,0-7.277,3.217-7.237,7.376c0.04,4.159,2.896,7.768,7.387,7.768
		c3.494,0,3.417,5.009,0.033,5.009H8.468c-1.928,0-3.38-1.05-3.38-3.406L4.994,15.451c0-3.734-4.952-3.676-4.952-0.04L0,32.678
		c0.257,4.855,3.711,7.627,7.476,7.721l16.041-0.154c3.814,0,6.904-3.17,6.904-7.353c0-3.903-2.562-7.22-7.404-7.353
		c-3.525,0-3.478-5.037,0-5.037h7.266C33.589,20.501,33.506,15.263,30.284,15.263z"/>
</g>
</svg>
