<?xml version="1.0" encoding="utf-8"?>
<!-- Generator: Adobe Illustrator 17.0.0, SVG Export Plug-In . SVG Version: 6.00 Build 0)  -->
<!DOCTYPE svg PUBLIC "-//W3C//DTD SVG 1.1//EN" "http://www.w3.org/Graphics/SVG/1.1/DTD/svg11.dtd">
<svg version="1.1" id="Layer_1" xmlns="http://www.w3.org/2000/svg" xmlns:xlink="http://www.w3.org/1999/xlink" x="0px" y="0px"
	 width="48px" height="48px" viewBox="0 0 48 48" enable-background="new 0 0 48 48" xml:space="preserve">
<g>
	<g>
		<path d="M0,0.468L41.107,44.01c0,0,1.4,0.988,2.471-0.165c1.071-1.152,0.247-2.305,0.247-2.305L0,0.468L0,0.468z"/>
		<path d="M13.016,4.583L44.32,38.331c0,0,1.4,0.988,2.471-0.165s0.247-2.305,0.247-2.305L13.016,4.583L13.016,4.583z"/>
		<path d="M3.872,13.391l31.304,33.747c0,0,1.4,0.988,2.471-0.165c1.071-1.152,0.247-2.305,0.247-2.305L3.872,13.391L3.872,13.391z"
			/>
		<path d="M24.019,8.123L45.889,31.7c0,0,0.978,0.69,1.727-0.115c0.748-0.805,0.173-1.61,0.173-1.61L24.019,8.123L24.019,8.123z"/>
		<path d="M6.884,23.597l21.87,23.577c0,0,0.978,0.69,1.727-0.115c0.748-0.805,0.173-1.61,0.173-1.61L6.884,23.597L6.884,23.597z"/>
		<path d="M35.258,13.226l9.912,10.718c0,0,0.484,0.323,0.854-0.054c0.37-0.377,0.085-0.754,0.085-0.754L35.258,13.226
			L35.258,13.226z"/>
		<path d="M12.357,34.462l9.912,10.718c0,0,0.484,0.323,0.854-0.054c0.37-0.377,0.085-0.754,0.085-0.754L12.357,34.462
			L12.357,34.462z"/>
	</g>
</g>
</svg>
