<?xml version="1.0" encoding="utf-8"?>
<!-- Generator: Adobe Illustrator 17.0.0, SVG Export Plug-In . SVG Version: 6.00 Build 0)  -->
<!DOCTYPE svg PUBLIC "-//W3C//DTD SVG 1.1//EN" "http://www.w3.org/Graphics/SVG/1.1/DTD/svg11.dtd">
<svg version="1.1" id="Layer_1" xmlns="http://www.w3.org/2000/svg" xmlns:xlink="http://www.w3.org/1999/xlink" x="0px" y="0px"
	 width="48px" height="48px" viewBox="0 0 48 48" enable-background="new 0 0 48 48" xml:space="preserve">
<g>
	<path d="M23.973,38.973c0.032-0.017,0.053-0.028,0.053-0.028c0-0.006-0.001-0.012-0.001-0.018
		C24.007,38.943,23.991,38.957,23.973,38.973z"/>
	<g>
		<path d="M34.759,18.376C32.324,7.644,24.586,0.127,24.586,0.127v0.016c2.962,12.568,0.6,41.141,0.6,41.141
			S37.291,33.147,34.759,18.376z"/>
		<path d="M23.102,0.143V0.127l0.002,0.002C23.087,0.08,23.069,0.031,23.055,0c-0.072,0.947-9.559,9.362-10.14,21.554
			c-0.584,12.192,10.788,19.73,10.788,19.73S26.064,12.712,23.102,0.143z"/>
	</g>
	<path d="M24.598,42.768c0,0-0.737-0.491-1.823-1.417c0,0-0.003-0.001-0.003-0.001c1.706,2.471,0.896,6.65,0.896,6.65h1.6
		c0,0-0.291-3.465,0.062-5.051c0.107-0.48,0.779-1.285,1.069-1.639l0,0C25.333,42.273,24.598,42.768,24.598,42.768z"/>
</g>
</svg>
