<?xml version="1.0" encoding="utf-8"?>
<!-- Generator: Adobe Illustrator 17.0.0, SVG Export Plug-In . SVG Version: 6.00 Build 0)  -->
<!DOCTYPE svg PUBLIC "-//W3C//DTD SVG 1.1//EN" "http://www.w3.org/Graphics/SVG/1.1/DTD/svg11.dtd">
<svg version="1.1" id="Layer_1" xmlns="http://www.w3.org/2000/svg" xmlns:xlink="http://www.w3.org/1999/xlink" x="0px" y="0px"
	 width="48px" height="48px" viewBox="0 0 48 48" enable-background="new 0 0 48 48" xml:space="preserve">
<g>
	<path d="M0,33.523c0-1.797,0.128-3.414,0.376-4.851s0.71-2.644,1.395-3.619c0.702-0.993,1.643-1.741,2.815-2.246
		s2.721-0.757,4.655-0.757c1.027,0,2.139,0.064,3.328,0.193c1.189,0.128,2.25,0.193,3.191,0.193c1.232,0,2.259-0.18,3.072-0.539
		c0.813-0.359,1.463-0.89,1.959-1.591c0.496-0.684,0.856-1.532,1.078-2.541c0.222-1.01,0.376-2.105,0.462-3.286h3.311
		c0.103,1.198,0.282,2.314,0.53,3.35s0.599,1.87,1.061,2.503c0.53,0.736,1.206,1.271,2.019,1.604
		c0.813,0.334,1.797,0.501,2.96,0.501c0.975,0,2.053-0.064,3.234-0.193c1.181-0.128,2.284-0.193,3.311-0.193
		c1.78,0,3.277,0.252,4.492,0.757c1.215,0.505,2.182,1.253,2.901,2.246c0.702,0.975,1.189,2.19,1.455,3.645
		C47.872,30.152,48,31.76,48,33.523h-2.105c-0.034-0.68-0.12-1.476-0.265-2.379s-0.368-1.617-0.659-2.148
		c-0.342-0.612-0.881-1.112-1.626-1.497c-0.744-0.381-1.754-0.573-3.02-0.573h-6.006c-1.797,0-3.286-0.214-4.466-0.642
		c-1.181-0.432-2.139-1.065-2.875-1.904c-0.684-0.774-1.224-1.69-1.626-2.755c-0.402-1.061-0.727-2.246-0.967-3.547h-0.796
		c-0.24,1.232-0.556,2.396-0.95,3.482c-0.394,1.091-0.941,2.028-1.643,2.819c-0.719,0.804-1.668,1.429-2.849,1.878
		c-1.181,0.445-2.678,0.667-4.492,0.667H7.675c-1.215,0-2.199,0.18-2.952,0.539c-0.753,0.355-1.326,0.868-1.72,1.532
		c-0.359,0.633-0.599,1.369-0.719,2.212c-0.12,0.843-0.197,1.617-0.231,2.314H0z"/>
</g>
</svg>
