<?xml version="1.0" encoding="utf-8"?>
<!-- Generator: Adobe Illustrator 17.0.0, SVG Export Plug-In . SVG Version: 6.00 Build 0)  -->
<!DOCTYPE svg PUBLIC "-//W3C//DTD SVG 1.1//EN" "http://www.w3.org/Graphics/SVG/1.1/DTD/svg11.dtd">
<svg version="1.1" id="Layer_1" xmlns="http://www.w3.org/2000/svg" xmlns:xlink="http://www.w3.org/1999/xlink" x="0px" y="0px"
	 width="48px" height="48px" viewBox="0 0 48 48" enable-background="new 0 0 48 48" xml:space="preserve">
<g transform="translate(241.59, -4.64258)">
	<path d="M-197.387,41.542c-2.618-0.071-4.618,0.172-6.328,0.894c-0.486,0.205-1.261,0.21-1.34,0.819
		c0.267,0.28,0.308,0.698,0.521,1.042c0.408,0.661,1.098,1.546,1.712,2.01c0.672,0.507,1.365,1.05,2.085,1.489
		c1.281,0.781,2.712,1.228,3.946,2.01c0.727,0.461,1.449,1.042,2.159,1.563c0.351,0.257,0.586,0.658,1.042,0.819
		c0-0.025,0-0.049,0-0.074c-0.239-0.305-0.301-0.724-0.521-1.042c-0.322-0.322-0.645-0.645-0.968-0.968
		c-0.946-1.256-2.148-2.359-3.425-3.276c-1.018-0.731-3.298-1.718-3.723-2.904c-0.025-0.025-0.049-0.05-0.075-0.075
		c0.722-0.081,1.568-0.343,2.234-0.521c1.119-0.3,2.12-0.223,3.276-0.521c0.521-0.149,1.042-0.298,1.564-0.447
		c0-0.1,0-0.198,0-0.298c-0.584-0.6-1.001-1.393-1.638-1.936c-1.667-1.42-3.487-2.838-5.36-4.021
		c-1.039-0.656-2.323-1.082-3.425-1.638c-0.37-0.187-1.021-0.284-1.266-0.596c-0.578-0.738-0.894-1.672-1.34-2.531
		c-0.935-1.8-1.852-3.765-2.68-5.658c-0.565-1.291-0.934-2.564-1.638-3.723c-3.381-5.558-7.019-8.913-12.656-12.21
		c-1.199-0.701-2.644-0.978-4.17-1.34c-0.819-0.05-1.638-0.099-2.457-0.149c-0.5-0.209-1.02-0.82-1.489-1.117
		c-1.867-1.18-6.657-3.746-8.04-0.372c-0.873,2.129,1.305,4.207,2.084,5.286c0.547,0.757,1.247,1.606,1.638,2.457
		c0.257,0.559,0.301,1.12,0.521,1.713c0.541,1.458,1.012,3.045,1.712,4.393c0.354,0.682,0.744,1.4,1.191,2.01
		c0.274,0.374,0.744,0.539,0.819,1.117c-0.46,0.643-0.486,1.642-0.744,2.457c-1.164,3.669-0.725,8.229,0.968,10.945
		c0.519,0.834,1.743,2.621,3.425,1.936c1.471-0.599,1.143-2.456,1.564-4.095c0.095-0.372,0.037-0.645,0.223-0.893
		c0,0.025,0,0.05,0,0.074c0.447,0.893,0.894,1.787,1.34,2.68c0.992,1.597,2.752,3.267,4.244,4.393
		c0.773,0.584,1.382,1.594,2.382,1.936c0-0.025,0-0.049,0-0.075c-0.025,0-0.05,0-0.075,0c-0.194-0.302-0.497-0.427-0.744-0.67
		c-0.583-0.571-1.231-1.281-1.712-1.936c-1.357-1.842-2.556-3.858-3.648-5.956c-0.522-1.002-0.975-2.107-1.415-3.127
		c-0.169-0.393-0.168-0.988-0.521-1.191c-0.482,0.747-1.191,1.351-1.564,2.234c-0.596,1.41-0.673,3.13-0.893,4.914
		c-0.131,0.047-0.073,0.015-0.149,0.074c-1.037-0.25-1.401-1.318-1.786-2.233c-0.975-2.316-1.156-6.045-0.298-8.711
		c0.222-0.69,1.225-2.862,0.819-3.499c-0.194-0.636-0.833-1.003-1.191-1.489c-0.443-0.601-0.885-1.391-1.191-2.085
		c-0.798-1.806-1.17-3.833-2.01-5.658c-0.401-0.873-1.08-1.756-1.638-2.531c-0.617-0.859-1.309-1.492-1.787-2.532
		c-0.17-0.369-0.401-0.96-0.149-1.34c0.08-0.256,0.193-0.363,0.447-0.447c0.432-0.333,1.635,0.111,2.084,0.298
		c1.194,0.496,2.19,0.968,3.202,1.638c0.486,0.322,0.976,0.945,1.563,1.117c0.223,0,0.447,0,0.67,0
		c1.048,0.241,2.222,0.075,3.201,0.372c1.731,0.526,3.282,1.344,4.69,2.234c4.291,2.71,7.8,6.567,10.2,11.168
		c0.386,0.741,0.553,1.448,0.893,2.234c0.686,1.585,1.551,3.215,2.233,4.765c0.681,1.546,1.345,3.106,2.308,4.393
		c0.506,0.676,2.462,1.039,3.35,1.415c0.623,0.263,1.643,0.538,2.234,0.893c1.127,0.68,2.219,1.489,3.276,2.234
		C-199.092,40.053-197.468,40.869-197.387,41.542z"/>
</g>
</svg>
