<?xml version="1.0" encoding="utf-8"?>
<!-- Generator: Adobe Illustrator 17.0.0, SVG Export Plug-In . SVG Version: 6.00 Build 0)  -->
<!DOCTYPE svg PUBLIC "-//W3C//DTD SVG 1.1//EN" "http://www.w3.org/Graphics/SVG/1.1/DTD/svg11.dtd">
<svg version="1.1" id="Layer_1" xmlns="http://www.w3.org/2000/svg" xmlns:xlink="http://www.w3.org/1999/xlink" x="0px" y="0px"
	 width="48px" height="48px" viewBox="0 0 48 48" enable-background="new 0 0 48 48" xml:space="preserve">
<path d="M30.942,29.495c0.191-0.43,0.382-0.956,0.526-1.386c0.43-1.386,0.908-2.724,1.338-4.109c0.43-1.338,0.86-2.676,1.29-4.061
	c0.334-1.003,0.717-2.055,1.338-2.963c1.003-1.386,2.437-2.15,4.157-2.389c0.621-0.143,1.386-0.191,2.007-0.191
	c1.003,0,2.055,0,3.058,0c1.003,0,2.007,0,3.01,0c0.048,0,0.096,0,0.143,0c0.048,0.048,0.143,0.048,0.191,0.048
	c-0.048,0.048-0.048,0.096-0.048,0.143c-0.048,0.048-0.048,0.048-0.048,0.096c-0.382,0.669-0.765,1.338-1.099,2.007
	c-0.382,0.669-0.765,1.338-1.147,2.007c-0.669,1.147-1.338,2.294-2.007,3.44c-0.717,1.147-1.386,2.294-2.055,3.44
	c-0.908,1.481-1.864,2.867-2.963,4.205c-0.812,0.956-1.625,1.864-2.724,2.58c-0.765,0.43-1.529,0.765-2.437,0.717
	c-1.577,0-3.154,0-4.73,0s-3.154,0-4.73,0c-0.956,0-1.72-0.382-2.437-1.003c-0.956-0.908-1.529-2.055-2.055-3.249
	c-0.43-1.099-0.812-2.246-1.051-3.44c-0.287-1.147-0.573-2.294-0.86-3.488c-0.239-1.099-0.526-2.102-0.86-3.201
	c0-0.048-0.048-0.191-0.096-0.239l-0.191,0.191c-1.29,1.195-2.341,2.628-3.297,4.014c-0.334,0.382-0.382,0.86-0.526,1.386
	c-0.526,1.72-1.051,3.44-1.625,5.113c-0.573,1.672-1.577,2.915-3.154,3.679c-0.956,0.43-1.959,0.669-2.963,0.717
	c-0.717,0-1.481,0-2.246,0c-0.765,0.048-1.529,0.048-2.294,0.048c-0.382,0-0.43-0.048-0.287-0.382
	c0.621-2.437,1.481-4.778,2.485-7.072c1.099-2.341,2.341-4.587,3.918-6.642c1.099-1.386,2.294-2.724,3.775-3.679
	c0.765-0.526,1.577-0.86,2.485-1.003c0.048,0,0.143,0,0.239,0c0.048,0,0.143,0,0.191,0c1.625,0,3.249,0,4.874,0
	c1.625,0,3.249,0,4.874-0.048c1.72,0,3.01,0.765,3.918,2.15c0.621,0.812,1.003,1.816,1.386,2.771
	c0.334,1.003,0.669,2.007,0.908,3.01c0.478,2.055,0.86,3.679,1.195,4.826c0.143,0.573,0.287,1.147,0.43,1.72
	c0.048,0.143,0.096,0.143,0.096,0.287L30.942,29.495z"/>
</svg>
