<?xml version="1.0" encoding="utf-8"?>
<!-- Generator: Adobe Illustrator 17.0.0, SVG Export Plug-In . SVG Version: 6.00 Build 0)  -->
<!DOCTYPE svg PUBLIC "-//W3C//DTD SVG 1.1//EN" "http://www.w3.org/Graphics/SVG/1.1/DTD/svg11.dtd">
<svg version="1.1" id="Layer_1" xmlns="http://www.w3.org/2000/svg" xmlns:xlink="http://www.w3.org/1999/xlink" x="0px" y="0px"
	 width="48px" height="48px" viewBox="0 0 48 48" enable-background="new 0 0 48 48" xml:space="preserve">
<g>
	<path d="M43.436,10.636L25.848,0.472c-1.104-0.63-2.584-0.63-3.697,0L4.561,10.636c-1.139,0.656-1.845,1.887-1.845,3.206v20.299
		c0,1.319,0.706,2.55,1.845,3.209l4.613,2.655c2.235,1.101,3.035,1.101,4.052,1.101c3.308,0,5.208-2.001,5.208-5.49V15.575
		c0-0.283-0.231-0.507-0.51-0.507h-2.231c-0.283,0-0.511,0.223-0.511,0.507v20.042c0,1.547-1.601,3.086-4.215,1.779l-4.819-2.784
		c-0.169-0.092-0.277-0.276-0.277-0.47V13.842c0-0.193,0.108-0.384,0.279-0.482L23.728,3.214c0.164-0.095,0.38-0.095,0.542,0
		l17.583,10.144c0.168,0.101,0.273,0.286,0.273,0.485v20.299c0,0.194-0.105,0.383-0.269,0.476l-17.59,10.153
		c-0.15,0.091-0.381,0.091-0.545,0l-4.512-2.679c-0.134-0.079-0.307-0.107-0.437-0.034c-1.249,0.708-1.485,0.802-2.655,1.208
		c-0.289,0.101-0.717,0.275,0.159,0.765l5.873,3.475C22.713,47.832,23.353,48,23.996,48c0.652,0,1.29-0.168,1.852-0.494
		l17.589-10.155c1.139-0.663,1.848-1.89,1.848-3.209V13.842C45.284,12.524,44.575,11.295,43.436,10.636z"/>
	<path d="M29.429,30.926c-4.655,0-5.679-1.169-6.022-3.484c-0.04-0.248-0.251-0.431-0.505-0.431h-2.274
		c-0.282,0-0.508,0.225-0.508,0.507c0,2.963,1.613,6.497,9.31,6.497c5.574,0,8.769-2.195,8.769-6.028
		c0-3.799-2.568-4.811-7.973-5.526c-5.463-0.723-6.018-1.095-6.018-2.375c0-1.056,0.47-2.465,4.516-2.465
		c3.614,0,4.945,0.778,5.493,3.215c0.048,0.229,0.257,0.397,0.494,0.397h2.283c0.142,0,0.276-0.061,0.372-0.162
		c0.096-0.108,0.147-0.247,0.134-0.391c-0.353-4.196-3.142-6.152-8.777-6.152c-5.016,0-8.007,2.116-8.007,5.666
		c0,3.85,2.977,4.914,7.79,5.39c5.759,0.564,6.206,1.405,6.206,2.539C34.712,30.087,33.135,30.926,29.429,30.926z"/>
</g>
</svg>
