<?xml version="1.0" encoding="utf-8"?>
<!-- Generator: Adobe Illustrator 17.0.0, SVG Export Plug-In . SVG Version: 6.00 Build 0)  -->
<!DOCTYPE svg PUBLIC "-//W3C//DTD SVG 1.1//EN" "http://www.w3.org/Graphics/SVG/1.1/DTD/svg11.dtd">
<svg version="1.1" id="Layer_1" xmlns="http://www.w3.org/2000/svg" xmlns:xlink="http://www.w3.org/1999/xlink" x="0px" y="0px"
	 width="48px" height="48px" viewBox="0 0 48 48" enable-background="new 0 0 48 48" xml:space="preserve">
<path d="M24,0C14.831,0,7.398,3.071,7.398,6.86c0,3.056,0,31.019,0,34.28C7.398,44.929,14.831,48,24,48s16.602-3.071,16.602-6.86
	c0-3.789,0-31.532,0-34.28C40.602,3.071,33.169,0,24,0z M20.97,23.093h-1.379c-0.251,0-0.447,0.024-0.588,0.118
	c-0.141,0.094-0.247,0.2-0.317,0.341c-0.071,0.141-0.099,0.292-0.123,0.465c-0.024,0.173-0.017,0.332-0.017,0.488v3.95
	c0,0.439-0.112,0.796-0.3,1.07c-0.188,0.274-0.425,0.49-0.691,0.647c-0.267,0.157-0.595,0.267-0.884,0.329
	c-0.29,0.063-0.548,0.102-0.79,0.118v0.047c0.242,0.016,0.496,0.047,0.786,0.094c0.29,0.047,0.591,0.153,0.857,0.317
	c0.266,0.165,0.523,0.4,0.711,0.705c0.188,0.306,0.312,0.725,0.312,1.258v3.738c0,0.109-0.007,0.251,0.017,0.423
	c0.024,0.172,0.061,0.329,0.132,0.47c0.071,0.141,0.172,0.236,0.313,0.33c0.141,0.094,0.332,0.118,0.583,0.118h1.379v2.908h-2.884
	c-1.144,0-1.964-0.217-2.567-0.749c-0.604-0.533-0.851-1.29-0.851-2.372v-4.115c0-0.36-0.113-0.643-0.231-0.846
	c-0.118-0.204-0.286-0.36-0.45-0.47c-0.165-0.109-0.381-0.18-0.561-0.212c-0.18-0.031-0.212-0.047-0.455-0.047v-3.151
	c0.242,0,0.261-0.012,0.441-0.035c0.18-0.023,0.368-0.082,0.532-0.176c0.165-0.094,0.367-0.231,0.485-0.411
	c0.118-0.18,0.238-0.427,0.238-0.741v-4.397c0-1.082,0.247-1.839,0.851-2.372c0.603-0.533,1.423-0.749,2.567-0.749h2.884V23.093z
	 M35.028,32.217c-0.242,0-0.332,0.016-0.512,0.047c-0.18,0.032-0.368,0.094-0.532,0.188c-0.165,0.094-0.332,0.231-0.45,0.411
	c-0.118,0.18-0.203,0.42-0.203,0.717v4.326c0,1.082-0.283,1.839-0.886,2.372c-0.604,0.533-1.459,0.749-2.603,0.749H27.03V38.12
	h1.308c0.251,0,0.447-0.024,0.588-0.118c0.141-0.094,0.247-0.2,0.317-0.341c0.071-0.141,0.135-0.292,0.158-0.464
	c0.024-0.173,0.052-0.308,0.052-0.418v-3.95c0-0.439,0.077-0.795,0.265-1.07c0.188-0.274,0.407-0.49,0.673-0.647
	c0.266-0.156,0.499-0.266,0.79-0.329c0.29-0.062,0.453-0.102,0.696-0.118v-0.047c-0.242-0.015-0.41-0.047-0.7-0.094
	c-0.29-0.047-0.548-0.153-0.814-0.317c-0.267-0.165-0.467-0.4-0.655-0.705c-0.188-0.306-0.255-0.725-0.255-1.258v-3.739
	c0-0.156-0.029-0.321-0.052-0.494c-0.024-0.172-0.079-0.329-0.15-0.47c-0.071-0.141-0.181-0.236-0.322-0.33
	c-0.141-0.094-0.341-0.118-0.592-0.118H27.03v-2.908h2.813c1.144,0,1.999,0.217,2.603,0.749c0.603,0.533,0.886,1.29,0.886,2.372
	v4.185c0,0.345,0.078,0.623,0.195,0.835c0.118,0.212,0.268,0.373,0.433,0.482c0.165,0.11,0.371,0.18,0.552,0.212
	c0.18,0.032,0.274,0.047,0.517,0.047V32.217z M24,13.487c-7.563,0-13.694-2.533-13.694-5.658c0-3.125,6.131-5.658,13.694-5.658
	s13.694,2.533,13.694,5.658C37.694,10.954,31.563,13.487,24,13.487z"/>
</svg>
