<?xml version="1.0" encoding="utf-8"?>
<!-- Generator: Adobe Illustrator 17.0.0, SVG Export Plug-In . SVG Version: 6.00 Build 0)  -->
<!DOCTYPE svg PUBLIC "-//W3C//DTD SVG 1.1//EN" "http://www.w3.org/Graphics/SVG/1.1/DTD/svg11.dtd">
<svg version="1.1" id="Layer_1" xmlns="http://www.w3.org/2000/svg" xmlns:xlink="http://www.w3.org/1999/xlink" x="0px" y="0px"
	 width="48px" height="48px" viewBox="0 0 48 48" enable-background="new 0 0 48 48" xml:space="preserve">
<path d="M30.629,27.05c-0.2,0.1-0.4,0.5-0.6,1.2c-0.3,0.9-0.5,1.4-0.7,1.7c-0.5,0.6-0.8,1.2-0.9,1.8c-0.1,0.7-0.5,1.2-1,1.7
	c-0.3,0.3-0.7,0.7-1.1,1c-0.5,0.4-0.7,0.8-0.7,1.2c0,0.3,0.2,0.8,0.6,1.4c0.3,0.5,0.7,0.9,1,1.2c0.5,0.5,1,0.8,1.6,1.1
	c0.3,0.1,0.5,0.1,0.8,0c0.3-0.1,0.5-0.3,0.7-0.8c0.1-0.2,0.3-0.5,0.6-1c0.7-0.9,1-1.9,1.1-2.8c0-0.7,0-1.1,0.1-1.3
	c0.1-0.5,0-1.4-0.3-2.8c0-0.3-0.1-0.9-0.2-1.9c-0.1-1-0.3-1.6-0.5-1.7c-0.1-0.1-0.1-0.1-0.2-0.1
	C30.829,26.95,30.729,26.95,30.629,27.05z M32.029,1.747c1.1,0,2.1,0.2,3,0.5c0.6,0.2,1.4,0.8,2.5,1.9c0.3,0.3,0.9,1.5,1.8,3.601
	c0.3,0.9,0.8,1.7,1.4,2.3c0.5,0.5,1,1,1.4,1.7c1.2,2.6,2.7,4.801,4.401,6.701c0.9,0.8,1.3,1.8,1.3,2.9c0.3,2,0.2,3.901-0.3,5.801
	c-0.1,0.1-0.3,0.5-0.8,1.1c-0.5,0.7-0.9,1-1,1.1c-0.1,0.1-0.3,0.1-0.4,0.1c-0.3-0.1-0.4-0.3-0.5-0.6c-0.1-0.3,0-0.7,0.4-1.3
	c0.7-1,0.9-2,0.7-3.1c0-0.3,0-0.7,0-1.2c-0.1-0.5-0.1-0.9-0.2-1.2c-0.2-0.9-0.5-1.3-0.8-1.3c-0.3,0-0.7,0.7-1.1,2.1l-0.3,2.8
	c0,2.5,0.1,4.101,0.2,4.601c0.1,0.2,0.1,0.6,0.1,1.2c0,0.7,0,1.2-0.1,1.5c-0.1,0.5-0.1,0.9,0.2,1.4c0.3,0.5,0.4,1.1,0.3,1.7
	c0,0.5-0.1,0.9-0.3,1.4c-0.3,0.5-0.4,1.1-0.5,1.8c0,0.6,0,1-0.1,1.3c-0.2,0.7-0.1,1.5,0.3,2.5c0.4,1.1,0.5,1.7,0.4,1.8
	c0,0.1,0,0.4,0.1,0.7c0,0.3,0,0.6,0,0.7c-1.1-0.1-2.3-0.3-3.401-0.5c0,0,0,0,0-0.1c0.3-0.5,0.4-1,0.5-1.4c0.1-0.5,0.3-1.3,0.7-2.4
	c0.3-0.6,0.4-1.1,0.4-1.5c0.1-1.3,0-2.2-0.1-2.9c-0.2-0.5-0.3-1.3-0.3-2.4c0-0.8,0-1.3,0-1.6c-0.1-0.6-0.5-1.4-1-2.3
	c-0.5-0.7-0.8-1.4-0.9-1.9c-0.1-0.1-0.2-0.6-0.5-1.3s-0.5-1.2-0.6-1.6c-0.1-1.1-0.5-1.6-1-1.6c-0.3,0-0.6,0.4-1,1.1
	c-0.9,1.3-1.4,2.6-1.5,3.701c-0.2,1.1-0.3,2.3-0.3,3.501v1.6l-0.1,0.3c-0.1,0.2-0.4,0.5-0.7,0.8c-0.3,0.3-0.6,0.5-0.7,0.8
	c-0.3,0.5-0.7,1.1-1.1,1.6c-0.7,0.7-1.1,1.3-1.2,1.8c-0.1,0.3,0,0.7,0.2,1c0.1,0.1,0.3,0.2,0.6,0.4c0.6,0.5,1,1,1.1,1.7
	c0.1,0.3,0.1,0.6,0,0.8c-0.1,0.5-0.2,0.8-0.4,1.1c-0.6-0.1-1.2-0.1-1.7-0.1c-0.1-0.1-0.3-0.3-0.4-0.6c-0.3-0.4-0.6-0.6-0.8-0.6
	c-0.2,0-0.4,0.2-0.6,0.5c-0.1,0.2-0.3,0.4-0.4,0.5c-1.3,0-2.6,0-4.101,0c-0.1-0.1-0.1-0.1,0-0.2c0-0.2,0.4-0.5,1.1-0.8
	c0.5-0.2,0.8-0.4,1-0.6c0.7-0.5,1-1.1,1-1.7c-0.1-0.3-0.5-1-1.4-2c-0.5-0.7-1.2-1.3-2.1-1.8c-0.8-0.5-1.3-0.9-1.6-1.2
	c-0.1-0.2-0.2-0.4-0.3-0.6c-0.1-0.2-0.2-0.7-0.2-1.5c0-0.9,0.2-1.6,0.6-2.2c0.3-0.5,0.5-1.1,0.6-1.8c0-0.4,0.1-0.8,0.2-1.1
	c0.1-0.6,0.1-1-0.1-1.3c-0.2-0.2-0.6-0.3-1.3-0.3c0,0,0,0-0.1,0c-0.1,0-0.2,0-0.3,0c-0.3,0.1-0.6,0.2-0.9,0.4c-0.4,0.3-0.6,1-0.6,2
	c-0.1,0.7-0.3,1.3-0.7,2c-0.3,0.6-0.6,1.3-0.7,2.2c-0.1,0.5-0.2,1.2-0.2,1.9c0.1,0.8,0.1,1.3,0,1.6c-0.1,0.3-0.3,0.7-0.6,1.1
	c-0.3,0.7-0.5,1.3-0.6,1.9c0,0.5,0,0.9-0.1,1.2c-0.1,0.4-0.2,0.8-0.2,1.3c-0.1,0.5-0.2,1.1-0.3,1.8c-0.3,0-0.7,0-1,0
	c-0.4,0.1-0.7,0.1-0.9,0.1c-0.2,0-0.4,0-0.6,0c0.1-0.1,0.1-0.2,0.2-0.3c0.1-0.1,0.1-0.3,0.2-0.4c0.1-0.1,0.1-0.2,0.2-0.3
	c0.1-0.1,0.1-0.1,0.2-0.2c0-0.1,0-0.1,0-0.2c0.4-0.7,0.7-1.5,0.8-2.4c0.2-1.2,0.3-2,0.2-2.4c-0.1-0.2-0.1-0.7-0.2-1.6
	c0-0.9,0-1.5-0.1-1.8c-0.1-0.5-0.2-1-0.2-1.5c0-0.7-0.1-1.5-0.3-2.3c-0.2-1.2-0.2-2.4,0-3.501c0.1-0.6,0.1-1-0.1-1.3
	c-0.3-0.4-0.9-0.5-1.8-0.2c-0.9,0.2-1.9,0.2-2.9-0.1c-1-0.3-1.9-0.7-2.6-1.2c-0.8-0.5-1.5-1.1-2.1-1.8c-0.3-0.3-0.7-0.8-1.2-1.4
	c-0.5-0.6-0.9-1.2-1.2-1.7s-0.5-1-0.5-1.6c-0.3-2.7-0.4-4.201-0.3-4.601c-0.1-0.6,0.1-1.4,0.6-2.3c0.4-0.9,0.7-1.5,0.8-1.8
	c-0.1-0.4-0.3-0.7-0.6-0.9c-0.4-0.1-0.9-0.2-1.5-0.3c-0.7-0.1-1.1-0.2-1.3-0.3c-0.7-0.3-0.9-0.7-0.8-1.3c0.2-0.8,0.7-1.4,1.4-1.7
	c0.4-0.2,1-0.3,1.9-0.4c0.9-0.1,1.4-0.1,1.7-0.2c0.9-0.2,1.6-0.5,2.1-0.9c0.7-0.5,1.4-0.8,2-0.8c3,0.1,4.801,2.3,5.301,6.601
	c0.1,0.6,0,1.2-0.1,1.8c-0.1,0.7-0.4,1.4-0.7,2.2c-0.3,0.8-0.5,1.4-0.6,1.8c-0.1,0.4,0,0.8,0.3,1.1c0.3,0.4,0.6,0.4,1.1,0
	c0.1-0.3,0.2-0.6,0.4-1.1c0.1-0.5,0.2-0.8,0.3-1.1c0.1-0.3,0.2-0.6,0.4-1c0.2-0.4,0.5-0.8,0.8-1.1c1.1-1.3,2.2-2.2,3.3-2.8
	c1.1-0.6,2-1.2,2.6-1.9c0.7-0.8,1.1-1.4,1.4-1.9c0.6-1.4,1.9-2.4,4.001-3.1c2.2-0.7,3.3-1,3.3-1c0.1,0,0.3,0,0.6-0.1
	C31.729,1.747,31.929,1.747,32.029,1.747z"/>
</svg>
