<?xml version="1.0" encoding="utf-8"?>
<!-- Generator: Adobe Illustrator 17.0.0, SVG Export Plug-In . SVG Version: 6.00 Build 0)  -->
<!DOCTYPE svg PUBLIC "-//W3C//DTD SVG 1.1//EN" "http://www.w3.org/Graphics/SVG/1.1/DTD/svg11.dtd">
<svg version="1.1" id="Layer_1" xmlns="http://www.w3.org/2000/svg" xmlns:xlink="http://www.w3.org/1999/xlink" x="0px" y="0px"
	 width="48px" height="48px" viewBox="0 0 48 48" enable-background="new 0 0 48 48" xml:space="preserve">
<path d="M35.228,26.287c-0.297-0.178-0.653-0.356-1.01-0.535c-0.416-0.119-0.772-0.297-1.188-0.475
	c-0.297-0.178-0.653-0.297-0.95-0.475c-0.713-0.297-1.307-0.594-1.485-1.01c-0.119-0.178-0.178-0.416-0.178-0.713
	c0-0.95,0.653-1.663,1.663-1.723c0.772-0.059,1.604,0,2.376,0.178c0.297,0.059,0.653,0.119,0.95,0.238
	c0.297,0.178,0.653,0.297,1.01,0.416l0.832-2.97c-1.604-0.772-3.208-1.069-4.871-1.01c-1.426,0.059-2.792,0.356-3.98,1.248
	c-2.317,1.485-3.327,5.584,0,7.782c0.416,0.297,0.891,0.535,1.366,0.713c0.475,0.178,0.95,0.416,1.426,0.653
	c0.535,0.238,1.188,0.535,1.723,0.832c0.713,0.416,0.891,1.129,0.832,1.842c-0.178,0.772-0.653,1.307-1.366,1.366
	c-0.772,0.178-1.663,0.178-2.436,0.119c-0.535-0.119-1.069-0.297-1.604-0.475s-1.129-0.297-1.723-0.475
	c-0.178,0.713-0.356,1.604-0.653,2.376c-0.178,0.475-0.059,0.653,0.416,0.832c2.614,1.129,5.406,1.307,8.079,0.356
	c2.079-0.713,3.267-2.139,3.446-4.337C38.079,28.901,37.129,27.297,35.228,26.287z M19.426,22.901
	c-1.485,0.713-3.149,0.713-4.752,0.475c-0.178,0-0.356-0.178-0.356-0.356c0-1.248,0-2.554,0-3.802c0-1.248,0-2.554,0-3.861
	c1.485-0.238,2.911-0.297,4.337,0c1.723,0.475,2.733,1.604,2.911,3.267C21.802,20.525,21.03,22.129,19.426,22.901z M20.376,12.267
	c-3.149-0.713-6.416-0.356-9.564-0.059c-0.713,0.059-0.832,0.416-0.832,0.95c0,1.842,0,3.624,0,5.406c0,1.842,0,3.624,0,5.465
	c0,1.842,0,3.624,0,5.406c0,1.842,0,3.624,0,5.406v0.416h4.277v-8.495c2.376,0.178,4.574,0.119,6.653-0.594
	c3.386-1.248,5.168-3.861,4.931-7.723C25.663,15.356,23.762,13.04,20.376,12.267z M47.287,47.911c-3.861,0-7.782,0-11.644,0
	s-7.782,0-11.644,0s-7.782,0-11.644,0s-7.723,0-11.584,0C0,47.911,0,47.911,0,47.139V0.683c0-0.416,0.059-0.594,0.119-0.594
	s0.238,0,0.653,0h46.455c0.416,0,0.653,0,0.713,0S48,0.267,48,0.683v23.228c0,1.96,0,3.861,0,5.822s0,3.861,0,5.822s0,3.861,0,5.822
	s0,3.861,0,5.822C48,47.733,47.822,47.911,47.287,47.911z"/>
</svg>
