<?xml version="1.0" encoding="utf-8"?>
<!-- Generator: Adobe Illustrator 17.0.0, SVG Export Plug-In . SVG Version: 6.00 Build 0)  -->
<!DOCTYPE svg PUBLIC "-//W3C//DTD SVG 1.1//EN" "http://www.w3.org/Graphics/SVG/1.1/DTD/svg11.dtd">
<svg version="1.1" id="Layer_1" xmlns="http://www.w3.org/2000/svg" xmlns:xlink="http://www.w3.org/1999/xlink" x="0px" y="0px"
	 width="48px" height="48px" viewBox="0 0 48 48" enable-background="new 0 0 48 48" xml:space="preserve">
<g>
	<path d="M36.164,20.548h-2.137l-0.822,4.932h1.973c1.479-0.164,2.795-0.658,2.959-3.452C38.137,21.041,37.315,20.548,36.164,20.548
		z"/>
	<path d="M14.137,20.548H12l-0.822,4.932h1.973c1.479-0.164,2.795-0.658,2.959-3.452C16.11,21.041,15.288,20.548,14.137,20.548z"/>
	<path d="M24,11.507C10.745,11.507,0,17.1,0,24s10.745,12.493,24,12.493S48,30.9,48,24S37.255,11.507,24,11.507z M13.479,27.945
		h-2.959l-0.658,3.452H6.74l2.63-13.315h6.082c2.63,0.164,3.945,1.479,3.945,3.781C19.397,25.808,16.274,28.11,13.479,27.945z
		 M25.315,27.945l1.151-6.082c0.164-0.822,0.164-1.315-0.986-1.315h-2.466l-1.479,7.397h-3.123l2.63-13.315h3.123l-0.658,3.452
		h2.959c2.63,0.164,3.616,1.479,3.288,3.123l-1.151,6.74H25.315z M35.507,27.945h-2.959l-0.658,3.452h-3.123l2.63-13.315h6.082
		c2.63,0.164,3.945,1.479,3.945,3.781C41.425,25.808,38.301,28.11,35.507,27.945z"/>
</g>
</svg>
