<?xml version="1.0" encoding="utf-8"?>
<!-- Generator: Adobe Illustrator 17.0.0, SVG Export Plug-In . SVG Version: 6.00 Build 0)  -->
<!DOCTYPE svg PUBLIC "-//W3C//DTD SVG 1.1//EN" "http://www.w3.org/Graphics/SVG/1.1/DTD/svg11.dtd">
<svg version="1.1" id="Layer_1" xmlns="http://www.w3.org/2000/svg" xmlns:xlink="http://www.w3.org/1999/xlink" x="0px" y="0px"
	 width="48px" height="48px" viewBox="0 0 48 48" enable-background="new 0 0 48 48" xml:space="preserve">
<path d="M42.987,30.031c-0.64,0.049-1.329,0.148-1.969,0.197c-0.345,0-0.64-0.049-0.985-0.098c-0.591-0.049-1.132-0.197-1.575-0.443
	c-0.148-0.098-0.246-0.148-0.345-0.148c-0.246,0-0.591,0.098-0.935,0.295c-0.345,0.246-0.345,0.64-0.345,0.985
	c-0.049,0.148-0.049,0.295-0.098,0.443c0,0.049,0,0.049,0.049,0.098c0.049,0.049,0.049,0.049,0.098,0.098
	c0.148,0.049,0.345,0.049,0.492,0.098c0.295,0.049,0.64,0.098,1.034,0.098c0.197,0,0.394,0,0.591,0c0.443,0,0.886-0.049,1.28-0.098
	c0.985-0.197,1.969-0.443,2.806-1.034c0.345-0.197,0.64-0.394,0.886-0.591v-0.049c-0.148,0.049-0.345,0.049-0.492,0.049
	C43.332,29.982,43.135,29.982,42.987,30.031z M22.605,29.834c-0.148-0.148-0.246-0.197-0.394-0.197c-0.295,0-0.64,0.295-0.886,0.64
	c-0.246,0.345-0.542,0.689-0.837,1.034c-0.295,0.394-0.837,0.788-1.477,0.985c-0.64,0.197-1.28,0.345-1.822,0.492
	c-0.246,0.049-0.542,0.098-0.837,0.148v0.098c0.098,0.049,0.197,0.049,0.246,0.098c0.049,0.049,0.148,0.098,0.246,0.098
	c0.837,0.246,1.625,0.394,2.56,0.345c0.591-0.049,1.231-0.148,1.772-0.492c0.788-0.345,1.378-0.985,1.92-1.625
	c0.049-0.049,0.049-0.148,0.098-0.197c0-0.049,0-0.148,0.049-0.246C23.245,30.474,22.999,30.08,22.605,29.834z M36.587,14.966
	c-0.197,0.542-0.591,0.788-1.034,0.837s-0.837-0.049-1.182-0.443c-0.197-0.246-0.148-0.542,0.197-0.738
	c0.394-0.197,0.788-0.246,1.231-0.295c0.148,0.049,0.295,0.098,0.492,0.098C36.538,14.572,36.636,14.72,36.587,14.966z
	 M37.621,15.409c0.049-0.246,0.049-0.443,0.098-0.689c0-0.197,0-0.394,0.049-0.64c0-0.197-0.049-0.246-0.197-0.246
	c-0.246,0-0.492,0-0.738,0s-0.443,0-0.689-0.049c-0.542,0-1.083,0.098-1.526,0.295c-0.542,0.246-0.935,0.591-1.132,1.182
	c-0.148,0.443-0.148,0.886-0.098,1.329c0.049,0.738,0.197,1.428,0.443,2.068c0.345,0.837,0.689,1.723,1.083,2.56
	c0.591,1.132,1.182,2.215,1.772,3.348c0.098,0.148,0.197,0.295,0.246,0.443c0.049,0.148,0.148,0.345,0.246,0.542
	c0.345-0.738,0.492-1.477,0.492-2.215c0.049-0.345,0.049-0.64,0-0.985c-0.049-0.295-0.049-0.591-0.049-0.935
	c0-0.197,0-0.394-0.049-0.591c-0.049-0.197-0.049-0.394-0.049-0.591c-0.049-0.542-0.148-1.034-0.148-1.575
	c-0.049-0.591,0-1.132,0.049-1.674C37.473,16.443,37.572,15.951,37.621,15.409z M19.11,15.508c-0.197-0.345-0.098-0.591,0.295-0.738
	c0.049,0,0.098,0,0.148-0.049c0.049,0,0.049,0,0.098,0s0.148,0,0.197,0c0.049,0,0.148,0,0.197,0c0.443,0,0.935,0.098,1.329,0.345
	c0.197,0.197,0.295,0.492,0.148,0.738c-0.246,0.345-0.591,0.542-1.034,0.542C19.848,16.394,19.356,16.098,19.11,15.508z
	 M20.488,27.372c0.394-1.182,0.886-2.363,1.428-3.545c0.394-0.935,0.64-1.92,0.689-2.954c0-0.246,0-0.492,0-0.738
	c0-0.246,0-0.492,0-0.738c0-0.591-0.098-1.132-0.148-1.674c-0.049-0.345-0.148-0.738-0.197-1.083
	c-0.148-0.738-0.246-1.526-0.689-2.018s-1.132-0.591-1.625-0.591c-0.246,0-0.492,0-0.738,0.049c-1.182,0.197-2.265,0.64-3.298,1.28
	c-0.197,0.049-0.295,0.246-0.295,0.492c0.049,0.345,0.098,0.64,0.098,0.935c0,0.345,0,0.64,0,0.935c0,0.443,0,0.837,0,1.28
	c-0.049,0.443-0.049,0.935-0.049,1.378c0,0.246-0.049,0.591-0.098,0.837c-0.049,0.246-0.049,0.443-0.098,0.64
	c-0.049,0.246-0.049,0.443-0.049,0.689c0,0.443,0.049,0.886,0.197,1.329c0.345,1.378,1.083,2.511,2.265,3.298
	c0.738,0.542,1.526,0.738,2.462,0.788c0.049-0.098,0.049-0.197,0.098-0.295C20.439,27.569,20.439,27.471,20.488,27.372z
	 M35.701,6.597c0.443,0.542,0.935,1.083,1.329,1.674c0.788,1.132,1.428,2.265,1.871,3.594c0.197,0.542,0.345,1.132,0.295,1.723
	c-0.049,0.246-0.049,0.443-0.049,0.64c0,0.443-0.049,0.837-0.098,1.182c-0.049,0.197-0.049,0.394-0.049,0.591
	c-0.049,0.246-0.049,0.542-0.098,0.788c-0.098,0.542-0.148,1.083-0.098,1.625c0,0.542,0.049,0.985,0.098,1.526
	c0.049,0.295,0.049,0.591,0.049,0.837c0.049,0.591,0.148,1.182,0.148,1.772c0,0.246,0,0.492,0,0.738
	c-0.049,0.246-0.049,0.492-0.049,0.738c-0.049,0.591-0.197,1.132-0.443,1.723c-0.049,0.197-0.148,0.394-0.246,0.542
	c-0.098,0.197-0.197,0.394-0.246,0.591l0.049,0.098l0.098,0.049l0.098-0.197c0.935-1.428,1.723-2.954,2.462-4.48
	c0.443-1.034,0.886-2.068,1.28-3.102c0.64-1.575,1.182-3.2,1.575-4.923c0.049-0.345,0.148-0.738,0.246-1.132
	c0.148-0.738,0.246-1.428,0.295-2.068c0.049-0.295,0.049-0.591,0.049-0.886s0-0.591,0-0.935c0-0.64-0.049-1.231-0.197-1.674
	c-0.148-0.443-0.542-0.985-1.083-1.575c-0.295-0.295-0.591-0.542-0.886-0.788c-0.295-0.197-0.591-0.394-0.837-0.591
	c-0.542-0.394-1.28-0.886-2.265-1.28c-1.034-0.345-2.068-0.542-3.052-0.689c-0.542-0.049-1.034-0.098-1.575-0.098
	c-0.64,0-1.231,0.049-1.871,0.098c-0.246,0.049-0.542,0.049-0.788,0.098c-0.295,0.049-0.591,0.098-0.837,0.148
	c0.295,0.148,0.591,0.295,0.886,0.443s0.591,0.345,0.837,0.542C33.781,4.677,34.864,5.563,35.701,6.597z M14.581,25.354
	c-0.345-0.738-0.492-1.428-0.542-2.215c-0.049-0.738,0.049-1.428,0.098-2.166c0.049-0.64,0.148-1.428,0.148-2.068
	c0.049-0.591,0.049-1.182,0-1.723c-0.049-1.132-0.098-2.068-0.049-2.757c0.049-0.345,0.049-0.689,0.098-1.034
	c0-0.295,0.049-0.591,0.098-0.935c0.098-0.591,0.197-1.378,0.443-2.412c0.246-0.985,0.64-1.969,1.083-2.855
	c0.394-0.886,0.935-1.477,1.378-2.018c0.197-0.246,0.394-0.542,0.591-0.837L17.83,4.283c-1.378-0.394-2.806-0.738-4.234-0.886
	c-0.64-0.049-1.329-0.148-2.068-0.197c-0.098,0-0.197,0-0.295,0c-0.098,0.049-0.197,0.049-0.295,0.049
	c-0.246,0.049-0.542,0.049-0.788,0.049C9.608,3.348,8.919,3.446,8.082,3.742C7.245,4.037,6.507,4.48,5.916,5.022
	S4.784,6.203,4.439,6.991C4.045,7.778,3.75,8.714,3.602,9.698c-0.197,1.034-0.197,2.018-0.148,2.905
	c0,0.443,0.049,0.935,0.098,1.378c0.049,0.345,0.148,0.64,0.197,0.985c0.098,0.689,0.197,1.477,0.394,2.363
	c0.197,0.886,0.443,2.018,0.788,3.298c0.345,1.28,0.689,2.56,1.083,3.742c0.394,1.231,0.738,2.314,1.182,3.249
	c0.197,0.492,0.394,0.985,0.591,1.477c0.246,0.591,0.591,1.182,0.985,1.772c0.345,0.591,0.788,1.182,1.378,1.625
	c0.738,0.542,1.28,0.64,2.018,0.049c0.345-0.246,0.64-0.591,0.886-0.935c0.443-0.443,0.886-0.935,1.28-1.477
	c0.591-0.64,1.132-1.28,1.674-1.871c0.148-0.148,0.246-0.246,0.394-0.394l-0.197-0.197C15.467,27.028,14.975,26.191,14.581,25.354z
	 M37.276,28.111c-0.246-0.345-0.542-0.64-0.788-0.985c-0.197-0.246-0.345-0.542-0.492-0.837c-0.148-0.295-0.345-0.591-0.492-0.886
	c-0.246-0.542-0.542-1.083-0.886-1.625c-0.246-0.492-0.443-0.985-0.689-1.477c-0.492-0.985-1.083-2.117-1.477-3.397
	c-0.246-0.64-0.394-1.28-0.443-1.969c-0.049-0.295-0.049-0.591-0.049-0.886c0-0.591,0.098-1.378,0.591-2.117
	c0.492-0.738,1.329-1.182,2.166-1.378c0.788-0.197,1.477-0.197,2.068-0.197c0.246,0.049,0.542,0.049,0.788,0.049v-0.098
	c-0.394-0.738-0.689-1.428-1.034-2.166c-0.542-0.985-1.231-1.871-1.969-2.708c-0.295-0.295-0.591-0.591-0.886-0.886
	c-0.591-0.591-1.231-1.083-1.92-1.526c-0.689-0.394-1.526-0.788-2.462-1.132s-1.822-0.492-2.757-0.64
	c-0.492-0.049-0.985-0.098-1.428-0.098c-0.788,0-1.625,0-2.363,0.197c-1.182,0.246-2.265,0.738-3.249,1.526
	c-0.542,0.443-0.985,0.935-1.378,1.526c-0.443,0.591-0.837,1.329-1.182,2.068c-0.394,0.985-0.738,2.068-0.935,3.102
	c-0.049,0.295-0.098,0.591-0.148,0.837c-0.049,0.246-0.098,0.542-0.148,0.788c0,0.098,0,0.197,0,0.295c0,0.098,0,0.197-0.049,0.295
	c0.098-0.049,0.197-0.049,0.246-0.098c0.049-0.049,0.098-0.049,0.148-0.049l0.345-0.197c1.182-0.542,2.363-0.837,3.692-0.837
	c0.591,0,1.132,0.148,1.575,0.394c0.985,0.443,1.526,1.28,1.772,2.265c0.098,0.345,0.197,0.689,0.246,1.034
	c0.098,0.689,0.197,1.329,0.295,1.871c0.049,0.295,0.049,0.591,0.049,0.886c0,0.788-0.049,1.625-0.098,2.462
	c0,0.64-0.197,1.378-0.394,2.018c-0.246,0.591-0.443,1.182-0.689,1.723c-0.246,0.591-0.492,1.182-0.738,1.772
	c-0.049,0.197-0.148,0.394-0.197,0.591s-0.148,0.394-0.197,0.64c0.098,0,0.197,0,0.295,0s0.197,0,0.295,0c0.049,0,0.049,0,0.098,0
	s0.049,0,0.098,0c0.542,0.148,0.985,0.394,1.378,0.788c0.443,0.542,0.738,1.132,0.738,1.871c0.049,0.246,0.049,0.443,0.049,0.64
	c-0.049,0.197-0.049,0.394-0.049,0.591c0,0.935,0,1.871,0,2.806c0,0.935,0,1.92,0.049,2.855c0,0.148,0,0.295,0,0.443
	s0,0.345,0,0.492c0.049,0.345,0.049,0.64,0.098,0.935c0.049,0.345,0.049,0.64,0.098,0.985c0,0.246,0,0.443,0.049,0.689
	c0.049,0.443,0.148,0.985,0.394,1.575c0.246,0.591,0.542,1.083,0.935,1.477c0.394,0.394,1.083,0.886,1.969,0.935
	c0.886,0.049,1.625-0.098,2.215-0.295c0.295-0.098,0.591-0.197,0.886-0.295c0.591-0.197,1.132-0.492,1.526-0.935
	c0.443-0.394,0.738-0.837,0.935-1.428c0.394-1.034,0.492-2.117,0.64-3.249c0.049-0.197,0.049-0.394,0.098-0.591
	c0.049-0.394,0.148-0.886,0.197-1.329c0-0.246,0-0.443,0.049-0.689c0.049-0.148,0.049-0.345,0.098-0.542
	c0-0.148,0-0.345,0.049-0.492c0.049-0.246,0.049-0.542,0.098-0.788c0.049-0.246,0.049-0.492,0.098-0.738
	c0-0.197,0-0.394,0.049-0.591c0.049-0.148,0.049-0.345,0.049-0.542c0.049-0.246,0.049-0.542,0.098-0.788
	c0.049-0.492,0.098-0.886,0.098-1.28c0-0.197,0-0.394,0.049-0.542c0.148-0.738,0.443-1.28,1.034-1.625
	c0.148-0.098,0.246-0.197,0.394-0.246c0.148-0.049,0.295-0.098,0.443-0.148L37.276,28.111z M45.941,29.44
	c-0.049,0.394-0.197,0.689-0.443,0.935c-1.132,1.231-2.56,2.018-4.185,2.363c-0.591,0.148-1.231,0.246-1.871,0.295
	c-0.246,0.049-0.542,0.049-0.788,0.049c-0.591,0-1.034-0.049-1.428-0.098c-0.197-0.049-0.394-0.049-0.591-0.098
	c-0.049,0.197-0.049,0.394-0.049,0.591c-0.049,0.197-0.049,0.394-0.098,0.542l-0.148,1.477c-0.049,0.542-0.148,0.985-0.197,1.428
	c-0.049,0.443-0.148,0.935-0.197,1.378c0,0.394-0.098,0.837-0.148,1.231c-0.049,0.64-0.148,1.329-0.295,1.969
	c-0.197,0.738-0.394,1.526-0.788,2.166c-0.443,0.837-1.132,1.526-1.92,1.969c-0.443,0.246-0.886,0.443-1.329,0.591
	c-0.985,0.246-1.723,0.492-2.412,0.492c-0.689,0.049-1.723,0-2.708-0.492c-0.985-0.492-1.772-1.477-2.215-2.462
	c-0.246-0.492-0.394-1.034-0.492-1.575c-0.049-0.295-0.049-0.591-0.098-0.837c-0.049-0.542-0.148-1.132-0.148-1.723
	c-0.049-0.591-0.098-1.28-0.098-2.068c-0.049-0.394-0.049-0.788-0.049-1.132c0-0.492,0-0.985,0-1.477
	c-0.049-0.443-0.049-0.935-0.049-1.378v-0.049c-0.246,0.148-0.443,0.295-0.689,0.443c-0.492,0.345-1.083,0.591-1.674,0.788
	c-0.345,0.098-0.64,0.148-0.985,0.148c-0.542,0.049-1.034,0.098-1.575,0.049c-0.837-0.049-1.674-0.197-2.412-0.591
	c-0.345-0.197-0.64-0.345-0.886-0.689c-0.443-0.591-0.246-1.428,0.542-1.822c0.542-0.246,1.083-0.394,1.674-0.542
	c0.443-0.148,0.935-0.246,1.477-0.394c0.443-0.197,0.738-0.542,1.083-0.935l0.492-0.591c-0.098-0.049-0.197-0.049-0.295-0.049
	c-0.098,0-0.197,0-0.295-0.049c-0.591,0-1.083-0.197-1.625-0.443c-0.443-0.197-0.443-0.197-0.788,0.148
	c-0.246,0.295-0.542,0.591-0.788,0.886c-0.542,0.591-0.985,1.132-1.378,1.575c-0.197,0.246-0.394,0.443-0.591,0.64
	c-0.197,0.246-0.394,0.443-0.542,0.689c-0.394,0.443-0.886,0.985-1.625,1.329c-0.788,0.345-1.526,0.246-2.068,0.049
	c-0.246-0.098-0.492-0.246-0.738-0.394c-0.935-0.64-1.625-1.575-2.215-2.56c-0.738-1.329-1.28-2.658-1.822-4.037
	c-0.148-0.443-0.345-0.935-0.492-1.428c-0.394-0.935-0.64-1.969-0.935-3.052c-0.148-0.542-0.295-1.034-0.443-1.575
	c-0.246-0.788-0.443-1.625-0.591-2.462c-0.197-0.935-0.394-1.822-0.591-2.757c-0.049-0.345-0.098-0.64-0.148-0.985
	c-0.049-0.295-0.098-0.591-0.148-0.935c-0.148-0.837-0.148-1.723-0.098-2.56c0.049-0.788,0.148-1.526,0.295-2.314
	C2.47,8.074,2.765,7.04,3.307,6.105C3.652,5.514,3.996,5.022,4.439,4.48c0.738-0.788,1.625-1.378,2.609-1.822
	c0.64-0.246,1.378-0.443,2.117-0.64c1.132-0.197,2.166-0.197,3.298-0.148c0.443,0,0.985,0.098,1.428,0.148
	c1.034,0.049,2.068,0.345,3.052,0.591c0.394,0.098,0.788,0.197,1.132,0.295c0.345,0.148,0.738,0.246,1.083,0.345
	c0.049,0.049,0.098,0.049,0.148,0c0.049,0,0.049,0,0.049,0c0.985-0.64,2.068-1.083,3.2-1.329c0.443-0.049,0.935-0.148,1.329-0.148
	c0.295,0,0.591,0,0.837-0.049c0.542,0,1.132,0.049,1.772,0.098c0.345,0.049,0.64,0.098,0.985,0.148c0.148,0,0.295,0,0.443,0.049
	c0.148,0.049,0.295,0.098,0.443,0.098c0.098,0.049,0.197,0,0.246-0.049c0.049-0.049,0.148-0.049,0.246-0.049
	c0.788-0.197,1.625-0.394,2.412-0.542c0.591-0.148,1.231-0.197,1.871-0.197c0.345-0.049,0.689-0.049,1.034-0.049
	c0.689,0,1.477,0,2.314,0.098c0.837,0.098,1.822,0.345,2.855,0.689c0.985,0.394,1.822,0.837,2.511,1.28
	c0.689,0.443,1.182,0.886,1.575,1.231c0.394,0.394,0.788,0.788,1.231,1.28c0.394,0.492,0.64,1.034,0.788,1.526
	c0.049,0.246,0.098,0.492,0.148,0.738c0,0.345,0,0.64,0.049,0.935c0.049,0.345,0.049,0.64,0.049,0.935
	c0,0.64-0.098,1.231-0.148,1.822c-0.148,1.378-0.443,2.658-0.788,3.988c-0.345,1.132-0.64,2.117-1.034,3.249
	c-0.345,0.935-0.738,1.92-1.132,2.855c-0.148,0.345-0.295,0.689-0.443,1.034c-0.148,0.345-0.345,0.738-0.542,1.083
	c-0.64,1.231-1.329,2.56-2.117,3.791c-0.049,0.098-0.148,0.197-0.197,0.295c-0.049,0.148-0.148,0.246-0.197,0.345
	c0.345,0.197,0.738,0.295,1.132,0.345c0.148,0.049,0.345,0.049,0.542,0.049c0.394,0,0.886-0.049,1.477-0.098
	c0.295-0.049,0.591-0.098,0.886-0.148c0.295-0.049,0.591-0.098,0.886-0.148c0.591-0.098,1.28-0.098,1.674,0.295
	C45.842,28.898,45.941,29.145,45.941,29.44z M47.27,29.046c-0.197-1.132-1.132-1.92-2.265-1.92c-0.394-0.049-0.837,0-1.231,0.049
	c-0.246,0.049-0.443,0.049-0.689,0.098c-0.492,0.098-0.935,0.197-1.28,0.197c-0.148,0.049-0.345,0.049-0.492,0.049v-0.049
	c0.295-0.591,0.591-1.182,0.935-1.772c0.64-1.182,1.182-2.215,1.575-3.2c0.394-0.935,0.935-2.215,1.526-3.84
	c0.542-1.575,0.935-3.2,1.28-4.825c0.148-0.788,0.295-1.575,0.345-2.412c0.049-0.345,0.049-0.64,0.049-0.985s0-0.64,0-0.985
	c0-0.542-0.049-1.034-0.098-1.575c-0.049-0.591-0.246-1.132-0.492-1.674c-0.345-0.738-0.837-1.329-1.378-1.871
	c-0.394-0.443-0.837-0.886-1.378-1.28c-0.64-0.591-1.378-1.034-2.166-1.477c-0.935-0.443-1.822-0.837-2.806-1.083
	c-0.295-0.049-0.591-0.148-0.886-0.197c-0.295-0.049-0.591-0.098-0.886-0.148c-0.148-0.049-0.246-0.049-0.345-0.098
	C36.488,0,36.39,0,36.292,0h-4.037c-0.098,0-0.197,0-0.246,0.049c-0.049,0.049-0.148,0.049-0.197,0.049
	c-0.985,0.148-1.92,0.246-2.855,0.591c-0.148,0.049-0.345,0.049-0.492,0c-0.345,0-0.64-0.049-0.886-0.098c-0.148,0-0.246,0-0.345,0
	c-0.492-0.049-0.985-0.049-1.428-0.098c-0.985-0.049-1.92-0.049-2.855,0.098s-1.723,0.394-2.462,0.64
	c-0.345,0.148-0.689,0.295-1.034,0.492c-0.148,0.098-0.246,0.148-0.394,0.148c-0.148,0-0.246-0.049-0.394-0.098
	c-0.542-0.148-1.034-0.246-1.526-0.394c-0.985-0.246-1.822-0.492-2.462-0.542c-0.345-0.049-0.64-0.049-0.985-0.098
	c-0.591-0.049-1.231-0.098-1.822-0.098c-0.345-0.049-0.64-0.049-0.935-0.049C10.347,0.64,9.559,0.689,8.624,0.886
	c-0.985,0.197-1.92,0.492-2.855,0.985S3.996,3.102,3.307,3.889C2.618,4.726,1.978,5.711,1.584,6.745
	C1.387,7.286,1.239,7.828,1.092,8.369c-0.049,0.345-0.098,0.64-0.148,0.935c-0.049,0.345-0.098,0.64-0.148,0.935
	c0,0.098,0.049,0.197,0.098,0.295c0.049,0.098,0,0.197-0.197,0.295v2.658c0.197,0.098,0.246,0.197,0.197,0.246
	c-0.049,0.098-0.098,0.197-0.098,0.295c0.049,0.394,0.148,0.837,0.197,1.28c0.049,0.64,0.197,1.378,0.394,2.018
	c0.098,0.443,0.197,0.935,0.295,1.378c0.197,0.985,0.345,1.723,0.542,2.412c0.098,0.345,0.197,0.689,0.295,1.034
	c0.148,0.492,0.295,0.985,0.443,1.477c0.295,1.034,0.542,2.018,0.886,2.954c0.345,0.985,0.738,2.068,1.329,3.298
	c0.542,1.231,1.182,2.363,1.871,3.298c0.689,0.985,1.428,1.625,2.117,1.969c0.689,0.394,1.329,0.591,1.969,0.591
	c0.591,0,1.28-0.148,1.92-0.443c0.295-0.148,0.591-0.295,0.886-0.542c0.049-0.049,0.049-0.049,0.098-0.049s0.049,0,0.098,0.049
	c0.246,0.394,0.689,0.64,1.083,0.837c1.132,0.591,2.314,0.738,3.495,0.788c0.148,0.049,0.345,0.049,0.492,0c0.148,0,0.246,0,0.394,0
	c0.591-0.049,1.132-0.148,1.674-0.295c0.148-0.049,0.295-0.098,0.443-0.148c0.148-0.049,0.295-0.098,0.443-0.148
	c0,0.148,0,0.295,0.049,0.443c0,0.148,0,0.345,0,0.492l0.049,1.625c0,0.148,0,0.246,0,0.345c0,0.148,0,0.246,0,0.394
	c0.049,0.345,0.049,0.64,0.098,0.935c0.049,0.64,0.148,1.231,0.197,1.625c0.049,0.246,0.098,0.443,0.148,0.689
	c0.197,0.837,0.443,1.723,0.837,2.511c0.345,0.788,0.886,1.477,1.526,2.068c0.837,0.738,1.871,1.034,3.003,1.083
	c0.443,0,0.935-0.049,1.378-0.098c0.738-0.148,1.477-0.295,2.117-0.492c1.428-0.443,2.609-1.182,3.545-2.363
	c0.542-0.64,0.985-1.428,1.231-2.215c0.246-0.64,0.443-1.378,0.591-2.018c0.197-0.591,0.246-1.083,0.295-1.674
	c0.049-0.148,0.049-0.345,0.098-0.542c0-0.197,0-0.394,0.049-0.542c0-0.591,0.098-1.231,0.148-1.822c0-0.197,0-0.394,0-0.64
	c0-0.197,0-0.394,0.049-0.591c0-0.049,0-0.148,0-0.197c0-0.148,0.049-0.295,0.098-0.345c0,0,0.049,0,0.098,0
	c0.246,0,0.443,0,0.689,0c0.197,0,0.394,0,0.591,0c0.443,0,0.985-0.049,1.428-0.098c0.345-0.049,0.64-0.148,0.985-0.197
	c0.64-0.148,1.329-0.295,2.068-0.64s1.428-0.788,2.166-1.378c0.738-0.542,1.28-1.231,1.526-1.969
	C47.319,29.834,47.319,29.44,47.27,29.046z"/>
</svg>
