<?xml version="1.0" encoding="utf-8"?>
<!-- Generator: Adobe Illustrator 17.0.0, SVG Export Plug-In . SVG Version: 6.00 Build 0)  -->
<!DOCTYPE svg PUBLIC "-//W3C//DTD SVG 1.1//EN" "http://www.w3.org/Graphics/SVG/1.1/DTD/svg11.dtd">
<svg version="1.1" id="Layer_1" xmlns="http://www.w3.org/2000/svg" xmlns:xlink="http://www.w3.org/1999/xlink" x="0px" y="0px"
	 width="48px" height="48px" viewBox="0 0 48 48" enable-background="new 0 0 48 48" xml:space="preserve">
<g>
	<path d="M5.716,47.811c-1.192-0.307-2.013-0.782-2.924-1.688c-0.629-0.625-0.892-0.973-1.193-1.575
		c-0.789-1.58-0.73,0.086-0.73-20.546c0-17.446,0.008-18.342,0.173-19.046c0.43-1.836,1.697-3.43,3.363-4.234
		c1.597-0.77,0.415-0.722,17.693-0.722h15.354l4.841,4.777l4.84,4.777L47.105,26.12c-0.03,18.564,0.04,16.817-0.738,18.401
		c-0.317,0.645-0.55,0.955-1.203,1.601c-0.927,0.917-1.752,1.388-2.967,1.694c-0.731,0.184-1.068,0.187-18.26,0.182
		C6.932,47.992,6.401,47.989,5.716,47.811L5.716,47.811z M41.443,44.006c0.579-0.173,1.093-0.591,1.429-1.163l0.259-0.44
		l0.025-15.319l0.025-15.319h-3.86h-3.86V7.86V3.954h-14.33c-9.323,0-14.45,0.034-14.671,0.095c-0.485,0.135-1.199,0.8-1.46,1.36
		L4.777,5.883v18.084c0,19.746-0.036,18.474,0.526,19.21c0.278,0.364,0.818,0.728,1.274,0.86c0.198,0.057,6.692,0.094,17.359,0.1
		c14.745,0.008,17.105-0.01,17.507-0.13L41.443,44.006z M23.647,36.714c-0.104-0.043-0.305-0.194-0.447-0.336
		c-0.684-0.686-0.49-1.945,0.418-2.722c0.717-0.614,0.857-0.628,5.642-0.598c4.096,0.026,4.283,0.035,4.599,0.219
		c0.478,0.278,0.683,0.725,0.616,1.345c-0.07,0.643-0.314,1.116-0.807,1.562c-0.706,0.637-0.555,0.62-5.429,0.614
		C25.816,36.797,23.75,36.757,23.647,36.714L23.647,36.714z M13.984,36.612c-0.38-0.064-0.787-0.3-1.039-0.602
		c-0.389-0.465-0.288-1.287,0.23-1.875c0.169-0.192,3.483-2.565,7.366-5.275c3.883-2.71,7.059-4.969,7.059-5.02
		c0-0.051-2.012-2.343-4.471-5.092c-3.012-3.368-4.513-5.115-4.6-5.355c-0.175-0.485-0.016-1.047,0.44-1.553
		c0.601-0.666,1.324-0.882,1.955-0.582c0.403,0.191,10.35,11.292,10.653,11.888c0.283,0.557,0.283,1.247,0,1.781
		c-0.189,0.357-1.049,0.985-7.977,5.821c-4.271,2.981-7.915,5.499-8.098,5.595C15.069,36.571,14.418,36.686,13.984,36.612
		L13.984,36.612z"/>
</g>
</svg>
