<?xml version="1.0" encoding="utf-8"?>
<!-- Generator: Adobe Illustrator 17.0.0, SVG Export Plug-In . SVG Version: 6.00 Build 0)  -->
<!DOCTYPE svg PUBLIC "-//W3C//DTD SVG 1.1//EN" "http://www.w3.org/Graphics/SVG/1.1/DTD/svg11.dtd">
<svg version="1.1" id="Layer_1" xmlns="http://www.w3.org/2000/svg" xmlns:xlink="http://www.w3.org/1999/xlink" x="0px" y="0px"
	 width="48px" height="48px" viewBox="0 0 48 48" enable-background="new 0 0 48 48" xml:space="preserve">
<g>
	<polygon points="6.828,44.01 4.689,48 45.08,48 47.465,44.01 	"/>
	<polygon points="17.037,15.301 0.535,43.844 2.812,48 21.574,15.301 	"/>
	<polygon points="21.574,3.949 25.954,3.949 25.954,15.301 41.584,42.542 46.353,42.542 30.491,15.301 30.519,15.301 30.519,3.949 
		32.987,0 15.548,0 21.574,7.239 	"/>
	<circle cx="27.99" cy="36.524" r="2.279"/>
	<path d="M30.876,34.627c0.301-0.89,0.466-1.842,0.466-2.833c0-4.884-3.959-8.843-8.843-8.843c-0.932,0-1.83,0.145-2.674,0.412
		v1.049c0.564-0.148,1.156-0.227,1.767-0.227c3.838,0,6.949,3.111,6.949,6.949c0,0.232-0.011,0.461-0.033,0.687
		c-0.043,0.434-0.125,0.856-0.244,1.262C29.356,33.169,30.305,33.761,30.876,34.627z"/>
	<circle cx="23.775" cy="27.51" r="2.279"/>
	<path d="M14.766,39.052c0.466,0.807,1.041,1.512,1.694,2.109l0.908-0.524c-0.41-0.415-0.775-0.888-1.08-1.416
		c-1.919-3.324-0.78-7.574,2.544-9.493c0.201-0.116,0.405-0.221,0.611-0.314c0.397-0.18,0.804-0.319,1.215-0.42
		c-0.472-0.989-0.433-2.107,0.031-3.034c-0.921,0.184-1.828,0.517-2.686,1.013C13.773,29.414,12.324,34.822,14.766,39.052z"/>
	<circle cx="18.076" cy="35.667" r="2.279"/>
	<path d="M20.496,40.935c4.23,2.442,9.638,0.993,12.08-3.237c0.466-0.807,0.789-1.657,0.98-2.522l-0.908-0.524
		c-0.154,0.563-0.381,1.115-0.687,1.644c-1.919,3.324-6.169,4.463-9.493,2.544c-0.201-0.116-0.393-0.24-0.578-0.372
		c-0.354-0.254-0.678-0.536-0.971-0.842c-0.621,0.903-1.608,1.429-2.643,1.49C18.896,39.82,19.638,40.44,20.496,40.935z"/>
</g>
</svg>
