<?xml version="1.0" encoding="utf-8"?>
<!-- Generator: Adobe Illustrator 17.0.0, SVG Export Plug-In . SVG Version: 6.00 Build 0)  -->
<!DOCTYPE svg PUBLIC "-//W3C//DTD SVG 1.1//EN" "http://www.w3.org/Graphics/SVG/1.1/DTD/svg11.dtd">
<svg version="1.1" id="Layer_1" xmlns="http://www.w3.org/2000/svg" xmlns:xlink="http://www.w3.org/1999/xlink" x="0px" y="0px"
	 width="48px" height="48px" viewBox="0 0 48 48" enable-background="new 0 0 48 48" xml:space="preserve">
<g>
	<path d="M18.245,23.143h11.438c3.184,0,5.726-2.621,5.726-5.819V6.42c0-3.103-2.619-5.434-5.726-5.952
		C27.716,0.14,25.675-0.009,23.717,0C21.76,0.01,19.89,0.177,18.245,0.468C13.399,1.324,12.52,3.116,12.52,6.42v4.364h11.451v1.455
		H12.52H8.222c-3.328,0-6.242,2-7.154,5.806c-1.052,4.362-1.098,7.083,0,11.638c0.814,3.391,2.758,5.806,6.086,5.806h3.937v-5.232
		C11.091,26.478,14.362,23.143,18.245,23.143z M17.525,7.875c-1.187,0-2.149-0.973-2.149-2.176c0-1.207,0.962-2.189,2.149-2.189
		c1.183,0,2.149,0.982,2.149,2.189C19.674,6.902,18.707,7.875,17.525,7.875z"/>
	<path d="M46.86,18.045c-0.823-3.313-2.393-5.806-5.726-5.806h-4.297v0v5.085c0,3.942-3.343,7.26-7.154,7.26H18.245
		c-3.133,0-5.726,2.681-5.726,5.819v10.904c0,3.103,2.698,4.929,5.726,5.819c3.625,1.066,7.101,1.259,11.438,0
		c2.883-0.835,5.726-2.514,5.726-5.819v-4.365H23.971v-1.455h11.438h5.725c3.328,0,4.568-2.321,5.726-5.806
		C48.056,26.096,48.005,22.646,46.86,18.045z M30.404,39.853c1.187,0,2.149,0.972,2.149,2.176c0,1.207-0.962,2.189-2.149,2.189
		c-1.183,0-2.149-0.982-2.149-2.189C28.255,40.825,29.221,39.853,30.404,39.853z"/>
</g>
</svg>
