<?xml version="1.0" encoding="utf-8"?>
<!-- Generator: Adobe Illustrator 17.0.0, SVG Export Plug-In . SVG Version: 6.00 Build 0)  -->
<!DOCTYPE svg PUBLIC "-//W3C//DTD SVG 1.1//EN" "http://www.w3.org/Graphics/SVG/1.1/DTD/svg11.dtd">
<svg version="1.1" id="Layer_1" xmlns="http://www.w3.org/2000/svg" xmlns:xlink="http://www.w3.org/1999/xlink" x="0px" y="0px"
	 width="48px" height="48px" viewBox="0 0 48 48" enable-background="new 0 0 48 48" xml:space="preserve">
<path d="M48,21.566c0-8.877-10.745-16.074-24-16.074c-13.255,0-24,7.196-24,16.074c0,7.912,8.536,14.489,19.776,15.825v5.113
	l8.188-0.003l-0.001-5.08c2.006-0.223,3.929-0.613,5.734-1.148l3.32,6.234l9.253-0.004l-5.571-9.392
	C45.201,30.189,48,26.097,48,21.566z M9.432,22.765c0-6.069,8.167-10.989,18.242-10.989c10.075,0,17.51,3.366,17.51,10.989
	c0,4.141-2.193,7.024-5.81,8.795c-0.198-0.132-0.387-0.236-0.526-0.307c-0.844-0.427-2.297-0.865-2.297-0.865
	s7.156-0.53,7.156-7.655s-7.489-7.26-7.489-7.26H19.776v17.2C13.656,30.9,9.432,27.13,9.432,22.765z M32.989,25.928L28.03,25.93
	l0.002-4.596l4.957,0.003c0,0,2.297-0.124,2.297,2.253C35.286,25.921,32.989,25.928,32.989,25.928z M27.962,31.919
	c0,0,1.885,0,2.198,0c0.45,0,0.644,0.131,1.098,0.499c0.261,0.211,0.599,0.67,0.882,1.091c-1.326,0.154-2.724,0.234-4.178,0.243
	L27.962,31.919z"/>
</svg>
