<?xml version="1.0" encoding="utf-8"?>
<!-- Generator: Adobe Illustrator 17.0.0, SVG Export Plug-In . SVG Version: 6.00 Build 0)  -->
<!DOCTYPE svg PUBLIC "-//W3C//DTD SVG 1.1//EN" "http://www.w3.org/Graphics/SVG/1.1/DTD/svg11.dtd">
<svg version="1.1" id="Layer_1" xmlns="http://www.w3.org/2000/svg" xmlns:xlink="http://www.w3.org/1999/xlink" x="0px" y="0px"
	 width="48px" height="48px" viewBox="0 0 48 48" enable-background="new 0 0 48 48" xml:space="preserve">
<path d="M27.694,43.255l-0.825-3.163h3.851l1.65,3.438L27.694,43.255z M25.631,32.252l0.138-3.026l3.438,1.65l0.138,3.026
	L25.631,32.252z M25.906,23.45l1.1-2.338l2.613,2.063l-0.688,2.888L25.906,23.45z M28.657,15.473l1.926-1.65l1.788,2.613l-1.1,1.926
	L28.657,15.473z M35.259,13.272l-1.1-2.201l2.476-0.55l0.413,1.375L35.259,13.272z M41.723,11.347V9.971l2.338,0.55v1.1
	L41.723,11.347z M42.135,4.745l0.138-1.513l2.888,2.063l-0.55,0.825L42.135,4.745z M30.582,3.095l-0.55-2.613l3.713,0.138
	l0.413,2.338L30.582,3.095z M21.78,5.983L19.717,3.37l2.888-1.513l2.201,2.338L21.78,5.983z M15.866,11.484l-2.338,2.751
	l-3.163-2.063l2.476-2.751L15.866,11.484z M8.989,22.625l-1.238,3.438l-4.126-1.238l1.375-3.713L8.989,22.625z M0.049,40.229
	l0.55-4.401l4.539,0.275l-0.825,4.676L0.049,40.229z M28.657,47.519H5.138c-0.413-2.613,0-6.327,0.963-11.278
	C7.339,30.464,9.814,24,13.528,16.986C18.067,8.596,24.256,3.92,32.233,3.232c2.613-0.138,5.226,0.275,7.84,1.238
	c2.613,1.1,4.676,2.201,5.914,3.301l2.063,1.788l-1.1,1.513c-0.138-0.138-0.413-0.413-0.825-0.825
	c-0.413-0.275-1.375-0.688-2.613-1.1c-1.238-0.413-2.613-0.55-4.126-0.413c-2.888,0.275-5.914,1.788-9.077,4.676
	s-4.951,6.739-5.501,11.553c-0.413,3.163-0.413,6.739,0.275,10.453c0.688,3.713,1.375,6.739,2.338,8.94L28.657,47.519z"/>
</svg>
