<?xml version="1.0" encoding="utf-8"?>
<!-- Generator: Adobe Illustrator 17.0.0, SVG Export Plug-In . SVG Version: 6.00 Build 0)  -->
<!DOCTYPE svg PUBLIC "-//W3C//DTD SVG 1.1//EN" "http://www.w3.org/Graphics/SVG/1.1/DTD/svg11.dtd">
<svg version="1.1" id="Layer_1" xmlns="http://www.w3.org/2000/svg" xmlns:xlink="http://www.w3.org/1999/xlink" x="0px" y="0px"
	 width="48px" height="48px" viewBox="0 0 48 48" enable-background="new 0 0 48 48" xml:space="preserve">
<g>
	<circle cx="24" cy="23.96" r="4.286"/>
	<path d="M45.532,19.688c-1.483-1.237-3.581-2.344-6.066-3.199c-0.498-0.172-1.014-0.334-1.545-0.487
		c0.088-0.357,0.168-0.709,0.239-1.054c1.191-5.781,0.345-10.286-2.206-11.758c-0.624-0.36-1.361-0.542-2.193-0.542
		c-2.394,0-5.428,1.493-8.543,4.203c-0.398,0.346-0.797,0.713-1.195,1.097c-0.266-0.255-0.531-0.5-0.795-0.735
		c-3.234-2.872-6.526-4.518-9.031-4.518c-0.858,0-1.617,0.188-2.257,0.558c-1.252,0.725-2.103,2.204-2.46,4.276
		c-0.328,1.903-0.234,4.273,0.27,6.852c0.102,0.52,0.221,1.05,0.355,1.589c-0.613,0.174-1.207,0.361-1.776,0.56
		C3.113,18.349,0,21.126,0,23.96c0,1.48,0.867,3.005,2.508,4.411c1.544,1.322,3.712,2.483,6.269,3.357
		c0.417,0.143,0.851,0.278,1.297,0.406c-0.144,0.582-0.27,1.154-0.376,1.713c-1.03,5.425-0.18,9.509,2.275,10.925
		c0.646,0.373,1.417,0.562,2.292,0.562c2.492,0,5.707-1.562,8.822-4.285c0.333-0.291,0.667-0.599,1.001-0.922
		c0.433,0.416,0.866,0.811,1.298,1.183c3.029,2.607,5.997,4.042,8.357,4.042c0.851,0,1.606-0.187,2.244-0.557
		c1.281-0.742,2.166-2.256,2.56-4.381c0.371-1.999,0.289-4.456-0.235-7.107c-0.083-0.419-0.179-0.847-0.288-1.283
		c0.304-0.09,0.602-0.182,0.892-0.279C44.52,29.889,48,26.905,48,23.96C48,22.513,47.146,21.036,45.532,19.688z M33.76,4.699
		c0.467,0,0.86,0.09,1.168,0.268c0.744,0.429,1.295,1.509,1.551,3.042c0.298,1.781,0.184,4.037-0.328,6.525
		c-0.064,0.313-0.137,0.631-0.216,0.954c-1.996-0.461-4.16-0.802-6.42-1.014c-1.322-1.881-2.69-3.589-4.057-5.063
		c0.369-0.354,0.737-0.693,1.105-1.013C29.225,6.082,31.916,4.699,33.76,4.699z M30.698,27.865c-0.755,1.309-1.523,2.549-2.3,3.715
		c-1.425,0.102-2.898,0.155-4.399,0.155c-1.501,0-2.951-0.046-4.341-0.135c-0.82-1.195-1.609-2.443-2.351-3.724
		c-0.742-1.282-1.426-2.575-2.047-3.864c0.623-1.299,1.306-2.598,2.041-3.873c0.74-1.283,1.519-2.521,2.325-3.703
		c1.436-0.11,2.902-0.167,4.373-0.167c1.484,0,2.949,0.056,4.378,0.165c0.794,1.172,1.569,2.408,2.314,3.693
		c0.757,1.308,1.448,2.593,2.07,3.848C32.138,25.263,31.448,26.565,30.698,27.865z M33.869,26.342
		c0.645,1.468,1.184,2.882,1.612,4.226c-1.391,0.317-2.894,0.573-4.478,0.763c0.496-0.786,0.987-1.601,1.472-2.442
		C32.964,28.04,33.429,27.19,33.869,26.342z M24.083,37.187c-0.972-1.05-1.941-2.211-2.886-3.455
		c0.914,0.035,1.849,0.053,2.803,0.053c0.98,0,1.949-0.022,2.902-0.065C25.965,34.995,25.022,36.155,24.083,37.187z M17.042,31.372
		c-1.577-0.175-3.057-0.413-4.423-0.712c0.425-1.369,0.948-2.793,1.556-4.236c0.429,0.829,0.883,1.657,1.359,2.48
		C16.021,29.746,16.525,30.57,17.042,31.372z M14.169,21.597c-0.595-1.412-1.106-2.803-1.524-4.151
		c1.37-0.306,2.832-0.556,4.349-0.746c-0.504,0.786-0.994,1.591-1.469,2.414C15.05,19.939,14.598,20.768,14.169,21.597z
		 M24.022,10.877c0.945,1.024,1.892,2.168,2.825,3.41c-0.939-0.044-1.89-0.067-2.847-0.067c-0.951,0-1.894,0.022-2.826,0.065
		C22.104,13.058,23.059,11.916,24.022,10.877z M32.466,19.101c-0.475-0.821-0.963-1.622-1.461-2.402
		c1.528,0.193,2.996,0.45,4.378,0.766c-0.413,1.324-0.929,2.71-1.536,4.132C33.413,20.774,32.953,19.942,32.466,19.101z
		 M11.761,13.989c-0.457-2.337-0.548-4.45-0.262-6.111c0.247-1.433,0.768-2.445,1.467-2.85c0.324-0.187,0.737-0.282,1.23-0.282
		c1.981,0,4.848,1.496,7.67,4.001c0.239,0.212,0.479,0.435,0.72,0.665c-1.397,1.5-2.774,3.205-4.087,5.057
		c-2.257,0.208-4.416,0.543-6.408,0.996C11.966,14.964,11.856,14.471,11.761,13.989z M9.44,29.787
		c-2.314-0.791-4.25-1.819-5.598-2.974c-1.155-0.989-1.792-2.003-1.792-2.853c0-2.12,3.492-4.286,6.952-5.492
		c0.526-0.184,1.079-0.356,1.652-0.519c0.602,1.957,1.39,3.998,2.338,6.058c-0.964,2.095-1.763,4.168-2.37,6.151
		C10.216,30.04,9.821,29.917,9.44,29.787z M14.265,43.283c-0.51,0-0.936-0.097-1.267-0.288c-1.836-1.059-1.969-5.166-1.285-8.766
		c0.098-0.517,0.215-1.048,0.351-1.592c1.955,0.433,4.125,0.748,6.466,0.937c1.326,1.868,2.715,3.584,4.121,5.091
		c-0.306,0.294-0.61,0.575-0.913,0.84C19.031,41.871,16.238,43.283,14.265,43.283z M36.301,33.705
		c1.042,5.264,0.035,8.518-1.341,9.315c-0.322,0.186-0.732,0.281-1.217,0.281c-0.872,0-3.301-0.346-7.02-3.546
		c-0.399-0.343-0.801-0.711-1.205-1.1c1.347-1.472,2.698-3.187,4.026-5.111c2.324-0.207,4.517-0.545,6.498-1.002
		C36.139,32.937,36.226,33.325,36.301,33.705z M38.272,29.798c-0.262,0.087-0.531,0.171-0.805,0.252
		c-0.604-1.915-1.42-3.957-2.432-6.085c0.958-2.066,1.746-4.085,2.335-5.988c0.491,0.142,0.967,0.292,1.428,0.451
		c2.252,0.775,4.126,1.756,5.42,2.835c1.117,0.932,1.732,1.89,1.732,2.697C45.949,25.547,43.547,28.051,38.272,29.798z"/>
</g>
</svg>
