<?xml version="1.0" encoding="utf-8"?>
<!-- Generator: Adobe Illustrator 17.0.0, SVG Export Plug-In . SVG Version: 6.00 Build 0)  -->
<!DOCTYPE svg PUBLIC "-//W3C//DTD SVG 1.1//EN" "http://www.w3.org/Graphics/SVG/1.1/DTD/svg11.dtd">
<svg version="1.1" id="Layer_1" xmlns="http://www.w3.org/2000/svg" xmlns:xlink="http://www.w3.org/1999/xlink" x="0px" y="0px"
	 width="48px" height="48px" viewBox="0 0 48 48" enable-background="new 0 0 48 48" xml:space="preserve">
<path d="M27.938,11.757L35.25,8.85l6.562,2.625l-6.562,2.531l-0.75,0.281L27.938,11.757z M20.156,11.757
	c0,0.469-0.281,0.844-0.75,1.125c-0.562,0.375-1.312,0.656-2.156,0.844c-0.938,0.281-1.969,0.375-3,0.375
	c-1.125,0-2.156-0.094-3-0.375c-0.938-0.188-1.688-0.469-2.156-0.844C8.531,12.6,8.25,12.225,8.25,11.757
	c0-0.656,0.562-1.125,1.781-1.594c1.125-0.469,2.531-0.656,4.219-0.656c1.594,0,3,0.188,4.219,0.656
	C19.594,10.632,20.156,11.1,20.156,11.757z M24.938,19.069l-7.781-3.188l11.156-1.688L24.938,19.069z M30.281,8.194l-4.125,0.469
	l-0.938,2.25l-1.5-2.531l-4.781-0.375L22.5,6.694l-1.125-1.969l3.375,1.312l3.188-1.031l-0.844,2.062L30.281,8.194z M48,11.382
	v4.688c0,0.469-0.656,1.031-1.875,1.688c-0.562,0.281-1.781,0.844-3.562,1.688c-1.875,0.844-3.75,1.594-5.625,2.438
	c-1.969,0.844-3.844,1.594-5.719,2.438s-3.094,1.406-3.75,1.688c-1.406,0.75-2.531,1.125-3.469,1.125
	c-1.031,0.094-2.062-0.188-3.188-0.75c-0.656-0.281-3.75-1.594-9.281-3.938C6,20.194,2.812,18.882,1.969,18.413
	C0.656,17.757,0,17.288,0,16.819v-4.875c0,0.469,0.656,1.031,1.969,1.594c0.844,0.469,4.031,1.781,9.562,4.031
	c5.531,2.344,8.625,3.656,9.281,4.031c1.125,0.469,2.156,0.75,3.188,0.656c0.938,0,2.062-0.375,3.469-1.125
	c0.844-0.375,2.625-1.125,5.344-2.344s5.531-2.344,8.25-3.562s4.406-1.969,5.062-2.344C47.344,12.225,47.906,11.757,48,11.382z
	 M48,19.538v4.781c0,0.469-0.656,1.031-1.875,1.688c-0.844,0.469-3.844,1.781-9.188,4.031c-5.344,2.344-8.531,3.75-9.469,4.219
	c-1.406,0.656-2.531,1.031-3.469,1.125c-1.031,0.094-2.062-0.188-3.188-0.75c-0.562-0.281-2.25-1.031-5.062-2.25
	c-2.812-1.125-5.625-2.25-8.438-3.469c-2.906-1.219-4.688-1.969-5.344-2.25C0.656,26.007,0,25.538,0,25.069v-4.875
	c0,0.469,0.656,0.938,1.969,1.594c0.844,0.469,4.031,1.781,9.562,4.031c5.531,2.344,8.625,3.656,9.281,3.938
	c1.125,0.562,2.156,0.844,3.188,0.75c0.938,0,2.062-0.375,3.469-1.125c0.938-0.469,4.125-1.875,9.469-4.219
	c5.344-2.25,8.344-3.562,9.188-4.031C47.344,20.475,47.906,20.007,48,19.538z M48,27.507v4.687c0,0.469-0.656,1.031-1.875,1.688
	c-0.844,0.469-3.844,1.781-9.188,4.031c-5.344,2.344-8.531,3.75-9.469,4.219c-1.406,0.75-2.531,1.125-3.469,1.125
	c-1.031,0.094-2.062-0.188-3.188-0.75c-0.562-0.281-2.25-0.938-5.062-2.156s-5.625-2.344-8.438-3.562
	c-2.906-1.125-4.688-1.875-5.344-2.25C0.656,33.882,0,33.413,0,32.944v-4.875c0,0.469,0.656,1.031,1.969,1.594
	c0.844,0.469,4.031,1.781,9.562,4.031c5.531,2.344,8.625,3.656,9.281,4.031c1.125,0.469,2.156,0.75,3.188,0.656
	c0.938,0,2.062-0.375,3.469-1.125c0.938-0.469,4.125-1.875,9.469-4.219c5.344-2.25,8.344-3.562,9.188-4.031
	C47.344,28.35,47.906,27.882,48,27.507z"/>
</svg>
