<?xml version="1.0" encoding="utf-8"?>
<!-- Generator: Adobe Illustrator 17.0.0, SVG Export Plug-In . SVG Version: 6.00 Build 0)  -->
<!DOCTYPE svg PUBLIC "-//W3C//DTD SVG 1.1//EN" "http://www.w3.org/Graphics/SVG/1.1/DTD/svg11.dtd">
<svg version="1.1" id="Layer_1" xmlns="http://www.w3.org/2000/svg" xmlns:xlink="http://www.w3.org/1999/xlink" x="0px" y="0px"
	 width="48px" height="48px" viewBox="0 0 48 48" enable-background="new 0 0 48 48" xml:space="preserve">
<path d="M2.959,17.753l19.068,20.055l-9.12-20.055H2.959z M15.422,17.753l8.73,19.846l8.731-19.846H15.422z M44.712,17.753h-9.316
	l-9.095,20.055L44.712,17.753z M16.507,15.452h15.658l-7.829-8.177L16.507,15.452z M37.8,6.575H26.397l7.813,8.161L37.8,6.575z
	 M10.504,6.575l3.705,8.423l8.065-8.423L10.504,6.575L10.504,6.575z M44.737,15.452L39.72,7.926l-3.311,7.526L44.737,15.452
	L44.737,15.452z M3.687,15.452h8.207L8.658,8.095L3.687,15.452z M8.219,5.26h31.89L48,17.096L24,42.74L0,17.425L8.219,5.26z"/>
</svg>
