<?xml version="1.0" encoding="utf-8"?>
<!-- Generator: Adobe Illustrator 17.0.0, SVG Export Plug-In . SVG Version: 6.00 Build 0)  -->
<!DOCTYPE svg PUBLIC "-//W3C//DTD SVG 1.1//EN" "http://www.w3.org/Graphics/SVG/1.1/DTD/svg11.dtd">
<svg version="1.1" id="Layer_1" xmlns="http://www.w3.org/2000/svg" xmlns:xlink="http://www.w3.org/1999/xlink" x="0px" y="0px"
	 width="48px" height="48px" viewBox="0 0 48 48" enable-background="new 0 0 48 48" xml:space="preserve">
<path d="M22.498,5.655c0-0.788,0.639-1.427,1.427-1.427c0.788,0,1.427,0.639,1.427,1.427s-0.639,1.427-1.427,1.427
	C23.137,7.082,22.498,6.443,22.498,5.655 M5.479,18.572c0-0.788,0.639-1.426,1.427-1.426c0.788,0,1.426,0.639,1.426,1.426
	c0,0.788-0.639,1.426-1.427,1.426C6.117,19.998,5.479,19.36,5.479,18.572 M39.518,18.639c0-0.788,0.639-1.427,1.427-1.427
	c0.788,0,1.427,0.639,1.427,1.427s-0.639,1.427-1.427,1.427C40.156,20.066,39.518,19.427,39.518,18.639 M9.609,20.594
	c0.656-0.291,0.953-1.061,0.661-1.719l-0.633-1.431h2.489v11.221H7.104c-0.62-2.177-0.813-4.454-0.569-6.705L9.609,20.594z
	 M20.022,20.869v-3.307h5.928c0.306,0,2.162,0.354,2.162,1.742c0,1.152-1.423,1.565-2.594,1.565L20.022,20.869z M11.929,38.677
	c0-0.788,0.639-1.426,1.427-1.426c0.788,0,1.426,0.639,1.426,1.426c0,0.788-0.639,1.426-1.427,1.426
	C12.567,40.103,11.929,39.464,11.929,38.677 M33.068,38.743c0-0.788,0.639-1.427,1.427-1.427c0.788,0,1.427,0.639,1.427,1.427
	s-0.639,1.427-1.427,1.427C33.706,40.17,33.068,39.531,33.068,38.743 M33.509,35.508c-0.703-0.151-1.394,0.297-1.545,1.001
	l-0.716,3.342c-4.66,2.111-10.009,2.085-14.648-0.07l-0.716-3.342c-0.151-0.703-0.842-1.151-1.544-1l-2.95,0.633
	c-0.548-0.564-1.058-1.165-1.525-1.798h14.355c0.162,0,0.271-0.029,0.271-0.177v-5.078c0-0.148-0.108-0.177-0.271-0.177h-4.198
	v-3.219h4.541c0.415,0,2.216,0.118,2.792,2.421c0.18,0.708,0.577,3.012,0.847,3.75c0.27,0.827,1.369,2.48,2.54,2.48h7.412
	c-0.497,0.665-1.041,1.295-1.627,1.883L33.509,35.508z M41.48,22.101c0.101,1.013,0.113,2.034,0.037,3.049h-1.802
	c-0.18,0-0.253,0.118-0.253,0.295v0.828c0,1.948-1.098,2.372-2.061,2.48c-0.917,0.103-1.933-0.384-2.058-0.945
	c-0.541-3.042-1.442-3.691-2.865-4.813c1.766-1.121,3.603-2.776,3.603-4.99c0-2.391-1.639-3.897-2.756-4.636
	c-1.568-1.033-3.303-1.24-3.771-1.24H10.915c2.577-2.879,6.031-4.828,9.827-5.546l2.197,2.305c0.497,0.52,1.319,0.539,1.839,0.042
	l2.458-2.351c5.072,0.95,9.469,4.082,12.025,8.564l-1.683,3.801c-0.291,0.658,0.006,1.427,0.662,1.719L41.48,22.101z M45.677,22.163
	l-0.057-0.588l1.733-1.617c0.353-0.329,0.221-0.99-0.23-1.158l-2.216-0.829L44.734,17.4l1.382-1.92
	c0.282-0.39,0.023-1.013-0.452-1.091l-2.336-0.38l-0.281-0.525l0.982-2.155c0.201-0.439-0.173-1-0.656-0.982l-2.371,0.083
	l-0.375-0.454l0.545-2.31c0.11-0.469-0.366-0.946-0.835-0.835l-2.309,0.544L37.572,7l0.083-2.371
	c0.018-0.48-0.543-0.855-0.981-0.656l-2.155,0.982l-0.525-0.281l-0.381-2.337c-0.077-0.474-0.7-0.733-1.091-0.452l-1.921,1.382
	l-0.571-0.173l-0.829-2.216c-0.168-0.452-0.83-0.582-1.158-0.231l-1.617,1.735L25.84,2.324l-1.249-2.017
	c-0.252-0.409-0.929-0.409-1.18,0l-1.249,2.017l-0.588,0.057l-1.617-1.735c-0.328-0.351-0.99-0.221-1.158,0.231l-0.829,2.216
	L17.4,3.267l-1.921-1.382c-0.39-0.282-1.014-0.022-1.091,0.452l-0.381,2.337l-0.525,0.281l-2.155-0.982
	c-0.438-0.2-1,0.176-0.981,0.656L10.429,7L9.974,7.374L7.664,6.83C7.195,6.721,6.719,7.196,6.829,7.665l0.544,2.31L6.999,10.43
	l-2.371-0.083c-0.478-0.014-0.855,0.543-0.656,0.982l0.982,2.155l-0.281,0.525l-2.336,0.38c-0.475,0.077-0.732,0.701-0.452,1.091
	l1.382,1.92l-0.174,0.572L0.877,18.8c-0.45,0.168-0.582,0.829-0.23,1.158l1.734,1.617l-0.057,0.588l-2.017,1.249
	c-0.409,0.252-0.409,0.929,0,1.18l2.017,1.249l0.057,0.588l-1.734,1.617c-0.352,0.328-0.22,0.989,0.23,1.158l2.216,0.829
	l0.174,0.572l-1.382,1.92c-0.281,0.391-0.022,1.014,0.452,1.091l2.336,0.38l0.281,0.526l-0.982,2.154
	c-0.2,0.438,0.178,1.001,0.656,0.982l2.37-0.083l0.375,0.455l-0.544,2.31c-0.11,0.468,0.366,0.944,0.835,0.834l2.309-0.544
	l0.455,0.374l-0.083,2.372c-0.018,0.48,0.543,0.856,0.981,0.656l2.155-0.982l0.525,0.281l0.381,2.336
	c0.077,0.476,0.701,0.733,1.091,0.453l1.92-1.383l0.572,0.174l0.829,2.215c0.168,0.45,0.83,0.583,1.158,0.23l1.617-1.734
	l0.588,0.059l1.249,2.017c0.252,0.407,0.928,0.408,1.18,0l1.249-2.017l0.588-0.059l1.617,1.734c0.328,0.353,0.99,0.22,1.158-0.23
	l0.829-2.215l0.572-0.174l1.92,1.383c0.39,0.28,1.014,0.022,1.091-0.453l0.381-2.336l0.525-0.281l2.155,0.982
	c0.438,0.2,0.999-0.174,0.981-0.656l-0.083-2.372l0.455-0.374l2.309,0.544c0.469,0.11,0.945-0.365,0.835-0.834l-0.544-2.31
	l0.374-0.455l2.371,0.083c0.478,0.019,0.857-0.544,0.655-0.982l-0.982-2.154l0.281-0.526l2.336-0.38
	c0.476-0.076,0.734-0.7,0.452-1.091l-1.382-1.92l0.174-0.572l2.216-0.829c0.451-0.169,0.583-0.83,0.23-1.158l-1.733-1.617
	l0.057-0.588l2.017-1.249c0.409-0.252,0.409-0.928,0-1.18L45.677,22.163z"/>
</svg>
