<?xml version="1.0" encoding="utf-8"?>
<!-- Generator: Adobe Illustrator 17.0.0, SVG Export Plug-In . SVG Version: 6.00 Build 0)  -->
<!DOCTYPE svg PUBLIC "-//W3C//DTD SVG 1.1//EN" "http://www.w3.org/Graphics/SVG/1.1/DTD/svg11.dtd">
<svg version="1.1" id="Layer_1" xmlns="http://www.w3.org/2000/svg" xmlns:xlink="http://www.w3.org/1999/xlink" x="0px" y="0px"
	 width="48px" height="48px" viewBox="0 0 48 48" enable-background="new 0 0 48 48" xml:space="preserve">
<g>
	<g>
		<path d="M43.924,5.872C42.486,0.233,33.137-1.62,24.288,1.523C19.021,3.394,13.32,6.331,9.221,10.165
			C4.347,14.724,3.57,18.691,3.89,20.349c1.13,5.85,9.146,9.674,12.441,12.511v0.017c-0.972,0.478-8.083,4.077-9.748,7.757
			c-1.756,3.882,0.28,6.667,1.627,7.042c4.176,1.162,8.461-0.928,10.763-4.363c2.222-3.315,2.037-7.595,1.071-9.724
			c1.332-0.352,2.885-0.509,4.859-0.278c5.569,0.65,6.662,4.128,6.453,5.583c-0.209,1.456-1.377,2.256-1.768,2.497
			c-0.391,0.242-0.51,0.325-0.477,0.505c0.047,0.261,0.228,0.251,0.561,0.195c0.459-0.077,2.925-1.184,3.03-3.87
			c0.134-3.411-3.134-7.226-8.922-7.127c-2.384,0.041-3.882,0.268-4.965,0.671c-0.08-0.091-0.161-0.182-0.246-0.272
			c-3.578-3.817-10.192-6.518-9.912-11.65c0.102-1.866,0.751-6.779,12.71-12.738c9.797-4.882,17.639-3.538,18.995-0.561
			c1.936,4.253-4.191,12.159-14.365,13.299c-3.876,0.435-5.917-1.068-6.425-1.627c-0.534-0.589-0.614-0.616-0.814-0.505
			c-0.325,0.18-0.119,0.7,0,1.01c0.304,0.791,1.55,2.192,3.675,2.89c1.869,0.614,6.42,0.951,11.924-1.178
			C40.524,18.049,45.338,11.416,43.924,5.872z M17.699,34.608c0.462,1.709,0.411,3.302-0.066,4.745
			c-0.053,0.16-0.111,0.319-0.175,0.475c-0.063,0.157-0.132,0.311-0.206,0.464c-0.368,0.763-0.862,1.478-1.466,2.138
			c-1.845,2.012-4.422,2.773-5.527,2.132c-1.193-0.692-0.596-3.529,1.543-5.79c2.301-2.432,5.611-3.996,5.611-3.996l-0.005-0.01
			C17.504,34.715,17.601,34.662,17.699,34.608z"/>
	</g>
</g>
</svg>
