<?xml version="1.0" encoding="utf-8"?>
<!-- Generator: Adobe Illustrator 17.0.0, SVG Export Plug-In . SVG Version: 6.00 Build 0)  -->
<!DOCTYPE svg PUBLIC "-//W3C//DTD SVG 1.1//EN" "http://www.w3.org/Graphics/SVG/1.1/DTD/svg11.dtd">
<svg version="1.1" id="Layer_1" xmlns="http://www.w3.org/2000/svg" xmlns:xlink="http://www.w3.org/1999/xlink" x="0px" y="0px"
	 width="48px" height="48px" viewBox="0 0 48 48" enable-background="new 0 0 48 48" xml:space="preserve">
<path d="M41.416,30.526l0.005-0.216v-0.108v-0.108l-0.108-0.108c-0.108-0.108-0.108-0.216-0.216-0.324
	c-0.108-0.108-0.324-0.324-0.539-0.431c-0.656-0.422-1.292-0.756-1.916-0.997c1.502-0.547,2.432-1.113,2.779-1.699l0.108-11.326
	c-0.001,0.001-0.002,0.001-0.002,0.002l0.002-0.11v-0.108H41.42l-0.108-0.324c-0.108-0.216-0.324-0.431-0.647-0.647
	c-0.695-0.447-1.366-0.767-2.027-0.996c1.504-0.547,2.435-1.114,2.782-1.7L41.528,0C39.91,1.942,28.8,3.991,7.982,6.256
	c-0.755,0.108-1.186,0.108-1.51,0.108v10.341l-0.108,0.014l0.108,1.187c2.912,0.108,5.933,0.539,9.061,1.079
	c1.633,0.338,3.171,0.676,4.612,1.03c-3.612,0.474-7.648,0.957-12.163,1.451c-0.755,0.108-1.186,0.108-1.51,0.216v10.232
	l-0.108,0.015l0.108,1.187c3.667,0.108,7.335,0.647,11.11,1.51c0.696,0.179,1.415,0.373,2.133,0.566
	c-1.359,0.174-2.478,0.311-3.32,0.404c-2.049,0.324-5.285,0.647-9.924,1.187V48c0.539,0,1.294-0.108,2.481-0.216
	c20.171-1.726,31.065-3.775,32.467-6.148l0.216-11.326C41.573,30.383,41.495,30.455,41.416,30.526z M20.926,19.092
	c-3.116-0.831-6.127-1.457-8.947-1.888c10.524-0.964,18.251-2.024,23.168-3.182h0.126h0.108l0.203-0.101
	c0.14-0.034,0.282-0.069,0.417-0.103c0.106-0.008,0.215-0.011,0.351-0.011c1.079,0,2.265,0.431,3.56,1.187
	c0.108,0.108,0.216,0.108,0.216,0.216l-0.01,0.886c-2.584,1.133-8.317,2.307-17.178,3.541C22.26,19.451,21.585,19.268,20.926,19.092
	z M11.923,32.418c10.552-0.965,18.298-2.027,23.224-3.187h0.018l0.005-0.005c0.437-0.103,0.852-0.207,1.244-0.312
	c0.959,0.017,2.121,0.443,3.389,1.288c0.216,0.108,0.324,0.108,0.324,0.216l-0.021,0.909c-0.782,0.354-1.808,0.694-3.107,1.032
	c-2.481,0.647-6.04,1.294-10.679,1.942c-1.357,0.189-2.59,0.358-3.723,0.51C18.312,33.649,14.755,32.829,11.923,32.418z"/>
</svg>
