<?xml version="1.0" encoding="utf-8"?>
<!-- Generator: Adobe Illustrator 17.0.0, SVG Export Plug-In . SVG Version: 6.00 Build 0)  -->
<!DOCTYPE svg PUBLIC "-//W3C//DTD SVG 1.1//EN" "http://www.w3.org/Graphics/SVG/1.1/DTD/svg11.dtd">
<svg version="1.1" id="Layer_1" xmlns="http://www.w3.org/2000/svg" xmlns:xlink="http://www.w3.org/1999/xlink" x="0px" y="0px"
	 width="48px" height="48px" viewBox="0 0 48 48" enable-background="new 0 0 48 48" xml:space="preserve">
<path d="M47.606,14.621c-0.592-1.039-1.742-1.623-2.937-1.494L31.478,14.6l-7.395-9.14c-0.688-0.851-1.783-1.261-2.865-1.065
	c-1.078,0.195-1.963,0.962-2.31,2l-4.106,12.286L1.914,23.683c-1.081,0.42-1.823,1.425-1.906,2.582
	c-0.083,1.157,0.509,2.257,1.52,2.827l9.998,5.63l5.562-3.636c-0.181-0.174-0.383-0.33-0.608-0.457l-6.481-3.65l8.287-3.215
	c0.832-0.323,1.477-0.999,1.759-1.845l2.818-8.432l4.986,6.163c0.643,0.795,1.641,1.206,2.664,1.094l7.912-0.884l-4.812,6.394
	c-0.611,0.812-0.769,1.879-0.42,2.833l2.738,7.484l-7.396-1.604l0.777,6.306l10.67,2.314c1.067,0.233,2.179-0.136,2.896-0.96
	c0.718-0.825,0.931-1.974,0.556-3.001l-4.048-11.068l8.013-10.646C48.117,16.953,48.199,15.661,47.606,14.621z"/>
</svg>
