<?xml version="1.0" encoding="utf-8"?>
<!-- Generator: Adobe Illustrator 17.0.0, SVG Export Plug-In . SVG Version: 6.00 Build 0)  -->
<!DOCTYPE svg PUBLIC "-//W3C//DTD SVG 1.1//EN" "http://www.w3.org/Graphics/SVG/1.1/DTD/svg11.dtd">
<svg version="1.1" id="Layer_1" xmlns="http://www.w3.org/2000/svg" xmlns:xlink="http://www.w3.org/1999/xlink" x="0px" y="0px"
	 width="48px" height="48px" viewBox="0 0 48 48" enable-background="new 0 0 48 48" xml:space="preserve">
<g>
	<path d="M8.494,43.579c-0.149,0.032-0.287,0.067-0.404,0.106C8.09,43.685,8.231,43.65,8.494,43.579z"/>
	<path d="M43.444,0.994c-2.001,7.115-8.449,11.34-21.346,13.563C9.202,16.78,2.652,17.905,0.419,27.009
		C-1.749,35.847,5.2,39.683,5.2,39.683c29.795-3.558,35.354-21.79,35.354-21.79C38.997,27.453,28.102,36.57,20.764,39.46
		c-6.154,2.424-10.899,3.753-12.27,4.119c3.25-0.707,13.828,0.106,18.718,0.106c5.114,0,17.788,0,20.234-15.12
		C49.892,13.445,43.444,0.994,43.444,0.994z"/>
	<circle cx="3.122" cy="44.206" r="2.8"/>
</g>
</svg>
