<?xml version="1.0" encoding="utf-8"?>
<!-- Generator: Adobe Illustrator 17.0.0, SVG Export Plug-In . SVG Version: 6.00 Build 0)  -->
<!DOCTYPE svg PUBLIC "-//W3C//DTD SVG 1.1//EN" "http://www.w3.org/Graphics/SVG/1.1/DTD/svg11.dtd">
<svg version="1.1" id="Layer_1" xmlns="http://www.w3.org/2000/svg" xmlns:xlink="http://www.w3.org/1999/xlink" x="0px" y="0px"
	 width="48px" height="48px" viewBox="0 0 48 48" enable-background="new 0 0 48 48" xml:space="preserve">
<path d="M45.928,19.395l-0.102-0.16c-0.582-0.904-0.979-1.462-1.457-2.053c-1.396-1.726-3.085-3.134-5.155-4.293
	c-2.845-1.593-6.534-2.83-11.199-3.758c-0.879-0.175-2.801-0.504-4.369-0.749l-0.158-0.277c-0.857-1.512-1.804-3.384-2.354-4.65
	c-0.426-0.981-0.835-2.111-1.061-2.929C19.938,0.04,19.924,0.009,19.85,0c-0.161-0.019-2.741,0.911-4.4,1.585
	c-2.247,0.913-3.991,1.787-5.067,2.543c-0.35,0.246-0.779,0.663-0.931,0.894C9.451,5.018,9.45,5.014,9.449,5.01
	c0,0-0.019,0.031-0.038,0.085C9.409,5.1,9.407,5.105,9.405,5.108c-0.028,0.073-0.04,0.157-0.041,0.245l0.013,0.012
	C9.381,5.446,9.399,5.538,9.44,5.64c0.093,0.233,0.373,0.513,0.681,0.809c0,0,3.23,3.151,3.625,3.607
	c1.789,2.065,2.567,4.099,2.639,6.906c0.046,1.801-0.301,3.385-1.145,5.225c-1.512,3.299-4.699,6.936-9.62,10.981l0.061-0.02
	c-0.031,0.024-0.062,0.05-0.092,0.074c-0.587,0.468-1.461,1.335-1.907,1.89c-0.664,0.827-1.183,1.708-1.407,2.386
	c-0.402,1.22-0.206,2.455,0.569,3.595c0.99,1.456,2.96,2.936,5.251,3.943c1.169,0.514,3.141,1.176,4.62,1.55
	c2.465,0.622,7.228,1.299,9.851,1.399c0.532,0.02,1.24,0.018,1.273-0.003c0.058-0.038,0.466-0.811,0.94-1.779
	c1.612-3.294,2.779-6.381,3.406-9.018c0.38-1.597,0.676-3.726,0.868-6.25c0.054-0.707,0.073-3.066,0.032-3.867
	c-0.067-1.304-0.182-2.368-0.367-3.411c-0.013-0.075-0.022-0.146-0.027-0.199c5.838-1.735,12.295-3.305,16.573-3.96L45.928,19.395z
	 M29.965,10.698c0.067,0,1.391,0.361,2.076,0.566c1.705,0.51,3.672,1.229,4.949,1.808l0.531,0.24l-0.374,0.087
	c-3.122,0.717-5.799,1.545-8.376,2.591c-0.214,0.087-0.401,0.158-0.414,0.158c-0.013,0,0.055-0.166,0.151-0.368
	c0.775-1.646,1.275-3.374,1.405-4.841C29.924,10.806,29.948,10.698,29.965,10.698z M29.253,11.571
	c-0.264,1.082-0.964,2.689-1.828,4.199c-0.152,0.266-0.288,0.488-0.304,0.493c-0.016,0.005-0.212-0.099-0.436-0.23
	c-0.845-0.494-1.801-0.961-2.851-1.395c-0.293-0.121-0.542-0.228-0.555-0.24c-0.048-0.045,2.286-1.59,3.524-2.333
	c0.99-0.594,2.583-1.482,2.611-1.454C29.436,10.634,29.338,11.223,29.253,11.571z M23.295,25.65c1.5,0.94,3.531,2.07,4.401,2.45
	c0.27,0.118,0.301,0.072-0.321,0.494c-1.325,0.9-2.972,1.784-4.994,2.683c-0.352,0.157-0.651,0.284-0.663,0.284
	s0.027-0.179,0.087-0.398c0.49-1.812,0.766-3.641,0.774-5.108c0.002-0.359,0.003-0.541,0.012-0.636
	c0.065-0.023,0.13-0.046,0.196-0.069C22.887,25.4,23.046,25.495,23.295,25.65z M11.183,30.575c0.05-0.24,0.073-0.35,0.114-0.417
	c1.302-0.65,2.672-1.288,4.13-1.921c-0.084,0.21-0.388,0.843-0.689,1.43c-0.703,1.372-1.478,2.722-2.508,4.369
	c-0.178,0.284-0.341,0.544-0.363,0.576c-0.037,0.053-0.052,0.036-0.164-0.189c-0.246-0.49-0.453-1.108-0.56-1.683
	C11.038,32.171,11.056,31.186,11.183,30.575z M18.661,23.001c0.151-0.185,0.288-0.345,0.306-0.356
	c0.005-0.003,0.009-0.004,0.014-0.005l0,0c0.033-0.004,0.08,0.058,0.277,0.351c0.414,0.619,0.732,1.445,0.814,2.117l0.017,0.144
	l-0.993,0.385c-1.783,0.692-3.423,1.374-4.532,1.881c-0.31,0.142-0.858,0.404-1.215,0.582c-0.357,0.179-0.649,0.319-0.649,0.312
	c0-0.008,0.224-0.176,0.499-0.376C15.373,26.458,17.248,24.729,18.661,23.001z M16.844,14.104c-0.029-0.202-0.047-0.374-0.04-0.382
	v0c0.021-0.021,1.029,0.215,1.579,0.37c0.826,0.232,2.584,0.82,2.585,0.865c0,0.009-0.194,0.178-0.43,0.376
	c-0.95,0.795-1.867,1.627-2.965,2.687c-0.326,0.314-0.602,0.57-0.616,0.57c-0.014,0-0.02-0.046-0.012-0.102
	C17.11,17.268,17.074,15.7,16.844,14.104z M21.193,9.013c0.041,0.014,0.12,0.258,0.259,0.808c0.266,1.052,0.389,2.233,0.348,3.326
	c-0.011,0.304-0.031,0.587-0.043,0.628l-0.023,0.076l-0.376-0.122c-0.774-0.248-2.039-0.62-3.124-0.92
	c-0.616-0.17-1.121-0.323-1.121-0.338c0-0.045,0.899-0.944,1.285-1.285C19.138,10.534,21.123,8.99,21.193,9.013L21.193,9.013z
	 M19.312,17.432c0.685-0.579,2.127-1.733,2.144-1.715c0.02,0.02-0.225,0.919-0.38,1.399c-0.297,0.921-0.8,2.079-1.284,2.95
	c-0.113,0.205-0.288,0.504-0.386,0.666l-0.179,0.294l-0.408-0.394c-0.474-0.459-0.859-0.744-1.352-0.998
	c-0.194-0.1-0.351-0.192-0.351-0.205C17.115,19.369,18.355,18.241,19.312,17.432z M13.241,35.649c2.37-0.649,4.381-1.344,6.38-2.205
	c0.283-0.122,0.518-0.218,0.523-0.213c0.005,0.005-0.052,0.158-0.126,0.338c-0.633,1.532-1.463,3.202-2.521,5.079
	c-0.269,0.478-0.496,0.868-0.505,0.867c-0.009-0.001-0.228-0.13-0.487-0.289c-1.541-0.944-2.905-2.105-3.8-3.235l-0.128-0.16
	L13.241,35.649z M19.152,32.596c-1.374,0.521-2.87,1.043-4.588,1.598c-0.655,0.212-1.209,0.39-1.23,0.398
	c-0.065,0.024-0.045-0.016,0.146-0.315c0.854-1.333,2.147-3.94,2.87-5.783c0.125-0.32,0.245-0.64,0.266-0.712
	c0.007-0.024,0.015-0.044,0.023-0.062c0.1-0.042,0.201-0.084,0.302-0.125c0.022,0.043,0.061,0.137,0.099,0.239
	c0.232,0.629,0.752,1.563,1.204,2.161c0.494,0.653,1.137,1.348,1.676,1.81c0.173,0.148,0.334,0.287,0.357,0.307
	C20.322,32.153,20.338,32.146,19.152,32.596z M19.427,30.159c-0.565-0.655-1.011-1.306-1.337-1.947
	c-0.138-0.271-0.343-0.762-0.394-0.929c1.03-0.419,2.102-0.838,3.225-1.26c0.242-0.091,0.492-0.183,0.745-0.275
	c0.026,0.298-0.004,1.656-0.052,2.055c-0.127,1.063-0.335,2.046-0.668,3.163c-0.079,0.267-0.154,0.497-0.166,0.511
	C20.752,31.511,19.758,30.543,19.427,30.159z M20.591,25.039c-0.019,0.006-0.03-0.099-0.03-0.266
	c-0.002-0.88-0.224-1.82-0.617-2.616c-0.166-0.336-0.194-0.418-0.16-0.449c0.137-0.124,2.254-1.331,3.589-2.047
	c0.917-0.492,2.325-1.207,2.342-1.189c0.017,0.017-0.984,1.419-1.579,2.211c-0.712,0.947-1.979,2.531-2.851,3.562
	C20.92,24.676,20.608,25.033,20.591,25.039z M25.077,17.665c-1.365,0.683-2.535,1.328-3.756,2.074
	c-0.348,0.213-0.64,0.388-0.649,0.388c-0.03,0-0.018-0.026,0.176-0.383c0.65-1.191,1.175-2.613,1.477-4.003
	c0.027-0.124,0.059-0.2,0.082-0.195v0c0.101,0.023,1.044,0.462,1.756,0.818c0.651,0.326,1.637,0.851,1.687,0.897
	C25.856,17.267,25.509,17.449,25.077,17.665z M28.621,10.377c0.043,0.018-0.109,0.1-0.595,0.319c-1.921,0.866-3.345,1.64-4.76,2.587
	c-0.373,0.249-0.682,0.453-0.689,0.453c-0.006,0-0.012-0.208-0.012-0.462c-0.001-1.38-0.276-2.773-0.782-3.949
	c-0.054-0.127-0.095-0.235-0.09-0.24c0.022-0.021,3.008,0.496,4.365,0.756C27.07,10.034,28.533,10.34,28.621,10.377z M21.142,5.594
	L21.142,5.594c0.031,0.002,0.063,0.065,0.154,0.263c0.248,0.543,1.019,2.015,1.206,2.299c0.016,0.024,0.033,0.042,0.035,0.053
	c-1.593-0.25-2.913-0.462-4.153-0.668c0.01-0.014,0.077-0.057,0.16-0.104c0.762-0.424,1.531-0.957,2.216-1.534
	c0.164-0.138,0.321-0.269,0.35-0.294C21.121,5.599,21.132,5.593,21.142,5.594z M15.795,2.014c1.003-0.467,3.734-1.604,3.933-1.639
	c0.006-0.001,0.01-0.001,0.011,0c0.005,0.006,0.034,0.209,0.064,0.45c0.124,1.016,0.351,2.001,0.707,3.061
	c0.268,0.799,0.272,0.752-0.047,0.663c-0.742-0.207-4.064-0.777-6.468-1.11c-0.387-0.054-0.71-0.101-0.715-0.106
	C13.249,3.302,15.013,2.378,15.795,2.014z M13.006,3.723c1.543,0.525,5.411,1.264,7.549,1.442c0.241,0.02,0.444,0.042,0.45,0.047
	c0.006,0.006-0.199,0.115-0.455,0.243c-1.031,0.517-2.167,1.146-2.952,1.638c-0.182,0.114-0.35,0.209-0.428,0.244
	c-0.236-0.04-0.472-0.08-0.708-0.121l-0.693-0.673c-1.281-1.24-2.282-2.2-2.669-2.562l-0.376-0.353L13.006,3.723z M12.346,3.919
	l0.093-0.064l1.022,1.276c0.563,0.702,1.126,1.398,1.252,1.548c0.106,0.127,0.191,0.236,0.211,0.27
	c-0.711-0.124-1.501-0.265-2.088-0.391c-0.055-0.012-0.108-0.024-0.158-0.036c-0.205-0.047-0.379-0.088-0.533-0.125
	c-0.398-0.099-0.855-0.224-1.245-0.358c-0.072-0.028-0.148-0.057-0.226-0.086l0.001-0.082C10.68,5.382,11.298,4.659,12.346,3.919z
	 M15.421,11.349c-0.849-1.493-2.194-3.012-3.749-4.234c-0.194-0.152-0.351-0.282-0.351-0.287c0.005-0.004,0.126,0.033,0.274,0.084
	c0.273,0.093,0.632,0.201,1.051,0.318c0.293,0.082,0.616,0.168,0.958,0.255c0.437,0.112,0.798,0.208,0.803,0.213
	c0.048,0.054,0.782,2.397,1.033,3.295c0.096,0.343,0.168,0.629,0.161,0.636C15.593,11.636,15.512,11.509,15.421,11.349z
	 M16.333,11.708c-0.264-1.012-0.81-2.506-1.299-3.557c-0.079-0.169-0.143-0.318-0.143-0.332c0,0,0.002-0.003,0.008-0.003v0
	c0.037-0.003,0.199,0.024,0.391,0.067c1.238,0.274,3.449,0.701,4.871,0.94c0.237,0.04,0.432,0.083,0.432,0.096
	c0,0.013-0.088,0.069-0.196,0.123c-0.239,0.12-1.204,0.698-1.527,0.914c-0.806,0.54-1.531,1.117-2.059,1.642
	c-0.212,0.211-0.39,0.383-0.395,0.383C16.41,11.981,16.372,11.858,16.333,11.708z M14.802,24.289c0.48-0.734,0.721-1.15,0.973-1.68
	c0.224-0.472,0.447-1.032,0.607-1.519c0.066-0.202,0.135-0.368,0.154-0.368v0c0.018,0,0.188,0.085,0.377,0.19
	c0.463,0.257,0.88,0.539,1.247,0.846c0.014,0.012-0.176,0.167-0.423,0.345c-0.689,0.497-1.738,1.288-2.345,1.772
	C14.751,24.384,14.73,24.399,14.802,24.289z M12.311,27.513c0.476-0.519,0.841-0.95,1.255-1.487
	c0.273-0.354,0.325-0.404,0.724-0.692c1.076-0.776,3.534-2.442,3.563-2.413c0.029,0.029-0.803,0.969-1.363,1.541
	c-1.401,1.43-2.791,2.552-4.512,3.644c-0.215,0.137-0.412,0.26-0.438,0.275C11.492,28.407,11.555,28.336,12.311,27.513z
	 M3.473,37.383c0.166-1.066,0.979-2.466,2.115-3.641c0.653-0.675,1.195-1.113,1.994-1.599c0.352-0.202,0.787-0.444,1.341-0.747
	c0.346-0.189,0.698-0.377,1.053-0.563c0.009,0.027-0.004,0.107-0.039,0.311c-0.032,0.186-0.069,0.538-0.082,0.78
	c-0.058,1.063,0.114,1.847,0.642,2.92c0.147,0.298,0.262,0.547,0.255,0.552c-0.053,0.044-4.859,1.451-6.37,1.864
	c-0.448,0.123-0.839,0.231-0.871,0.24C3.459,37.517,3.454,37.506,3.473,37.383z M6.413,42.549l-0.325-0.274
	c-0.382-0.321-1.05-1.001-1.353-1.379C4.11,40.118,3.687,39.3,3.52,38.548c-0.077-0.347-0.079-0.524-0.006-0.546
	c0.106-0.032,2.047-0.489,3.867-0.911c1.011-0.234,2.18-0.509,2.599-0.61c0.419-0.101,0.765-0.18,0.77-0.176v0
	c0.018,0.017-0.908,1.342-2.201,3.151c-0.449,0.629-0.977,1.37-1.173,1.647c-0.195,0.277-0.491,0.715-0.658,0.975L6.413,42.549z
	 M6.912,42.929l-0.134-0.096l0.21-0.303c0.681-0.987,1.537-2.071,3.41-4.325l1.284-1.545v0l0.234,0.262
	c1.047,1.166,2.112,2.037,3.411,2.788c0.229,0.133,0.404,0.248,0.389,0.257C15.661,40,11.223,41.578,9.17,42.294
	c-1.158,0.403-2.109,0.732-2.114,0.731C7.051,43.024,6.985,42.981,6.912,42.929z M13.121,45.8l-0.108-0.029
	c-0.261-0.071-2.098-0.72-2.584-0.912C9.827,44.62,9.2,44.332,8.738,44.082c-0.578-0.312-1.311-0.776-1.253-0.794
	c0.017-0.005,1.011-0.277,2.208-0.604c3.185-0.868,4.947-1.367,6.103-1.728c0.216-0.067,0.396-0.118,0.4-0.114l0,0
	c0.009,0.009-0.506,0.835-1.413,2.263c-0.383,0.603-0.817,1.289-0.966,1.525c-0.149,0.236-0.367,0.594-0.484,0.798L13.121,45.8z
	 M13.702,45.934c0-0.016,0.174-0.236,0.386-0.49c1.046-1.251,2.085-2.648,2.952-3.969c0.237-0.361,0.436-0.663,0.441-0.669
	c0.005-0.006,0.33,0.109,0.722,0.255c0.947,0.354,1.69,0.585,2.695,0.836c1.235,0.309,3.019,0.618,4.076,0.707
	c0.162,0.014,0.245,0.032,0.219,0.049c-0.049,0.031-1.119,0.388-1.906,0.636c-1.249,0.392-5.064,1.52-8.176,2.415
	c-0.577,0.166-1.071,0.306-1.096,0.312C13.945,46.031,13.702,45.967,13.702,45.934z M23.673,47.341
	c-0.097,0.232-0.132,0.288-0.182,0.286c-0.122-0.005-1.832-0.244-2.867-0.401c-1.812-0.275-4.846-0.805-5.612-0.979l-0.178-0.04
	l1.086-0.245c2.327-0.524,3.445-0.806,4.579-1.153c1.43-0.438,2.846-0.984,4.276-1.648c0.226-0.105,0.419-0.186,0.467-0.196
	c0.007-0.001,0.01-0.002,0.011,0C25.284,43.04,24.104,46.306,23.673,47.341z M26.656,38.483c-0.256,0.908-0.471,1.618-0.87,2.876
	c-0.176,0.556-0.327,1.009-0.336,1.007c-0.009-0.002-0.051-0.01-0.094-0.018c-2.159-0.391-4.093-0.936-5.905-1.664
	c-0.507-0.204-1.239-0.528-1.277-0.566c-0.013-0.013,0.425-0.219,0.972-0.458c3.309-1.444,6.737-3.088,7.909-3.793
	c0.141-0.085,0.245-0.134,0.269-0.129c0.003,0.001,0.005,0.003,0.005,0.006C27.328,35.905,26.961,37.4,26.656,38.483z
	 M27.198,35.394c-0.965,0.535-4.142,1.857-7.388,3.075c-0.474,0.178-0.936,0.352-1.027,0.388c-0.09,0.036-0.164,0.06-0.164,0.053
	c0-0.007,0.134-0.265,0.298-0.572c0.911-1.704,1.821-3.774,2.287-5.21c0.048-0.146,0.09-0.27,0.094-0.275
	c0.005-0.005,0.183,0.09,0.395,0.213c1.552,0.898,3.719,1.74,5.566,2.163l0.167,0.038L27.198,35.394z M27.986,28.982
	c-0.002,1.621-0.175,3.841-0.426,5.461c-0.044,0.284-0.082,0.519-0.085,0.522c-0.003,0.003-0.208-0.057-0.455-0.134
	c-1.091-0.339-2.274-0.845-3.341-1.43c-0.707-0.387-1.729-1.015-1.7-1.043c0.008-0.008,0.309-0.167,0.669-0.354
	c1.427-0.741,2.79-1.539,3.975-2.331c0.445-0.297,1.11-0.778,1.258-0.908l0.105-0.091V28.982z M27.942,27.342
	c0.013,0.3,0.01,0.493-0.008,0.493c-0.057,0-1.231-0.689-2.064-1.212c-0.718-0.451-2.07-1.349-2.315-1.537
	c1.272-0.433,2.633-0.869,4.042-1.299C27.701,24.209,27.889,26.093,27.942,27.342z M30.97,21.66c-3.329,0.924-5.9,1.746-8.901,2.848
	c-0.333,0.122-0.621,0.224-0.64,0.224c-0.041,0-0.083,0.038,0.666-0.651c1.919-1.766,3.615-3.712,4.882-5.605l0.255-0.383
	l0.354,0.23c0.813,0.528,1.775,1.238,2.509,1.849c0.411,0.343,1.211,1.058,1.375,1.232l0.088,0.093L30.97,21.66z M32.29,21.285
	c-0.007,0-0.1-0.131-0.207-0.29c-0.816-1.219-1.784-2.29-2.94-3.251c-0.216-0.179-0.459-0.376-0.54-0.436
	c-0.081-0.06-0.147-0.116-0.148-0.125c-0.001-0.02,1.233-0.549,2.175-0.932c1.639-0.667,3.88-1.466,5.557-1.98
	c0.884-0.271,1.824-0.541,1.837-0.528c0.015,0.015-0.468,0.77-0.768,1.2c-0.438,0.628-1.074,1.452-2.521,3.273
	c-0.76,0.956-1.618,2.038-1.907,2.404C32.54,20.985,32.297,21.285,32.29,21.285z M44.446,19.167c-3.06,0.23-6.973,0.881-10.74,1.787
	c-0.256,0.062-0.477,0.113-0.491,0.113c-0.014,0,0.266-0.281,0.622-0.624c2.212-2.127,3.221-3.47,4.409-5.869
	c0.177-0.357,0.327-0.666,0.333-0.684c0,0,0.001-0.001,0.003-0.002v0c0.026-0.005,0.202,0.08,0.414,0.201
	c1.766,1.012,3.496,2.311,4.857,3.647c0.387,0.38,1.334,1.365,1.32,1.373C45.169,19.111,44.842,19.137,44.446,19.167z"/>
</svg>
