<?xml version="1.0" encoding="utf-8"?>
<!-- Generator: Adobe Illustrator 17.0.0, SVG Export Plug-In . SVG Version: 6.00 Build 0)  -->
<!DOCTYPE svg PUBLIC "-//W3C//DTD SVG 1.1//EN" "http://www.w3.org/Graphics/SVG/1.1/DTD/svg11.dtd">
<svg version="1.1" id="Layer_1" xmlns="http://www.w3.org/2000/svg" xmlns:xlink="http://www.w3.org/1999/xlink" x="0px" y="0px"
	 width="48px" height="48px" viewBox="0 0 48 48" enable-background="new 0 0 48 48" xml:space="preserve">
<g>
	<path d="M23,0C12.885,0,4.5,3.388,4.5,7.567c0,3.371,0,5.965,0,9.563c0,4.179,8.385,7.567,18.5,7.567s18.5-3.388,18.5-7.567
		s0-6.531,0-9.563C41.5,3.388,33.115,0,23,0z M24.332,14.879c-8.343,0-15.106-2.795-15.106-6.242s6.763-6.242,15.106-6.242
		S39.439,5.19,39.439,8.637S32.675,14.879,24.332,14.879z"/>
	<path d="M23,39.006c-10.115,0-18.5-3.388-18.5-7.567c0,3.1,0,5.601,0,8.993C4.5,44.612,12.885,48,23,48s18.5-3.388,18.5-7.568
		c0-3.915,0-6.225,0-8.993C41.5,35.618,33.115,39.006,23,39.006z"/>
	<path d="M23,27.163c-10.115,0-18.5-3.388-18.5-7.568c0,3.1,0,5.601,0,8.993c0,4.179,8.385,7.567,18.5,7.567s18.5-3.388,18.5-7.567
		c0-3.914,0-6.225,0-8.993C41.5,23.775,33.115,27.163,23,27.163z"/>
</g>
</svg>
