<?xml version="1.0" encoding="utf-8"?>
<!-- Generator: Adobe Illustrator 17.0.0, SVG Export Plug-In . SVG Version: 6.00 Build 0)  -->
<!DOCTYPE svg PUBLIC "-//W3C//DTD SVG 1.1//EN" "http://www.w3.org/Graphics/SVG/1.1/DTD/svg11.dtd">
<svg version="1.1" id="Layer_1" xmlns="http://www.w3.org/2000/svg" xmlns:xlink="http://www.w3.org/1999/xlink" x="0px" y="0px"
	 width="48px" height="48px" viewBox="0 0 48 48" enable-background="new 0 0 48 48" xml:space="preserve">
<g>
	<path d="M47.811,2.052c-0.172-0.608-0.497-1.105-0.969-1.477C46.359,0.193,45.753,0,45.042,0c-1.608,0-3.312,0.723-5.063,2.148
		c-1.643,1.335-3.292,3.087-4.901,5.205c-1.591,2.091-3.145,4.477-4.619,7.089c-1.466,2.597-2.777,5.245-3.898,7.87
		c-1.118,2.619-2.026,5.148-2.698,7.516c-0.684,2.406-1.03,4.458-1.03,6.097c0,0.754,0.181,1.4,0.537,1.922
		c0.298,0.437,0.903,0.957,2.094,0.957c0.935,0,1.943-0.397,2.994-1.178c0.976-0.722,1.837-1.637,2.56-2.718l0.092-0.139l0.04-0.162
		c0.109-0.45-0.007-0.89-0.321-1.207c-0.388-0.393-0.999-0.457-1.464-0.147l-0.134,0.089l-0.097,0.13
		c-0.454,0.605-0.851,1.058-1.183,1.346c-0.145,0.127-0.281,0.209-0.406,0.245c-0.023-0.1-0.047-0.267-0.047-0.528
		c0-1.782,0.235-3.79,0.7-5.968c0.467-2.193,1.116-4.442,1.927-6.682c0.807-2.231,1.777-4.432,2.88-6.543
		c1.095-2.091,2.284-3.966,3.536-5.572c1.233-1.58,2.517-2.865,3.816-3.82c1.203-0.885,2.394-1.334,3.541-1.334
		c0.699,0,0.964,0.144,1.046,0.206c0.056,0.043,0.071,0.068,0.063,0.09l-0.039,0.23l0.074,0.221
		c0.097,0.295,0.293,0.548,0.571,0.736c0.469,0.312,1.057,0.258,1.434-0.116l0.156-0.206c0.352-0.625,0.581-1.267,0.681-1.908
		C47.987,3.205,47.963,2.595,47.811,2.052z"/>
	<path d="M25.167,12.075c0-0.754-0.18-1.401-0.536-1.922c-0.297-0.437-0.902-0.957-2.094-0.957c-0.933,0-1.941,0.396-2.995,1.178
		c-0.974,0.721-1.835,1.635-2.559,2.718l-0.094,0.14l-0.039,0.164c-0.108,0.45,0.01,0.889,0.325,1.208
		c0.39,0.391,1.001,0.451,1.462,0.142l0.133-0.089l0.097-0.129c0.453-0.605,0.851-1.057,1.183-1.346
		c0.175-0.153,0.31-0.217,0.405-0.244c0.023,0.099,0.047,0.266,0.047,0.529c0,1.781-0.235,3.788-0.699,5.966
		c-0.467,2.194-1.116,4.443-1.928,6.683c-0.808,2.233-1.778,4.435-2.881,6.544c-1.091,2.086-2.281,3.961-3.535,5.572
		c-1.233,1.581-2.517,2.866-3.815,3.82c-1.203,0.884-2.395,1.333-3.543,1.333c-0.7,0-0.964-0.143-1.044-0.204
		C3,43.136,2.985,43.11,2.993,43.089l0.038-0.229L2.958,42.64c-0.098-0.298-0.295-0.552-0.573-0.738
		c-0.467-0.31-1.056-0.256-1.432,0.116l-0.158,0.208c-0.351,0.626-0.58,1.267-0.681,1.906c-0.102,0.662-0.078,1.272,0.074,1.814
		c0.17,0.608,0.495,1.105,0.968,1.478C1.641,47.806,2.247,48,2.959,48c1.607,0,3.311-0.722,5.064-2.148
		c1.643-1.335,3.292-3.086,4.902-5.205c1.594-2.098,3.148-4.483,4.617-7.089c1.469-2.605,2.78-5.252,3.898-7.869
		c1.119-2.621,2.027-5.15,2.698-7.517C24.82,15.767,25.167,13.716,25.167,12.075z"/>
</g>
</svg>
