<?xml version="1.0" encoding="utf-8"?>
<!-- Generator: Adobe Illustrator 17.0.0, SVG Export Plug-In . SVG Version: 6.00 Build 0)  -->
<!DOCTYPE svg PUBLIC "-//W3C//DTD SVG 1.1//EN" "http://www.w3.org/Graphics/SVG/1.1/DTD/svg11.dtd">
<svg version="1.1" id="Layer_1" xmlns="http://www.w3.org/2000/svg" xmlns:xlink="http://www.w3.org/1999/xlink" x="0px" y="0px"
	 width="48px" height="48px" viewBox="0 0 48 48" enable-background="new 0 0 48 48" xml:space="preserve">
<path d="M45.55,18.074c-0.81-0.81-1.757-1.43-2.788-1.847c0.428-1.006,0.668-2.111,0.668-3.271c0-4.622-3.761-8.383-8.383-8.383
	c-1.17,0-2.284,0.243-3.297,0.678c-0.408-1.016-0.998-1.975-1.819-2.797c-1.583-1.583-3.688-2.456-5.928-2.456
	s-4.344,0.872-5.928,2.456c-0.822,0.822-1.411,1.781-1.819,2.797c-1.013-0.435-2.127-0.678-3.297-0.678
	c-4.622,0-8.383,3.76-8.383,8.383c0,1.16,0.24,2.265,0.668,3.271c-1.031,0.416-1.978,1.037-2.787,1.846C0.872,19.657,0,21.762,0,24
	c0,2.239,0.872,4.345,2.455,5.927c0.81,0.81,1.757,1.43,2.787,1.847c-0.428,1.006-0.668,2.111-0.668,3.271
	c0,4.622,3.76,8.383,8.383,8.383c1.17,0,2.285-0.243,3.297-0.678c0.409,1.016,0.998,1.975,1.82,2.797
	c1.583,1.583,3.688,2.455,5.927,2.455s4.344-0.871,5.927-2.455c0.822-0.822,1.412-1.781,1.82-2.797
	c1.013,0.435,2.127,0.678,3.297,0.678c4.622,0,8.383-3.761,8.383-8.383c0-1.16-0.239-2.265-0.668-3.271
	c1.031-0.416,1.978-1.037,2.788-1.847C48.817,26.658,48.817,21.341,45.55,18.074z M42.098,26.476c-1.367,1.367-3.584,1.367-4.952,0
	h-0.263H31.93H29.98l0.975,0.975l0.404,0.404l3.688,3.688c1.934,0,3.501,1.568,3.501,3.501s-1.568,3.501-3.501,3.501
	c-1.934,0-3.501-1.568-3.501-3.501l-0.186-0.186l-3.906-3.906l-0.975-0.975v1.951v5.216c1.367,1.367,1.367,3.584,0,4.952
	c-1.367,1.367-3.584,1.367-4.952,0c-1.367-1.367-1.367-3.584,0-4.952V36.88v-6.902l-5.067,5.067c0,1.934-1.568,3.501-3.501,3.501
	s-3.501-1.568-3.501-3.501s1.568-3.501,3.501-3.501l5.067-5.067h-6.903h-0.263c-1.367,1.367-3.584,1.367-4.952,0
	c-1.367-1.367-1.367-3.584,0-4.952c1.367-1.367,3.584-1.367,4.952,0h0.263h4.951h1.951l-0.976-0.976l-0.404-0.404l-3.688-3.688
	c-1.934,0-3.501-1.568-3.501-3.501s1.568-3.501,3.501-3.501s3.501,1.568,3.501,3.501l0.186,0.186l3.905,3.905l0.976,0.976v-1.951
	v-5.215c-1.367-1.367-1.367-3.584,0-4.952c1.367-1.367,3.584-1.367,4.952,0c1.367,1.367,1.367,3.584,0,4.952v0.263v6.903
	l5.067-5.067c0-1.934,1.568-3.501,3.501-3.501c1.934,0,3.501,1.568,3.501,3.501s-1.568,3.501-3.501,3.501l-5.067,5.067h6.902h0.264
	c1.367-1.367,3.584-1.367,4.952,0C43.465,22.892,43.465,25.109,42.098,26.476z"/>
</svg>
