<?xml version="1.0" encoding="utf-8"?>
<!-- Generator: Adobe Illustrator 17.0.0, SVG Export Plug-In . SVG Version: 6.00 Build 0)  -->
<!DOCTYPE svg PUBLIC "-//W3C//DTD SVG 1.1//EN" "http://www.w3.org/Graphics/SVG/1.1/DTD/svg11.dtd">
<svg version="1.1" id="Layer_1" xmlns="http://www.w3.org/2000/svg" xmlns:xlink="http://www.w3.org/1999/xlink" x="0px" y="0px"
	 width="48px" height="48px" viewBox="0 0 48 48" enable-background="new 0 0 48 48" xml:space="preserve">
<path d="M29.573,2.595c21.094,14.339,14.27,30.125,14.27,30.125s5.997,6.756,3.585,12.684c0,0-2.482-4.136-6.618-4.136
	c-3.998,0-6.342,4.136-14.408,4.136C8.479,45.405,0,30.445,0,30.445c16.138,10.634,27.161,3.102,27.161,3.102
	C19.88,29.319,4.412,9.144,4.412,9.144c13.483,11.468,19.302,14.476,19.302,14.476C20.23,20.753,10.478,6.732,10.478,6.732
	c7.803,7.895,23.3,18.888,23.3,18.888C38.199,13.468,29.573,2.595,29.573,2.595z"/>
</svg>
