<?xml version="1.0" encoding="utf-8"?>
<!-- Generator: Adobe Illustrator 17.0.0, SVG Export Plug-In . SVG Version: 6.00 Build 0)  -->
<!DOCTYPE svg PUBLIC "-//W3C//DTD SVG 1.1//EN" "http://www.w3.org/Graphics/SVG/1.1/DTD/svg11.dtd">
<svg version="1.1" id="Layer_1" xmlns="http://www.w3.org/2000/svg" xmlns:xlink="http://www.w3.org/1999/xlink" x="0px" y="0px"
	 width="48px" height="48px" viewBox="0 0 48 48" enable-background="new 0 0 48 48" xml:space="preserve">
<path d="M8.067,25.681c0.336-1.143,1.277-1.345,2.286-1.076s1.345,1.412,1.076,2.42c-0.067,0.067-0.067,0.067-0.067,0.134
	c-0.067,0.067-0.067,0.202-0.134,0.336l-0.403,0.739c-0.202,0.739,0.739,1.21,1.479,1.479c1.546,0.471,3.092-0.336,3.429-1.613
	c0.336-1.277-0.403-2.017-0.739-2.286l-1.412-1.546c-0.739-0.807-2.218-2.824-1.479-5.244c0.269-0.874,0.874-1.882,1.748-2.487
	c1.815-1.345,3.765-1.613,5.58-1.076c1.21,0.336,2.151,0.874,2.891,1.546c0.672,0.739,1.412,1.345,2.151,1.95
	c0.874-2.42,1.95-4.84,3.765-6.924c1.613-1.882,3.697-3.092,6.118-3.294c2.42,0,4.303,1.076,4.37,2.756
	c0,0.807-0.336,2.218-1.882,2.286c-1.076,0-1.882-0.605-1.95-1.613c0-0.336,0.134-0.739,0.336-1.076
	c0.134-0.269,0.202-0.471,0.269-0.538c0.067-0.067,0.067-0.134,0-0.202c0-0.739-0.941-0.672-1.21-0.672
	c-3.563,0.067-4.571,4.975-5.311,8.941l-0.403,2.084c2.084,0.336,3.563-0.067,4.37-0.605c0.538-0.336,0.605-0.739,0.269-1.143
	c-0.739-0.739-0.403-1.815,0.202-2.218c0.336-0.202,0.605-0.269,0.941-0.269c0.874,0,1.546,0.941,1.546,1.815
	c-0.067,1.546-2.084,3.63-6.118,3.563c-0.538,0-0.941-0.067-1.412-0.134l-0.605,4.235c-0.739,3.227-1.613,7.597-4.84,11.429
	c-2.756,3.294-5.647,3.899-6.924,3.899c-2.42,0-4.034-1.143-4.034-2.958c-0.067-1.613,1.345-2.487,2.353-2.555
	c1.277-0.067,2.151,0.874,2.218,1.95c0,0.874-0.471,1.143-0.739,1.345c-0.269,0.202-0.538,0.336-0.538,0.672
	c0,0.202,0.202,0.538,0.739,0.471c0.471,0,0.941-0.134,1.277-0.336c0.336-0.202,0.605-0.336,0.874-0.471
	c2.353-1.95,3.227-5.311,4.37-11.496l0.269-1.479c0.202-1.008,0.471-2.017,0.739-3.16c0.202-1.076,0.471-2.151,0.807-3.294
	c-0.807-0.605-1.546-1.277-2.218-1.95c-1.345-1.277-3.496-1.815-4.504-1.546c-1.008,0.336-1.748,1.345-1.613,2.42
	c0.067,0.605,0.269,1.076,0.605,1.412l1.277,1.345c1.546,1.815,2.286,3.092,1.95,4.908c-0.471,2.958-3.899,5.176-8,3.899
	C8.336,29.58,7.597,27.025,8.067,25.681z M24,48c6.655,0,12.639-2.756,17.008-7.059C45.311,36.639,48,30.655,48,24
	s-2.689-12.639-6.992-17.008C36.639,2.689,30.655,0,24,0S11.361,2.689,7.059,6.992C2.689,11.361,0,17.345,0,24
	s2.689,12.639,7.059,16.941C11.361,45.244,17.345,48,24,48z"/>
</svg>
