<?xml version="1.0" encoding="utf-8"?>
<!-- Generator: Adobe Illustrator 17.0.0, SVG Export Plug-In . SVG Version: 6.00 Build 0)  -->
<!DOCTYPE svg PUBLIC "-//W3C//DTD SVG 1.1//EN" "http://www.w3.org/Graphics/SVG/1.1/DTD/svg11.dtd">
<svg version="1.1" id="Layer_1" xmlns="http://www.w3.org/2000/svg" xmlns:xlink="http://www.w3.org/1999/xlink" x="0px" y="0px"
	 width="48px" height="48px" viewBox="0 0 48 48" enable-background="new 0 0 48 48" xml:space="preserve">
<g>
	<polygon points="0,10.198 10.22,10.198 10.22,42.875 14.769,42.875 14.769,10.198 24.988,10.198 24.988,6.354 0,6.354 	"/>
	<path d="M47.293,29.209c-0.467-1.041-1.106-1.989-1.903-2.851c-0.797-0.862-1.731-1.644-2.793-2.348
		c-1.063-0.704-2.19-1.379-3.375-2.018c-1.156-0.625-2.176-1.192-3.059-1.716c-0.89-0.524-1.637-1.063-2.255-1.616
		c-0.618-0.56-1.084-1.17-1.4-1.845c-0.316-0.675-0.474-1.472-0.474-2.398c0-0.998,0.208-1.838,0.625-2.528
		c0.416-0.697,0.955-1.257,1.616-1.695c0.661-0.438,1.415-0.754,2.262-0.948c0.847-0.187,1.456-0.287,2.303-0.287
		c3.066,0,5.371,0.74,7.294,2.219V6.41c-1.922-0.854-3.631-1.285-6.899-1.285c-1.429,0-2.717,0.194-4.096,0.582
		c-1.379,0.388-2.547,0.977-3.624,1.766c-1.084,0.79-1.923,1.795-2.584,3.016c-0.661,1.221-0.976,2.65-0.976,4.301
		c0,1.343,0.216,2.52,0.639,3.519c0.424,0.998,1.009,1.896,1.749,2.686c0.732,0.79,1.61,1.515,2.608,2.169
		c0.998,0.661,2.076,1.307,3.232,1.946c1.091,0.61,2.112,1.185,3.059,1.731c0.948,0.546,1.767,1.12,2.463,1.716
		c0.697,0.596,1.235,1.257,1.63,1.982c0.395,0.725,0.589,1.573,0.589,2.549c0,1.817-0.589,3.21-1.766,4.179
		c-1.178,0.969-2.966,1.451-5.35,1.451c-0.689,0-1.443-0.079-2.262-0.23c-0.811-0.151-1.623-0.373-2.434-0.646
		c-0.811-0.273-1.123-0.618-1.855-1.02c-0.732-0.402-1.424-0.862-1.424-1.364v4.998c0,0.316,0.548,0.61,1.274,0.89
		c0.718,0.259,1.244,0.474,2.048,0.653c0.797,0.172,1.473,0.309,2.241,0.402c0.768,0.093,1.358,0.136,1.882,0.136
		c1.573,0,3.038-0.172,4.452-0.517c1.422-0.345,2.657-0.905,3.741-1.68c1.084-0.776,1.939-1.781,2.578-3.016
		C47.68,36.088,48,34.573,48,32.792C48,31.449,47.759,30.25,47.293,29.209z"/>
</g>
</svg>
