<?xml version="1.0" encoding="utf-8"?>
<!-- Generator: Adobe Illustrator 17.0.0, SVG Export Plug-In . SVG Version: 6.00 Build 0)  -->
<!DOCTYPE svg PUBLIC "-//W3C//DTD SVG 1.1//EN" "http://www.w3.org/Graphics/SVG/1.1/DTD/svg11.dtd">
<svg version="1.1" id="Layer_1" xmlns="http://www.w3.org/2000/svg" xmlns:xlink="http://www.w3.org/1999/xlink" x="0px" y="0px"
	 width="48px" height="48px" viewBox="0 0 48 48" enable-background="new 0 0 48 48" xml:space="preserve">
<path d="M33.193,32.692c-0.049,0.981-0.245,1.031-1.227,1.178c-0.736,0.147-0.932,0.344-0.981,1.178c0,0.54,0,1.031,0,1.521
	c0,0.54,0,1.031,0,1.521c0,0.736-0.245,1.276-0.687,1.718c-2.699,2.699-5.84,3.975-9.618,3.533
	c-1.619-0.196-2.748-1.227-3.582-2.601c0.196-0.098,0.393-0.196,0.54-0.245c0.147-0.049,0.245-0.098,0.393-0.147
	c1.227-0.442,1.472-1.521,0.491-2.454c-0.344-0.344-0.736-0.638-1.129-0.981c-0.834-0.589-1.619-1.227-2.355-1.865
	c-0.393-0.294-0.785-0.589-1.178-0.883c-0.638-0.54-0.932-1.227-0.932-2.012c0-2.11,0.393-3.975,1.227-5.79
	c0.393-0.834,0.736-1.718,1.08-2.552c0.294-0.834,0.638-1.718,0.981-2.552c0.393-0.834,0.736-1.718,1.276-2.503
	c0.54-0.736,0.834-1.472,0.785-2.306c0-0.245,0-0.54,0-0.785c0-0.245,0-0.491,0-0.736l0.294-0.147
	c0.442,0.393,0.932,0.785,1.325,1.178c1.619,1.423,3.092,1.472,4.858,0.245c0.736-0.54,1.521-0.981,2.306-1.423
	c0.098-0.049,0.196-0.098,0.344-0.147s0.294-0.098,0.442-0.147c0.834,2.012,1.668,3.926,2.503,5.889
	c0.196,0.491,0.393,0.981,0.589,1.472c0.196,0.54,0.442,1.031,0.687,1.521c1.031,1.816,1.619,3.828,1.57,5.987
	c0,0.54,0,1.129,0.049,1.668C33.242,31.563,33.242,32.152,33.193,32.692z M18.373,7.469c0.54-0.785,1.276-0.932,2.012-0.393
	c0.785,0.54,1.423,2.012,1.08,2.944c-0.049,0.147-0.098,0.294-0.245,0.442s-0.294,0.294-0.393,0.442l-0.245-0.147
	c-0.049-0.245-0.098-0.491-0.098-0.736c-0.049-0.54-0.196-0.883-0.54-1.08c-0.147-0.098-0.294-0.196-0.442-0.344
	c-0.098,0.147-0.245,0.294-0.393,0.442c-0.344,0.245-0.344,0.687-0.147,1.129c0.147,0.442,0.294,0.785,0.54,0.981
	c0.098,0.147,0.245,0.245,0.393,0.393l-0.785,0.589C17.932,11.1,17.588,8.647,18.373,7.469z M23.378,8.352
	c0.344-1.031,1.031-1.668,2.061-1.865c0.932-0.196,1.668,0.245,2.208,1.276c0.638,1.031,0.834,2.208,0.294,3.386
	c-0.393,0.981-0.589,1.08-1.619,0.736c-0.147-0.049-0.344-0.196-0.687-0.245c0.147-0.147,0.245-0.245,0.344-0.344
	c0.098-0.049,0.196-0.147,0.294-0.245c0.442-0.245,0.589-0.687,0.54-1.227c-0.049-0.638-0.54-1.227-1.08-1.227
	c-0.54,0-0.932,0.491-0.981,1.129c0,0.442,0.049,0.883,0.098,1.423C23.477,10.757,22.986,9.775,23.378,8.352z M43.596,39.954
	c-0.736-0.589-1.472-1.178-2.11-1.767c-0.736-0.736-1.227-1.521-1.08-2.65c0.049-0.589-0.098-1.129-0.834-1.325
	c0.196-0.442,0.344-0.785,0.393-1.129s0.098-0.687,0.098-1.08c0.049-3.926-1.325-7.361-3.435-10.55
	c-0.932-1.423-1.963-2.944-2.993-4.318c-1.57-2.306-2.159-4.76-2.208-7.459c0-1.227-0.147-2.503-0.393-3.729
	c-0.54-2.355-1.767-4.22-4.122-5.202c-1.767-0.785-3.533-0.981-5.447-0.442c-2.699,0.736-4.318,2.748-4.318,5.545
	c0.049,2.699,0.196,5.398,0.393,8.097c0.049,1.521-0.147,2.846-1.178,4.073c-0.932,1.129-1.865,2.355-2.65,3.68
	c-0.54,0.736-0.981,1.521-1.227,2.306c-0.785,2.208-1.521,4.466-2.846,6.477c-0.54,0.785-0.54,1.619-0.196,2.454
	c0.049,0.196,0.147,0.54,0,0.736c-0.932,1.521-1.963,2.846-3.926,3.19c-1.57,0.196-1.619,0.491-1.57,2.11
	c0,1.325,0,2.601-0.147,3.926c-0.147,1.374,0,1.767,1.374,2.11c1.521,0.393,3.092,0.785,4.662,1.178
	c1.521,0.393,3.042,0.883,4.564,1.521c1.227,0.54,2.552,0.344,3.533-0.687c1.129-1.129,2.454-1.521,3.877-1.521
	c1.227,0,2.503,0,3.729,0.049s2.454,0.049,3.68,0.098c0.638,0,1.08,0.245,1.325,0.834c0.344,0.785,0.883,1.276,1.718,1.423
	c1.718,0.147,3.19-0.098,4.416-1.325c1.521-1.57,3.337-2.797,5.349-3.631c0.589-0.245,1.08-0.638,1.619-1.031
	C44.479,41.132,44.43,40.691,43.596,39.954z"/>
</svg>
