<?xml version="1.0" encoding="utf-8"?>
<!-- Generator: Adobe Illustrator 17.0.0, SVG Export Plug-In . SVG Version: 6.00 Build 0)  -->
<!DOCTYPE svg PUBLIC "-//W3C//DTD SVG 1.1//EN" "http://www.w3.org/Graphics/SVG/1.1/DTD/svg11.dtd">
<svg version="1.1" id="Layer_1" xmlns="http://www.w3.org/2000/svg" xmlns:xlink="http://www.w3.org/1999/xlink" x="0px" y="0px"
	 width="48px" height="48px" viewBox="0 0 48 48" enable-background="new 0 0 48 48" xml:space="preserve">
<path d="M45.022,38.957l-2.978-2.968H31.635H21.217l-2.455-2.455l-2.445-2.445l1.047-1.047l1.047-1.047l2.074,2.074l2.065,2.065
	h4.234h4.234l-4.186-4.186l-4.186-4.186l1.075-1.066l1.066-1.075l4.186,4.186l4.186,4.186v-4.234v-4.234l-2.065-2.065l-2.074-2.074
	l0.999-0.999c0.552-0.552,1.037-0.999,1.094-0.999c0.057,0,1.18,1.085,2.493,2.398l2.407,2.407l0.019,5.946l0.029,5.946h2.997h2.997
	l0.029-7.136l0.019-7.136l-3.378-3.378l-3.378-3.378l-2.074,2.074c-1.132,1.132-2.112,2.065-2.16,2.065
	c-0.057,0-2.407-2.312-5.233-5.138l-5.138-5.138H10.371H0l3.045,3.045l3.045,3.045h6.137h6.137l2.141,2.141l2.141,2.141
	l-3.168,3.159l-3.159,3.168l-2.188-2.188l-2.188-2.188V16.55v-1.684l-2.968,0.019l-2.978,0.029l-0.029,2.949l-0.019,2.949
	l5.157,5.157l5.166,5.166l-2.093,2.093l-2.093,2.093l3.378,3.378l3.378,3.378h14.576c8.021,0,14.586-0.029,14.586-0.076
	C48,41.963,46.658,40.593,45.022,38.957z"/>
</svg>
