<?xml version="1.0" encoding="utf-8"?>
<!-- Generator: Adobe Illustrator 17.0.0, SVG Export Plug-In . SVG Version: 6.00 Build 0)  -->
<!DOCTYPE svg PUBLIC "-//W3C//DTD SVG 1.1//EN" "http://www.w3.org/Graphics/SVG/1.1/DTD/svg11.dtd">
<svg version="1.1" id="Layer_1" xmlns="http://www.w3.org/2000/svg" xmlns:xlink="http://www.w3.org/1999/xlink" x="0px" y="0px"
	 width="48px" height="48px" viewBox="0 0 48 48" enable-background="new 0 0 48 48" xml:space="preserve">
<path d="M1.626,4.446c-0.239,2.725,0.287,6.263,2.056,9.323c1.721,3.108,4.733,5.833,9.562,7.171
	c2.056,0.622,3.825,1.147,5.402,1.578c3.06,0.908,7.076,2.151,10.709,4.398c1.769,1.147,3.394,2.629,4.781,4.446
	c-0.239-3.108-1.052-6.454-2.247-9.705c-1.195-3.251-2.869-6.406-4.924-9.227c-2.916-3.968-6.932-6.884-11.331-8.367
	C11.188,2.582,6.264,2.534,1.626,4.446z M26.104,26.295c-0.765,1.482-1.865,3.06-3.251,4.781c-1.53,1.865-2.964,4.303-3.968,7.171
	c-1.004,2.916-1.482,6.167-1.052,9.753c6.072-0.622,10.088-3.299,12.574-6.359s3.538-6.598,3.729-9.084
	C31.841,29.068,27.682,26.916,26.104,26.295z M40.495,0c-2.725,0.048-5.737,1.865-7.793,4.398s-3.155,5.833-2.008,9.036
	c1.195,3.203,2.151,5.833,2.916,8.653c0.717,2.821,1.147,5.689,1.339,9.275c2.869-2.916,5.641-5.928,7.745-9.179
	c2.104-3.203,3.538-6.598,3.729-10.231C46.566,6.024,43.746,1.673,40.495,0z"/>
</svg>
