<?xml version="1.0" encoding="utf-8"?>
<!-- Generator: Adobe Illustrator 17.0.0, SVG Export Plug-In . SVG Version: 6.00 Build 0)  -->
<!DOCTYPE svg PUBLIC "-//W3C//DTD SVG 1.1//EN" "http://www.w3.org/Graphics/SVG/1.1/DTD/svg11.dtd">
<svg version="1.1" id="Layer_1" xmlns="http://www.w3.org/2000/svg" xmlns:xlink="http://www.w3.org/1999/xlink" x="0px" y="0px"
	 width="48px" height="48px" viewBox="0 0 48 48" enable-background="new 0 0 48 48" xml:space="preserve">
<path d="M31.759,29.036c-0.482,0-0.964,0-1.446,0s-0.964,0-1.446,0c-0.241,0.048-0.434,0.048-0.627,0.048
	c-0.241,0.048-0.434,0.048-0.675,0.096c-3.47,0.53-4.771,3.422-4.964,5.88c0,0.241,0.048,0.289,0.289,0.289c0.289,0,0.578,0,0.867,0
	c0.289,0,0.578,0,0.867,0v0.048c0.386-0.048,0.771-0.048,1.157-0.048s0.771-0.048,1.157-0.096c2.892-0.337,5.108-2.988,5.108-5.928
	C32.048,29.084,31.952,29.036,31.759,29.036z M38.12,20.94c-1.59,0-3.181,0-4.771,0c-1.59,0-3.133,0-4.723,0
	c-1.012,0-1.976,0.241-2.892,0.675c-2.072,1.157-2.892,3.036-3.133,5.301c0,0.337,0.145,0.289,0.337,0.289c0.819,0,1.687,0,2.506,0
	s1.687,0,2.506,0c0.289,0,0.578,0,0.867,0c0.241,0,0.53,0,0.819,0c0.627,0,1.253,0,1.88,0c1.253,0,2.699-0.048,4-0.819
	c1.301-0.723,2.12-2.072,2.506-3.229c0.193-0.578,0.337-1.205,0.386-1.831C38.458,20.94,38.458,20.94,38.12,20.94z M47.614,12.795
	c-1.59,0-3.133,0-4.675,0c-1.59,0-3.133,0-4.675,0c-1.59,0-3.133,0-4.675,0c-1.59,0-3.133,0-4.675,0
	c-0.723,0-1.446,0.096-2.072,0.289c-2.458,0.578-4.386,3.229-4.241,5.687c0,0.145,0.048,0.241,0.096,0.193c0.048,0,0.145,0,0.241,0
	h9.542c0.819,0,1.639,0,2.458,0c0.819,0.048,1.59,0.048,2.41,0.048c0.867,0,1.735,0,2.651,0c1.735,0.048,3.614,0.096,5.06-0.723
	c1.446-0.819,2.217-2.313,2.554-3.47c0.145-0.53,0.289-1.108,0.386-1.735C48,12.747,47.807,12.795,47.614,12.795z M20,30.482
	c-1.59,0-3.181,0-4.771,0c-1.59,0.048-3.181,0.048-4.771,0.048H9.976c1.108-1.542,2.217-3.084,3.325-4.578
	c2.169-3.036,4.337-5.976,6.506-8.964c1.108-1.494,2.169-2.94,3.277-4.434c-0.048,0-0.096,0-0.145-0.048c-0.048,0-0.096,0-0.145,0
	c-1.735,0-3.47,0-5.157,0c-1.735,0-3.47,0-5.157,0c-1.735,0-3.47,0-5.157,0c-1.735,0-3.47,0-5.157,0
	c-0.241,0-0.337,0.048-0.337,0.289c0,0.723,0,1.398,0,2.12s0,1.398,0,2.12c0,0.434,0,0.434,0.434,0.434c1.735,0,3.47,0,5.205,0
	s3.47,0,5.205,0c0.048,0,0.145,0,0.241,0c0.048,0,0.145,0,0.241,0.048C12.048,19.012,10.988,20.506,9.88,22
	c-2.169,3.036-4.337,5.976-6.554,8.964C2.217,32.458,1.108,33.952,0,35.446l0.241,0.048c1.639,0,3.277,0,4.964,0
	c1.639,0,3.277,0,4.964,0c1.639,0,3.277,0,4.964,0c1.639,0,3.277,0,4.916,0c0.337,0,0.337-0.145,0.337-0.337
	c0-0.723,0-1.446,0-2.169c0-0.723,0-1.446,0-2.169C20.386,30.578,20.337,30.482,20,30.482z"/>
</svg>
